<svg xmlns="http://www.w3.org/2000/svg"><symbol viewBox="0 0 50 45.5" id="i-bomb"><path d="M28.6 37.5h-2.8l.2 6.8c0 .3.1.6.4.9.2.2.5.4.9.4.3 0 .6-.1.8-.4.3-.2.4-.5.4-.9l.1-6.8m8 0l-.7.1h-1.7L37 42l.8.6.9-.2.6-.7-.1-1-1.8-3.4-.8.2m8.7-2.9l.9.1c.3-.1.6-.2.7-.5.2-.3.2-.6.1-1l-.5-.8-6.5-4v3.2l5.3 3M17 37.5l-1.6 3.3c-.2.3-.2.6-.1 1 .1.3.2.6.5.7.3.2.6.3.9.2l.8-.6 2.7-4.5H17M15.8 3.1c-.3.1-.4.4-.5.7-.1.3-.1.6.1.9l1.9 3.7h3.2l-3-4.9-.8-.6c-.3-.1-.6 0-.9.2m24.3 18.2v2.8l8.7-.2.8-.3c.3-.2.4-.5.4-.9 0-.3-.1-.6-.4-.8-.3-.3-.5-.4-.8-.4l-8.7-.2m0-7.7v3.3l6.5-3.9.5-.8c.1-.4.1-.7-.1-1-.1-.3-.4-.4-.7-.5l-.9.1-5.3 2.8M36.6 12c-.4-.4-.9-.6-1.5-.6h-33c-.5 0-1 .2-1.5.6-.4.5-.6 1-.6 1.5v19c0 .6.2 1.1.7 1.5.4.4.9.7 1.5.7h33c.6 0 1.1-.2 1.5-.7.4-.4.6-.9.6-1.5v-19c-.1-.5-.3-1-.7-1.5m-3.2 1.9c.4 0 .7.2.7.7v8.9c0 .4-.2.7-.7.7h-14L19 24l-.3-.5v-8.9c0-.2.1-.4.3-.5l.5-.2h13.9M23.1 25.5c.1-.1.2-.2.4-.2h1.8l.4.2.2.4v1.8l-.2.4-.4.2h-1.8c-.2 0-.3-.1-.4-.2l-.2-.4v-1.8l.2-.4m-1.4 0l.2.4v1.8l-.2.4-.5.2h-1.8c-.1 0-.3-.1-.4-.2l-.3-.4v-1.8l.3-.4c.1-.1.3-.2.4-.2h1.8l.5.2m-.4 4l.5.2.2.4v1.8l-.2.4-.5.2h-1.8l-.4-.2-.3-.4v-1.8c0-.2.1-.3.3-.4l.4-.2h1.8m1.6.6l.2-.4c.1-.1.2-.2.4-.2h1.8l.4.2.2.4v1.8l-.2.4-.4.2h-1.8c-.2 0-.3-.1-.4-.2l-.2-.4v-1.8m6.3-4.8l.4.2.2.4v1.8l-.2.4c-.1.1-.2.2-.4.2h-1.8c-.1 0-.3-.1-.4-.2l-.2-.4v-1.8l.2-.4.4-.2h1.8M27 29.7l.4-.2h1.8l.4.2.2.4v1.8l-.2.4-.4.2h-1.8l-.4-.2-.2-.4v-1.8l.2-.4m6.6-4.2l.2.4v1.8l-.2.4c-.1.1-.3.2-.5.2h-1.8l-.3-.2-.2-.4v-1.8l.2-.4c.1-.1.3-.2.4-.2h1.8c.2 0 .3.1.4.2M31 29.7l.4-.2h1.8l.5.2.2.4v1.8l-.2.4-.5.2h-1.8l-.4-.2-.2-.4v-1.8l.2-.4m-28.6-.9c0-1.1.3-1.9 1-2.6.7-.7 1.7-1.1 3.1-1.1l.9.1.8.2-.4 1.6-.5-.2-.7-.1c-.6 0-1.1.2-1.4.6-.4.4-.6.9-.6 1.4 0 .7.2 1.2.6 1.5.4.3.9.5 1.4.5l.7-.1.7-.2.2 1.7-.8.2-1.2.1c-1.2 0-2.1-.3-2.8-1-.7-.6-1-1.5-1-2.6m6.4 1.3v-1.5l3.6-5.8H15v5.6h1.3v1.7H15v2.2h-2.1v-2.2H8.8m4.2-5.6h-.1l-.4.9-.5.9-1.2 2.1h2.1v-2.1l.1-.9v-.9m9.3-6.2h-.5v.6l-.6-.4-.2.4.5.3-.5.3.2.4.6-.3v.6h.5l-.1-.6.7.3.2-.4-.6-.3.6-.3-.2-.4c-.2.1-.4.3-.7.4l.1-.6m5.5 0h-.5v.6l-.6-.4-.2.4.5.3-.5.3.2.4.6-.3v.6h.5l-.1-.6.6.3.2-.4-.6-.3.6-.3-.2-.4-.6.4.1-.6m-2.7 0h-.5v.6l-.5-.4-.3.4.6.3-.6.3.3.4.5-.3v.6h.5l-.2-.6.7.3.2-.4-.6-.3.6-.3-.2-.4-.7.4.2-.6M37.7 2.9l-.7.6-3.1 4.9h2l1.1.2 2.1-3.9.1-.9-.6-.7c-.3-.2-.6-.3-.9-.2m-9.3-1.7c0-.4-.1-.7-.4-.9-.2-.2-.5-.3-.8-.3-.3 0-.6.1-.9.4-.2.2-.3.4-.3.8l-.2 7.1h2.8l-.2-7.1z"/></symbol><symbol viewBox="0 0 16 16" id="i-down"><path shape-rendering="crispEdges" d="M4.5 5l3 3 3-3L12 6.5 7.5 11 3 6.5z"/></symbol><symbol viewBox="0 0 16 16" id="i-down2"><path shape-rendering="crispEdges" d="M4.5 2l3 3 3-3L12 3.5 7.5 8 3 3.5 4.5 2zM3 8.5L7.5 13 12 8.5 10.5 7l-3 3-3-3L3 8.5z"/></symbol><symbol viewBox="0 0 16 16" id="i-enter"><path shape-rendering="crispEdges" d="M13 4v3H5l3.5-3.5L7 2 1 8l6 6 1.5-1.5L5 9h10V4z"/></symbol><symbol viewBox="0 0 16 16" id="i-equal"><path shape-rendering="crispEdges" d="M4 5h8v2H4zM4 8h8v2H4z"/></symbol><symbol viewBox="0 0 16 16" id="i-expand"><path d="M9 0h7v7l-2-2V3.5L10.5 7 9 5.5 12.5 2H11zM7 16H0V9l2 2v1.5L5.5 9 7 10.5 3.5 14H5z"/></symbol><symbol viewBox="0 0 16 12" id="i-eye"><path d="M8 0C3.6 0 0 5.9 0 5.9S3.6 12 8 12s8-6.1 8-6.1S12.4 0 8 0zm0 10c-2.2 0-4-1.8-4-4s1.8-4 4-4 4 1.8 4 4-1.8 4-4 4zm0-6c1.1 0 2 .9 2 2s-.9 2-2 2-2-.9-2-2 .9-2 2-2z"/></symbol><symbol viewBox="0 0 50 45.1" id="i-headshot"><path d="M38 10l5-2.6-5-2H24.3l-1.1-1.1-.6-.6-.9-.8-1.8-1.1-2.3-1-2.3-.6-3-.2-3.1.4-2.8.9c-.9.4-1.5.8-2 1.3L2.8 4.5c-.6.8-1.1 1.7-1.6 2.7s-.8 2.2-1 3.3-.3 2.4-.1 3.6l.7 3.5c.2 1.2.4 2.4.7 3.5l.7 3.3.3 2-.7 2.6-.6 4c-.2.9-.2 1.4-.1 1.7h.2l1.5 1.7 3.7 3.4 5 3.5c1.8 1.1 3.6 1.7 5.4 1.8l.8-.1 1.6-.5 2.2-1.1 2.3-1.9V41l-.5-1.6-.2-1.8v-.5h.2l1.3-1 .7-.8.5-1 .5-1.6.5-1.9.3-1.6.7-1.8.5-1.1.2-.7.3-1 .2-1.1.1-1v-.3l-.4-.9-.5-1.3v-.2c-.3-.4-.3-1.1 0-2l.7-1.9h.2v-.2c.2-1.4-.2-3.3-1.3-5.7H38m-10.6 6.1l1.1-.2-.3.8-.4 1-.9-.5-.7-.4v.2l.1.1.3.1c-.5 0-.7.2-.7.7v.1-.4l.1-.4.2-.4c.4-.3.7-.6 1.2-.7m-.1 1.5l.4.2.2.3v.2l-.2.1h-.1v.1h-.7c.4 0 .5-.2.5-.5l-.1-.2v-.2M26 18.8v-.2l.8.2.8-.2v1.1c-.8-.1-1.3-.4-1.6-.9m.6-.3H26V18c0 .3.2.5.6.5m-.3 9.4l.2.9-.2.8-.3.7-1 .8-1.1.1-2-.4-.7-.2-.9-.6-.8-.7-.5-.4c.1-.2.5-.5 1.2-1 .6-.4 1.1-.6 1.4-.7h1.7l.8.1.7-.1h.6l.7.1.2.6M14.2 5.5l.2.5 1.1.7 1.4.7.5.6h-.2c-.2 0-.4.2-.7.4l-.8.8c-.1 0-.2.1-.2.2l-.3.2h.3l.2.1.4.2 1.1 1.1h-1.4c-.5 0-.8.1-.9.3-.3.2-.3.5 0 .9.2.4.2.8 0 1.1l-1-.2-.6-.2c-.3 0-.6.1-.7.4-.3.2-.5.4-.7.8l-.4.9-.2-.2-.8-.9-.8-.6c-.2-.2-.5-.1-.9.2l-.5.4-.3.6V14l-.4-1.4-.4-1.1-.2-.2h-.2c-.2 0-.4.2-.4.7l-.2-1.1.1-.9v-.4l-.4.2h-1l-1.2-.2-.4-.4.7-.3 1.2-.3 1.7-.5-.2-.2-.6-.8-1-1c-.1 0-.3-.1-.4-.2l-.1-.4 1.1.6c.5.2.9.2 1.3 0h.2l.3-.2.1-.4v-.8l.2-.8c0-.2.1-.4.2-.7l.1.3.4.3c.3 0 .4.1.4.4l.2.1.3.1.3-.1.5-.8.7-1.3-.1.7v.8l-.1.8.2-.1 1.1-.3 1.7-.5h.2V4l.1.5.1.6.1.4m4.4 9.3c.9 0 1.7.2 2.3.7.6.5 1 1 1 1.6 0 .6-.3 1.1-1 1.6s-1.5.7-2.3.7c-1 0-1.8-.2-2.5-.7-.7-.4-1-1-1-1.6 0-.6.3-1.1 1-1.6.6-.5 1.5-.7 2.5-.7m-.4 3l1.4-.2h.2v-.2l-1-.8-1.1-.2-1.3.2h-.2v.3c.7.7 1.4 1 2 .9m-.6-.2l-.5-.4-.4-.4.4-.2.5-.2-.1.2-.1.4c0 .3.1.5.2.6m1.9-.2l-1.1.2c.3 0 .4-.2.4-.6v-.4l.4.4.3.4m6.3 11.5l.2-.1c-.3-.5-.8-.8-1.3-.8H23c-.6.2-1.1.4-1.5.5l-.7.3.2.2.2-.2 4.7-.1v.2M44 8.8l-1.1 1.5 3.5 3.1 1.3-1.4L44 8.8m-3.3 2.4l1.6 2.6 1.5-1-1.3-2.5c-.6.4-1.2.7-1.8.9M40.6 4l1.7 1 1.3-2.7-1.5-.8L40.6 4m5.6-2.2L42.6 5l1.1 1.4 3.7-3.2-1.2-1.4M50 8.5V6.6h-5.9v1.9H50z"/></symbol><symbol viewBox="0 0 38 33" id="i-help"><path d="M26 13.13c-.03-.3-.12-.58-.27-.84-.15-.26-.37-.48-.63-.67-.26-.19-.57-.34-.92-.46-.35-.11-.72-.17-1.1-.17h-6.84c-1.09 0-1.9.21-2.43.63-.54.42-.8.96-.8 1.62 0 .64.12 1.13.35 1.47.23.34.51.6.83.75.32.16.65.25.99.28.34.02.6.04.79.04h.27V13.5h6.55v2.23h-1.94c-.41 0-.8.04-1.16.13-.36.09-.68.23-.95.42-.27.19-.48.44-.64.73-.16.3-.23.66-.23 1.09v.96h3.26v-.77h1.9c1.05 0 1.81-.18 2.28-.53.45-.33.69-.86.69-1.56v-3.07zM21.12 23v-2.54h-3.26V23h3.26z"/><path fill="currentColor" d="M32 4c1.1 0 2 .9 2 2v21c0 1.1-.9 2-2 2H6c-1.1 0-2-.9-2-2V6c0-1.1.9-2 2-2h26m0-2H6C3.8 2 2 3.8 2 6v21c0 2.2 1.8 4 4 4h26c2.2 0 4-1.8 4-4V6c0-2.2-1.8-4-4-4z"/></symbol><symbol viewBox="0 0 42.3 50" id="i-hostage"><path d="M30.9 8.4l1.5 2.1 2 6.2 7.8 5.3.2.8-.4 1.1c-.3.5-.8.7-1.3.7L32.1 21l-2.4-3.3-3 7.9 4.5 10.1-6.5 13.7-2.1.6c-.6 0-1.1-.3-1.5-.9l-.3-.7.1-.5.2-.5 5.1-11.1-4.9-8.4-6.1 9.8-13.6-.4-1.4-.9-.2-1c0-1 .4-1.5 1.2-1.6l11.3-.3 4.3-10.7L23 11.5l-4.3-.3-4.4 6.2-.9.3c-.8 0-1.3-.4-1.5-1.1-.2-.6-.2-1 0-1.2h-.1l5-8.8 7.4-.6 3.7 1 3 1.4M29 5.8c-.7-.8-.9-1.7-.7-2.7.1-1 .5-1.8 1.3-2.4s1.7-.8 2.7-.7c1 .1 1.8.6 2.4 1.4.7.8.9 1.7.8 2.7-.1 1-.6 1.8-1.4 2.4-.8.7-1.7.9-2.7.7-1-.1-1.8-.6-2.4-1.4"/></symbol><symbol viewBox="0 0 16 16" id="i-kdr"><path d="M9 2.09c2.51.42 4.49 2.4 4.91 4.91h2.02C15.48 3.38 12.62.52 9 .07v2.02zM13.91 9c-.48 2.83-2.94 5-5.91 5-3.31 0-6-2.69-6-6 0-2.97 2.17-5.43 5-5.91V.07C3.05.56 0 3.92 0 8c0 4.42 3.58 8 8 8 4.08 0 7.44-3.05 7.93-7h-2.02z"/></symbol><symbol viewBox="0 0 50 50" id="i-kills-alt"><path d="M42.5 5L45 7.5 30.5 22 28 19.5 42.5 5zm-23 23l2.5 2.5L7.5 45 5 42.5 19.5 28zm2.5-8.5L19.5 22 5 7.5 7.5 5 22 19.5zm23 23L42.5 45 28 30.5l2.5-2.5L45 42.5z"/></symbol><symbol viewBox="0 0 16 16" id="i-kills"><path d="M7 5.5L5.5 7 2 3.5 3.5 2 7 5.5zm7 7L12.5 14 9 10.5 10.5 9l3.5 3.5zM12.5 2L14 3.5 10.5 7 9 5.5 12.5 2zm-7 7L7 10.5 3.5 14 2 12.5 5.5 9z"/></symbol><symbol viewBox="0 0 16 16" id="i-left"><path shape-rendering="crispEdges" d="M9.5 12L5 7.5 9.5 3 11 4.5l-3 3 3 3z"/></symbol><symbol viewBox="0 0 32 32" id="i-loading-spin"><path opacity=".25" d="M16 0a16 16 0 0 0 0 32 16 16 0 0 0 0-32m0 4a12 12 0 0 1 0 24 12 12 0 0 1 0-24"/><path d="M16 0a16 16 0 0 1 16 16h-4A12 12 0 0 0 16 4z"><animateTransform attributeName="transform" type="rotate" from="0 16 16" to="360 16 16" dur="0.8s" repeatCount="indefinite"/></path></symbol><symbol viewBox="0 0 32 32" id="i-loading-spokes"><path opacity=".1" d="M14 0h4v8h-4z"><animate attributeName="opacity" from="1" to=".1" dur="1s" repeatCount="indefinite" begin="0"/></path><path opacity=".1" d="M25.898 3.274l2.828 2.828-5.656 5.656-2.828-2.828z"><animate attributeName="opacity" from="1" to=".1" dur="1s" repeatCount="indefinite" begin="0.125s"/></path><path opacity=".1" d="M32 14v4h-8v-4z"><animate attributeName="opacity" from="1" to=".1" dur="1s" repeatCount="indefinite" begin="0.25s"/></path><path opacity=".1" d="M28.726 25.898l-2.828 2.828-5.656-5.656 2.828-2.828z"><animate attributeName="opacity" from="1" to=".1" dur="1s" repeatCount="indefinite" begin="0.375s"/></path><path opacity=".1" d="M18 32h-4v-8h4z"><animate attributeName="opacity" from="1" to=".1" dur="1s" repeatCount="indefinite" begin="0.5s"/></path><path opacity=".1" d="M6.102 28.726l-2.828-2.828 5.656-5.656 2.828 2.828z"><animate attributeName="opacity" from="1" to=".1" dur="1s" repeatCount="indefinite" begin="0.675s"/></path><path opacity=".1" d="M0 18v-4h8v4z"><animate attributeName="opacity" from="1" to=".1" dur="1s" repeatCount="indefinite" begin="0.75s"/></path><path opacity=".1" d="M3.274 6.102l2.828-2.828 5.656 5.656-2.828 2.828z"><animate attributeName="opacity" from="1" to=".1" dur="1s" repeatCount="indefinite" begin="0.875s"/></path></symbol><symbol viewBox="0 0 16 16" id="i-locked"><path d="M13 7H3c-.55 0-1 .45-1 1v7c0 .55.45 1 1 1h10c.55 0 1-.45 1-1V8c0-.55-.45-1-1-1z"/><path d="M6 4c0-.55.45-1 1-1h2c.552 0 1 .45 1 1v4h2V4c0-1.654-1.346-3-3-3H7C5.346 1 4 2.346 4 4v4h2V4z"/></symbol><symbol viewBox="0 0 130 95" id="i-logo"><path fill="currentColor" d="M70.1 73.1H59.8v-3.3h10.3v3.3zM130 56.4v37.2c0 .8-.6 1.4-1.4 1.4H1.4C.6 95 0 94.4 0 93.6V56.4c0-.8.6-1.4 1.4-1.4h127.2c.8 0 1.4.6 1.4 1.4zM11.7 73.1v-3.3h15.5c0-1.3-.4-2.3-1.3-2.9-.9-.6-2.1-.9-3.6-.9H11.2c-.6 0-1.2.1-1.8.2-.6.2-1.1.4-1.5.7-.4.3-.8.8-1 1.3-.3.5-.4 1.1-.4 1.9v3c0 .6.1 1.2.4 1.7.3.5.6.9 1 1.2.4.3.9.6 1.5.7.6.2 1.1.2 1.8.2h10.9v3.4H6.5c0 .6.1 1.2.4 1.6.3.4.6.8 1.1 1.1.5.3 1 .6 1.6.7.6.2 1.2.2 1.8.2h10.9c1.5 0 2.7-.3 3.6-.9.9-.6 1.4-1.6 1.4-2.9v-3.6c0-.6-.1-1.1-.4-1.6-.3-.5-.7-.8-1.1-1.1-.4-.3-1-.5-1.6-.6-.6-.1-1.2-.2-1.8-.2H11.7zM51.3 66H34.1c-1.1 0-2 .2-2.6.7-.6.5-.9 1.3-.9 2.6v.5h7.9V84H40c1.4 0 2.4-.3 2.9-.9.5-.6.8-1.5.8-2.9V69.8h3.6c.3 0 .8 0 1.2-.1.5 0 .9-.1 1.4-.3.4-.2.8-.5 1.1-.9.3-.4.5-1 .5-1.8V66zm24 0h-16c-.6 0-1.2.1-1.8.2-.6.2-1.1.4-1.5.7-.4.3-.8.7-1 1.2-.2.5-.4 1.1-.4 1.8v14h.4c.7 0 1.3-.1 1.9-.3.6-.2 1.1-.4 1.5-.7.5-.3.8-.7 1-1.2.2-.5.3-1.2.3-2v-2.8H70V84h5.2V66zm24.2 0H82.3c-1.1 0-2 .2-2.6.7-.6.5-.9 1.3-.9 2.6v.5h7.9V84H88c1.4 0 2.4-.3 2.9-.9.5-.6.8-1.5.8-2.9V69.8h3.6c.3 0 .8 0 1.2-.1.5 0 .9-.1 1.4-.3.4-.2.8-.5 1.1-.9.3-.4.5-1 .5-1.8V66zm8.6 7.1v-3.3h15.5c0-1.3-.4-2.3-1.3-2.9-.9-.6-2.1-.9-3.5-.9h-11.1c-.6 0-1.2.1-1.8.2-.6.2-1.1.4-1.5.7-.4.3-.8.8-1 1.3-.3.5-.4 1.1-.4 1.9v3c0 .6.1 1.2.4 1.7.3.5.6.9 1 1.2.4.3.9.6 1.5.7.6.2 1.1.2 1.8.2h10.9v3.4H103c0 .6.1 1.2.4 1.6.3.5.6.8 1.1 1.2.5.3 1 .6 1.6.7.6.2 1.2.2 1.8.2h10.9c1.5 0 2.7-.3 3.6-.9.9-.6 1.4-1.6 1.4-2.9v-3.6c0-.6-.1-1.1-.4-1.6-.3-.5-.7-.8-1.1-1.1-.4-.3-1-.5-1.6-.6-.6-.1-1.2-.2-1.8-.2h-10.8z"/><path d="M112.9 46c-2.4 0-4.7-1.8-4.7-4.6V30.6c0-2.4 1.8-4.6 5-4.6H125c3.4 0 5 2.5 5 4.3v11.2c0 2.9-2.3 4.5-4.8 4.5h-12.3zm-.3-3.7h13.1V29.8h-13.1v12.5zM86.2 29.9v12.2h13.9v-4.4h-6.6c-2.1 0-3.8-1.9-3.8-3.3h14.7v7.5c0 2.1-2.3 4.1-4.4 4.1H85.8c-1.5 0-3.9-1.9-3.9-4.4V30.2c0-1.8 1.7-4.2 5.1-4.2h12.8c2.6 0 4.7 2.1 4.7 3.9H86.2zM47.5 30.3c0-1.7-1.7-4.3-4.5-4.3H30c-2.6 0-4.5 2.9-4.5 4.6v2.7c0 2.8 2.6 4.7 4.5 4.7h13v3.6H25.5c0 1.6 1.8 4.3 4.5 4.3h13.1c2.9 0 4.8-2.3 4.8-5.3v-2.4c0-1.3-.6-2.4-1.4-3.3-.8-.8-2-1.4-3.3-1.4H30.4v-3.4c0 .2 11.3.2 17.1.2zM21.8 30.5c0-1.6-1.7-4.5-4.6-4.5H4.8c-1.7 0-3.1.7-4 2.2-.5.8-.8 1.7-.8 2.7v10.5c0 1.3.6 2.4 1.5 3.3.8.8 2 1.3 3.4 1.3h11.9c3.5 0 5-2.8 5-4.5H5.4v-11h16.4z"/><path d="M94.1 8.4h-1.5l-.1-.2h-.2l-.5.2h-3.1v-.2l.2-.3-.1-.3h-.2l-.1.2h-.4v-.3H88V5.7h-.4v2.2h-.4v-.6H75.3s-.1-.3-.1-.4c-.2-.1-.4.1-.6-.2V6c-.1-.1-.3-.1-.4 0v.9c-1 .4-1.8.9-2.8.7V6c.5-.1 1-.2 1.3-.6.3-1.4-.2-2.6-.5-3.9-.4-.2-1-.5-1.4-.8-1.9-1.3-3.6-.9-5.1.4-.9.8-1.3 2-1.4 3.3-.1.7.3 1.4.4 1.9-.1.2-.2.4-.4.7-.1-.5-.5-.3-.7-.6H63c-1.3-.1-2.3.6-3 1.5-1 1.3-1.5 2.9-1.6 4.6 0 .3 0 .6-.1.9 0 .1-.1.3 0 .3.5.6.1 1.2.2 1.7-.4.2-.8-.1-1.1.3-.2-.3-.5-.2-.6 0-.2.1-.5.3-.7.4.4 1.8-.3 3.5-.4 5.3.4-.1.5.3.8.3.3 0 .6-.1.9.2-.3.4-.8.5-1 1v1.8c0 .6.3 1.2.3 1.8-.1.6-.1 1.2.3 1.8-.3.2-.8 0-1 .6 0 .2.1.6-.2.8l.5.5c-.7.4.2 1.1-.3 1.6.2.2.4.4.5.6-.5 2.3-.9 4.5-.7 6.8-.4.4-.7.8-.7 1.5-.6.3-.8 1.1-1.2 1.6-.4.6-.7 1.3-.7 2.1 0 .6-.2 1.1-.6 1.7-.3.4-.6.8-.6 1.3 0 .6-.3 1.3.2 1.9.1.1.1.4 0 .6-.3.7-.3 1.4-.5 2-.4 1.3-.8 2.6-.6 4v.2c.1.1.2.3.3.3.9.2 2.9.1 3.6 0 .2 0 .2-.2.3-.3.1-.6 0-1.2-.4-1.6-.3-1.8.2-3.4 1-4.9h.5c.6-1.4 1.1-2.8 1.8-4.2.3-.6.7-1.3.1-2 .2-.5.6-.9.5-1.6 1.1-.1 1.1-1.1 1.5-1.8.4-.1.6-.4.9-.7-.2-.8.2-1.6.5-2.4.5-1.2.7-2.5 1.8-3.2.1-.3-.1-.6.1-.9.3.2.3.5.5.7.2.2.1.5.4.7 1 .1 1.2.2 1.9 1.2.2.2.3.5.5.7.6.9 1.1 1.7 1.7 2.7.4.4 1.1.2 1.6.3.3.2.4.6.5.7-.2.6 0 1.2-.1 1.8l-.4.4c-.3 1.4.2 2.8.2 4.1 0 .2.1.3.2.4.4 1.6.9 3.1.8 4.7 0 .2 0 .4-.1.7-.5 1-.6 2.1-.5 3.3.3.1.7.2 1 .2.3 0 .9-.2 1.2-.2.5 0 1.1.3 1.9.4 0 0 3.2.3 4.2 0 .1 0 .2-.1.2-.2v-.9c-.6-.8-1.4-.9-2.2-1.1-.5-.2-.6-.8-1-1.2-.4-.4-.9-.8-1-1.3v-2.5c0-.6 0-1.1.5-1.5-.1-.6.1-1.2-.2-1.8-.2-.3-.2-.8 0-1.2.4-.7 0-1.4.3-2 .3-.7.1-1.4.2-2.1.1-1-.2-2-.3-3-.7 0-.8-.6-.9-1-.3-1.1-.9-2.2-1.3-3.2-.7-1.8-1.9-3.3-3.2-4.7 0-.5.1-1-.3-1.3.2-.3.3-.5.4-.7.5-.2.8.4 1.2.1.5-.5.6-1.2 1-1.7v-.1-2.4c0-.4 0-.7.2-1.1.3-.6-.1-1.9-.8-2.2-.2-.1-.4-.2-.6-.4.5-.2 0-.8.4-1.1.3.2.7.3 1 .5.7.4 1.4.8 2.1 1.1.6.3 1.4.2 2 .5.2.1.4 0 .6-.1.7-.4 1.3-1 2-1.5.2-.1.3-.5.3-.7-.1-.7.4-1.2.3-1.7.2-.6.6-.3.9-.6.1-.8-.3-1.6-.4-2.5.3-.1.1-.4.2-.6.4-.4.8-.7 1.1-1.1.3-.5.7-.6 1.3-.6h4.4v-.5l.1-.1h.3v.1H89v-.1h3.1l.5.2h.2l.1-.2h1.5l-.2-.1v-.4l-.1-.2zm-17.9 2.2h.2l-.1.2h-.2l.1-.2zm.3 2.7c-.5-.4-.6-.8-.6-1.5h1.8c-.5.8-.6.9-1.2 1.5zm1.3-1.7h-1.5l.2-.2.3-.1c.1 0 .3-.2.3-.3v-.3s0-.1-.2-.2c.3 0 .8-.1 1.1.1.1.6-.1.9-.2 1zM132.7 26.2h-.7V26h1.6v.2h-.6V28h-.3v-1.8zM134 26h.4l.6 1.7.7-1.7h.4v2h-.3v-1.7l-.6 1.7h-.2l-.6-1.7V28h-.4v-2z"/></symbol><symbol viewBox="0 0 16 16" id="i-minimize"><path d="M4 11h8v2H4z"/></symbol><symbol viewBox="0 0 512 512" id="i-new-window"><path id="new-window-share-4-icon" d="M134.02 328.384c36.646-159.582 219.144-196.722 219.144-196.722V82.534L462 191.19 353.164 299.85v-49.128S212.04 244.85 134.02 328.384zm220.03 20.042v40.028H91.01v-170.37h57.562c11.502-14.815 24.562-28.488 38.98-41.012H50v252.394h345.06V307.482l-41.01 40.944z"/></symbol><symbol viewBox="0 0 16 16" id="i-right"><path shape-rendering="crispEdges" d="M5 10.5l3-3-3-3L6.5 3 11 7.5 6.5 12z"/></symbol><symbol viewBox="0 0 16 16" id="i-settings"><path id="settings-path-1" d="M13 9h-1.1c-.1.4-.2.7-.4 1l.8.8c.4.4.4 1 0 1.4-.4.4-1 .4-1.4 0l-.9-.8c-.3.2-.7.3-1 .4V13c0 .6-.4 1-1 1s-1-.4-1-1v-1.1c-.4-.1-.7-.2-1-.4l-.8.8c-.4.4-1 .4-1.4 0-.4-.4-.4-1 0-1.4l.8-.9c-.2-.3-.4-.6-.5-1H3c-.6 0-1-.4-1-1s.4-1 1-1h1.1c.1-.4.2-.7.4-1l-.7-.8c-.4-.4-.4-1 0-1.4.4-.4 1-.4 1.4 0l.8.8c.3-.2.7-.3 1-.4V3c0-.6.4-1 1-1s1 .4 1 1v1.1c.4.1.7.2 1 .4l.8-.8c.4-.4 1-.4 1.4 0 .4.4.4 1 0 1.4l-.8.9c.2.3.3.7.4 1H13c.6 0 1 .4 1 1s-.4 1-1 1zM8 6c-1.1 0-2 .9-2 2s.9 2 2 2 2-.9 2-2-.9-2-2-2z"/></symbol><symbol viewBox="0 0 37.8 50" id="i-skull"><path fill-rule="evenodd" d="M18.9 46.8L17.8 50h-1.4l-1.2-3.1-1.1 3.1-1.4-.2-.6-2.9-.9 2.8-1.8-.6s-.7.3 0-2.9c1.6-4.6-6.4-5-6.4-5S1.2 37.3.4 34.6c-.3-.8-.3-3.1-.3-3.1s.9-1.4 1.6-4.3C2.3 22.5 0 24.2 0 16S8.2 0 18.9 0c10.8 0 18.9 7.7 18.9 16 0 8.2-2.3 6.4-1.7 11.1.7 2.9 1.6 4.3 1.6 4.3s0 2.3-.3 3.1c-.8 2.7-2.6 6.6-2.6 6.6s-8 .4-6.4 5.1c.7 3.2 0 2.9 0 2.9l-1.8.6-.9-2.8-.6 2.9-1.4.2-1.1-3.1-1.2 3.1H20l-1.1-3.2zM16.5 32v3.1l-5.2 1.5-3.7 1.6-2-.3-2.1-4.5V32l2.8-3.6 2.3-.4 4 2.2 3.9 1.8zm3.3 4.9l.8 2 1.4 2.2v1.3l-1.9.6-.6-1.3h-1.4l-.5 1.3-1.9-.6-.1-1.3 1.4-2.2.8-2 .9-.3 1.1.3zm5.3-6.7l4-2.2 2.4.2 2.8 3.6v1.4l-2.1 4.5-2 .3-3.7-1.6-5.2-1.5V32l3.8-1.8z"/></symbol><symbol viewBox="0 0 88 88" id="i-star"><path d="M88 33.612H55.938L44 0 32.06 33.612H0L26.158 53.35 16.806 88 44 67.226 71.19 88l-9.35-34.65L88 33.613zM44 57.417L28.936 69.925 35.15 52.11 20.895 40.613l17.605.5L44 20.914l5.496 20.198 17.606-.5-14.25 11.498 6.213 17.814L44 57.417z"/></symbol><symbol viewBox="0 0 100 60.1" id="i-steam"><path d="M88 12c1.5 1.5 2.3 3.4 2.3 5.5s-.8 3.9-2.3 5.4c-1.5 1.5-3.4 2.2-5.5 2.2s-3.9-.7-5.4-2.2c-1.5-1.5-2.2-3.3-2.2-5.4 0-2.1.7-3.9 2.2-5.5 1.5-1.5 3.3-2.3 5.4-2.3 2.1 0 3.9.8 5.5 2.3zm12 5.5c0 2.4-.5 4.7-1.4 6.8-.9 2.1-2.2 3.9-3.8 5.5-1.6 1.6-3.4 2.8-5.5 3.7-2.1.9-4.4 1.3-6.8 1.3h-.1L67.2 46.6c0 1.9-.4 3.6-1.1 5.2-.7 1.6-1.7 3-2.9 4.2-1.2 1.3-2.6 2.3-4.2 3-1.6.7-3.4 1.1-5.2 1.1-3.5 0-6.5-1.1-9-3.3-2.5-2.2-4-5-4.4-8.3L18.3 36.1c-1.1.4-2.3.7-3.5.9-1.2.2-2.5.2-3.8-.1-1.8-.3-3.4-1-4.9-1.9-1.5-.9-2.7-2.1-3.6-3.5-1-1.4-1.7-2.9-2.1-4.6-.4-1.7-.5-3.4-.2-5.2.2-1.7.8-3.4 1.8-4.8.9-1.5 2.1-2.7 3.5-3.7s2.9-1.7 4.6-2.1c1.7-.4 3.5-.5 5.3-.2 3.1.6 5.6 2 7.6 4.2s3.1 4.8 3.3 7.7L46.8 35c2.2-1.3 4.5-1.9 6.9-1.9h.1l11.3-15.9c.1-2.3.6-4.6 1.5-6.7.9-2.1 2.2-3.9 3.7-5.5 1.5-1.5 3.4-2.8 5.5-3.6C77.9.4 80.2 0 82.5 0c2.4 0 4.7.5 6.8 1.4 2.1.9 3.9 2.2 5.5 3.8 1.6 1.6 2.8 3.4 3.8 5.5.9 2.1 1.4 4.4 1.4 6.8zM22.7 22c-.5-2.3-1.6-4.3-3.5-5.8-1.8-1.5-3.9-2.2-6.2-2.2-2.8 0-5.1 1-7 2.9-2 1.8-3 4.1-3 6.9 0 2.8 1 5.1 2.9 7 1.9 1.9 4.3 2.9 7 2.9 1.2 0 2.4-.2 3.5-.7l-6.1-3.3c-1.1-.5-2.1-1.3-2.8-2.3-.7-1.1-1.1-2.3-1.1-3.6 0-1.8.6-3.3 1.9-4.5 1.3-1.2 2.8-1.8 4.6-1.8 1.3 0 2.5.4 3.6 1.1l6.2 3.4zm40.9 24.5c0-2.8-1-5.1-2.9-7-1.9-1.9-4.2-2.9-7-2.9-1.3 0-2.5.2-3.5.7l5.9 3.3c1.1.5 2.1 1.3 2.8 2.3.7 1.1 1.1 2.3 1.1 3.6 0 1.8-.6 3.3-1.8 4.5-1.2 1.2-2.7 1.8-4.5 1.8-1.5 0-2.7-.4-3.6-1.1L44 48.3c.4 2.3 1.5 4.3 3.3 5.8 1.8 1.5 3.9 2.2 6.4 2.2 2.8 0 5.1-1 7-2.9 1.9-1.8 2.9-4.1 2.9-6.9zm30.8-29c0-3.3-1.2-6.1-3.5-8.4-2.3-2.3-5.1-3.5-8.4-3.5-1.6 0-3.1.3-4.6.9-1.4.6-2.6 1.5-3.7 2.5-1.1 1.1-1.9 2.4-2.5 3.8-.6 1.5-.9 3-.9 4.6 0 1.6.3 3.2.9 4.6.6 1.5 1.5 2.7 2.5 3.8 1.1 1.1 2.3 1.9 3.8 2.5 1.4.6 2.9.9 4.6.9 3.3 0 6.1-1.1 8.4-3.4 2.3-2.2 3.4-5 3.4-8.3z"/></symbol><symbol viewBox="0 0 16 16" id="i-target-small"><path d="M8 3c2.8 0 5 2.2 5 5s-2.2 5-5 5-5-2.2-5-5 2.2-5 5-5m0-1C4.7 2 2 4.7 2 8s2.7 6 6 6 6-2.7 6-6-2.7-6-6-6zm0 3c1.7 0 3 1.3 3 3s-1.3 3-3 3-3-1.3-3-3 1.3-3 3-3m0-1C5.8 4 4 5.8 4 8s1.8 4 4 4 4-1.8 4-4-1.8-4-4-4zm0 3c.6 0 1 .4 1 1s-.4 1-1 1-1-.4-1-1 .4-1 1-1m0-1c-1.1 0-2 .9-2 2s.9 2 2 2 2-.9 2-2-.9-2-2-2z"/></symbol><symbol viewBox="0 0 50 50" id="i-target"><path d="M38.1 17.2l-2.2 2.2c1 1.9 1.6 4 1.6 6.3 0 7.2-5.9 13.1-13.1 13.1s-13.1-5.9-13.1-13.1 5.9-13.1 13.1-13.1c2.3 0 4.4.6 6.3 1.6l2.2-2.2c-2.4-1.5-5.3-2.4-8.4-2.4-8.8 0-16 7.2-16 16s7.2 16 16 16 16-7.2 16-16c0-3.1-.9-6-2.4-8.4zm-6 6l-2.6 2.6c-.1 2.7-2.3 4.9-5 4.9-2.8 0-5.1-2.3-5.1-5.1 0-2.7 2.2-5 4.9-5l2.6-2.6c-.8-.2-1.6-.4-2.4-.4-4.4 0-8 3.6-8 8s3.6 8 8 8 8-3.6 8-8c-.1-.9-.2-1.7-.4-2.4zM45.4 13l-2.2 2.2c1.7 3.1 2.7 6.6 2.7 10.4 0 11.8-9.6 21.5-21.5 21.5S3 37.4 3 25.6 12.6 4.1 24.4 4.1c3.8 0 7.3 1 10.4 2.7L37 4.6c-3.7-2.2-8-3.5-12.6-3.5C11 1.2 0 12.1 0 25.6S11 50 24.4 50s24.4-11 24.4-24.4c0-4.6-1.2-8.9-3.4-12.6zm-3.2.1l-2.8-.3-14 13.9c-.6.6-1.5.6-2.1 0-.6-.6-.6-1.5 0-2.1l13.9-13.9-.3-2.8L44.8 0l1 4.2 4.2 1-7.8 7.9z"/></symbol><symbol viewBox="0 0 42.2 50" id="i-timer-alt"><path d="M21.1 13.8C12.8 13.8 6 20.6 6 28.9S12.8 44 21.1 44s15.1-6.8 15.1-15.1-6.8-15.1-15.1-15.1zm2.7 16.6c-.5.9-1.5 1.5-2.6 1.5-1.7 0-3-1.4-3-3 0-1.1.5-2 1.3-2.5l9.9-5.7-5.6 9.7zm13.7-14.9l1.9-1.9c.3-.3.3-.9 0-1.2l-1.8-1.8c-.3-.3-.9-.3-1.2 0l-1.9 1.9c-3.1-2.5-7-4.2-11.2-4.6V4.3h2.6c1 0 1.7-.8 1.7-1.7v-.9c0-1-.8-1.7-1.7-1.7h-9.5c-1 0-1.7.8-1.7 1.7v.9c0 1 .8 1.7 1.7 1.7H19v3.6c-4.2.4-8.1 2.1-11.2 4.6l-1.9-1.9c-.3-.3-.9-.3-1.2 0l-1.8 1.8c-.3.3-.3.9 0 1.2l1.9 1.9C1.8 19.2 0 23.8 0 28.9 0 40.5 9.5 50 21.1 50s21.1-9.5 21.1-21.1c0-5.1-1.7-9.7-4.7-13.4zM21.1 45.7c-9.3 0-16.8-7.5-16.8-16.8s7.5-16.8 16.8-16.8 16.8 7.5 16.8 16.8-7.5 16.8-16.8 16.8z"/></symbol><symbol viewBox="0 0 43 50" id="i-timer"><path d="M25.138 6.14v.88C35.274 8.762 42.99 17.648 42.99 28.356c0 11.957-9.62 21.65-21.49 21.65-11.868 0-21.49-9.693-21.49-21.65 0-5.34 1.922-10.225 5.102-14 2.06-2.444 4.646-4.42 7.585-5.75 1.625-.738 3.356-1.276 5.166-1.587v-.882-.88V2.96H16c-.617 0-1.117-.665-1.117-1.485 0-.82.5-1.484 1.117-1.484h11c.618 0 1.118.664 1.118 1.484s-.5 1.485-1.118 1.485h-1.862V6.14zm-3.636 4.237c-3.098 0-6.01.802-8.552 2.206-1.518.838-2.9 1.89-4.11 3.12-3.202 3.25-5.184 7.722-5.183 12.653 0 9.913 8.005 17.978 17.845 17.978 9.84 0 17.844-8.065 17.844-17.978 0-9.914-8.005-17.98-17.844-17.98zm10.787 28.85c-.69.694-1.446 1.324-2.258 1.876-.407.276-.825.533-1.258.77-.54.296-1.1.56-1.68.79-1.443.573-2.994.93-4.614 1.035-.325.02-.65.03-.98.03-2.633 0-5.11-.672-7.273-1.855-.432-.236-.852-.493-1.258-.77-.812-.55-1.57-1.18-2.26-1.876-2.76-2.783-4.468-6.625-4.47-10.873 0-4.246 1.71-8.09 4.47-10.87.69-.696 1.447-1.325 2.26-1.878.405-.276.824-.533 1.257-.77 2.162-1.183 4.64-1.855 7.273-1.855.33 0 .655.01.98.033 1.62.103 3.172.46 4.615 1.035.578.23 1.138.493 1.68.79.43.236.85.493 1.257.77.81.552 1.567 1.18 2.257 1.876 2.76 2.782 4.47 6.626 4.47 10.87 0 4.247-1.71 8.09-4.47 10.872zM21.5 16.12c-7.963 0-13.526 7.984-11.492 15.968L21.5 27.64V16.122zM3.647 10.878c0-2.674 2.152-4.843 4.807-4.843 1.2 0 2.294.445 3.136 1.177-2.872 1.37-5.42 3.32-7.497 5.695-.284-.617-.447-1.303-.447-2.03z" id="timer-path-1" class="cls-2" fill-rule="evenodd"/></symbol><symbol viewBox="0 0 16 16" id="i-trophy"><path id="trophy-trophy-7-icon" d="M8.94 11.4c.45-2.19 3.68-3.86 3.68-10.4H3.39c0 6.54 3.23 8.21 3.68 10.4h1.87zM5.16 3.93l1.97-.27.87-1.8.87 1.79 1.97.27L9.4 5.3l.35 1.96L8 6.32l-1.75.94.35-1.96-1.44-1.37zM3.51 6.74c.2.48.41.91.63 1.31C1.69 7.02.23 4.57 0 1.99h2.51c.01.29.04.58.06.86H1.02c.26 1.22.9 2.84 2.49 3.89zm7.34 7.59v.92H5.16v-.92c1.47 0 1.86-1.23 1.92-2.06h1.83c.08.82.42 2.06 1.94 2.06zM16 1.99c-.23 2.58-1.69 5.03-4.13 6.06.22-.4.43-.83.63-1.32 1.58-1.05 2.22-2.66 2.48-3.88h-1.54c.03-.28.05-.57.06-.86H16z"/></symbol><symbol viewBox="0 0 16 16" id="i-unlocked"><path d="M13 7H3c-.55 0-1 .45-1 1v7c0 .55.45 1 1 1h10c.55 0 1-.45 1-1V8c0-.55-.45-1-1-1zM6 3c0-.55.45-1 1-1h2c.552 0 1 .45 1 1v5h2V3c0-1.654-1.346-3-3-3H7C5.346 0 4 1.346 4 3v2h2V3z"/></symbol><symbol viewBox="0 0 16 16" id="i-up"><path shape-rendering="crispEdges" d="M3 9.5L7.5 5 12 9.5 10.5 11l-3-3-3 3z"/></symbol><symbol viewBox="0 0 16 16" id="i-up2"><path shape-rendering="crispEdges" d="M3 11.5L7.5 7l4.5 4.5-1.5 1.5-3-3-3 3L3 11.5zM4.5 8l3-3 3 3L12 6.5 7.5 2 3 6.5 4.5 8z"/></symbol><symbol viewBox="0 0 38 33" id="i-video"><path d="M25 16.5L15 11v11l10-5.5"/><path fill="currentColor" d="M32 4c1.1 0 2 .9 2 2v21c0 1.1-.9 2-2 2H6c-1.1 0-2-.9-2-2V6c0-1.1.9-2 2-2h26m0-2H6C3.8 2 2 3.8 2 6v21c0 2.2 1.8 4 4 4h26c2.2 0 4-1.8 4-4V6c0-2.2-1.8-4-4-4z"/></symbol><symbol viewBox="0 0 59 13" id="i-viewstats"><path fill="#0899CC" d="M46 13H1.5C.68 13 0 12.32 0 11.5v-10C0 .68.68 0 1.5 0H46v13z"/><path fill="#FFF" d="M46 13h11.5c.83 0 1.5-.68 1.5-1.5v-10c0-.82-.67-1.5-1.5-1.5H46v13z"/><path fill="#003345" d="M35 4h6v1h-5v1h5v3h-6V8h5V7h-5zM12.75 4h5.5v1H16v4h-1V5h-2.25zM20 4v5h1V7h4v2h1V4h-6zm5 2h-4V5h4v1zM27.75 4h5.5v1H31v4h-1V5h-2.25zM5 4h6v1H6v1h5v3H5V8h5V7H5zM55 8V4h-4v1h2.25l-3 3 .75.75 3-3V8z"/></symbol><symbol viewBox="0 0 512 512" id="i-warning"><path id="warning-warning-4-icon" d="M228.55 134.812h54.9v166.5h-54.9v-166.5zM256 385.188c-16.362 0-29.626-13.264-29.626-29.625 0-16.362 13.264-29.627 29.626-29.627 16.36 0 29.625 13.265 29.625 29.627 0 16.36-13.264 29.625-29.625 29.625zM256 90c91.742 0 166 74.245 166 166 0 91.74-74.245 166-166 166-91.742 0-166-74.245-166-166 0-91.74 74.245-166 166-166zm0-40C142.23 50 50 142.23 50 256s92.23 206 206 206 206-92.23 206-206S369.77 50 256 50z"/></symbol><symbol viewBox="0 0 16 16" id="i-weapon"><path d="M15.36.12l.12.35.26.42.06.34.05.28.06.34.08.61.01.33-.04.12-.02.05L9.6 5.92l-.18.12-.27.49c-.07.2-.13.47-.1.8-.02.31.07.71.29 1.17l.06.14-.03.01-.24.19-.57.37-.76.4-.77.2-.16.3c-.06.17-.05.33.01.46l.16.57.22.91.25.89.08.47.51.53-.03.02-1.27.74-1.24.68-1.36.54-.08.04-.23-.06c-.09-.06-.2-.21-.31-.46l-.24-.6c-.07-.23-.1-.52-.15-.88l-.12-1.21-.08-1.68-.04-.07-.05-.12-.05-.18c-.09-.2-.21-.37-.4-.52-.18-.16-.39-.18-.72-.11l-.26.13-.51.2-.51.2-.25.12H.16l-.02-.03c-.02-.05-.04-.08-.02-.13-.03-.11.05-.24.16-.44.11-.21.35-.42.72-.71l.04-.22-.09-.4-.1-.12-.16-.13-.17-.06-.4-.32L0 7.91l.24-.21h.08l.11.01.47-.21v-.14l.02-.13.24-.56.06-.07.06-.09-.1-.22-.04-.18.53-.25.53.2.61-.29.16-.22 2.47-1.19.1.09.15.03 3.27-1.47.05.02.07.01.17-.08-.01-.02.02-.05.03-.07 3.66-1.67.04.08.07.07.02.03.2-.09-.03-.11.03-.07.71-.33.09-.14.14-.23c.04-.1.11-.15.19-.19l.11-.11.17.06.11.15.56-.15zm-7.6 6.86l-1.08.5c-.08.04-.15.11-.21.2-.03.07-.02.17.02.26l.26 1.04.18.18.29-.03 1.3-.53c.08-.04.15-.11.21-.2l.02-.27-.49-1.02c-.04-.09-.11-.15-.21-.16-.09.02-.21-.01-.29.03"/></symbol><symbol viewBox="0 0 38 33" id="i-website"><path fill-rule="evenodd" fill="currentColor" d="M9.62 30h19.76c.34 0 .62.45.62 1s-.28 1-.62 1H9.62c-.34 0-.62-.45-.62-1s.28-1 .62-1z"/><path fill-rule="evenodd" fill="currentColor" d="M16 22h7v10h-7V22z"/><path fill="currentColor" d="M32 3c1.1 0 2 .9 2 2v15c0 1.1-.9 2-2 2H6c-1.1 0-2-.9-2-2V5c0-1.1.9-2 2-2h26m0-2H6C3.79 1 2 2.79 2 5v15c0 2.21 1.79 4 4 4h26c2.21 0 4-1.79 4-4V5c0-2.21-1.79-4-4-4z"/><path d="M20.97 14.06V5.97h-3.53v8.09h3.53zM20.64 20c-.43 0-.83-.05-1.2-.15-.37-.1-.7-.25-.99-.45-.29-.2-.52-.42-.69-.69-.17-.26-.25-.56-.25-.9v-1.46H21V20h-.36z"/></symbol><symbol viewBox="0 0 38 34" id="i-win-cup"><path d="M10.2 34c0-1.3.5-2.4 1.2-3.8h7.2c-.7-1.2-1.8-.6-2.8-1 .2-1.4 1.1-2.8.8-4.3-.2-.8-1.2-.2-1.6-.9 0-.8-.1-1.6-.1-2.6-1.6-.6-3.2-1.3-4.5-2.4-.7.6-.1 1.5-.8 1.9-1.1-.3-2.2-.6-3.4-1-.4-1.5.6-1.8 1.9-2.1-2.7-1.5-5.3-3.1-6.6-5.9C.2 9.2-.2 6.3.1 3.3c2.9-.5 5.7 0 8.5-.3.5-1.1-.8-1.8-.5-3h22.1c.1 1.1-.9 1.7-.6 2.9 2.6.4 5.3 0 8.1.3.5 3.1.1 6-1.3 8.8-1.4 2.7-3.8 4.4-6.9 5.7l-1.9 1.5c-1.1.6-2.1 1.2-3.2 1.8-.5 1-.1 2-.3 3-.4.6-1.2.2-1.6.5-.3 2.7 0 3.6 2 5.8.9 0 1.8.1 2.8.1.8 1 1.2 2.3 1.6 3.7-6.2-.1-12.4-.1-18.7-.1zM8.9 15.4c.3-2.5.7-4.9 1-7.1-.7-.8-1.7-.3-2.2-1-.1-.6-.2-1.2-.3-2-1.7-.2-3.4-.2-5.1 0-.4 5 1.7 8.5 6.6 10.1zm20.3.1c4.8-1.9 6.8-5 6.6-10.1-.8-.3-1.7-.2-2.5-.2-.9 0-1.9-.2-2.8.3-.1.7-.1 1.3-.2 1.9-.5.6-1.3.2-1.8 1-.1 2.3.6 4.6.7 7.1zM12 15.1c-.2 1.7 1 2.5 2.4 2.7-.9-5.4 2.1-10.4 1.5-15.6-1-.3-1.9-.2-3.2-.1 0 4.4-.2 8.7-.7 13z"/></symbol><symbol viewBox="0 0 16 16" id="i-x"><path d="M13 4.5L11.5 3 8 6.5 4.5 3 3 4.5 6.5 8 3 11.5 4.5 13 8 9.5l3.5 3.5 1.5-1.5L9.5 8z"/></symbol><symbol viewBox="0 0 100 29.4" id="i-ak47"><path d="M97.8.2v4.6l1.6.2.3.7.3.5-.3.4-.7.2-.4-.1H98L97.3 8l-1.4-.5H84.5l-.6.8-.7-.5H75v.7H62.1l-1.5.8-1.1.6-.8.1-.9-.2c-.2 0-.3-.1-.3-.3l-.6-.3H51c0 1.4.3 2.9 1 4.5.6 1.4 1.4 2.8 2.6 4.4 1.3 1.6 3.1 3.3 5.4 4.9l-.8.9-1.4 2.2-2 3.1C54.1 28 52.5 26.6 51 25c-1.4-1.4-2.7-3.1-4.2-5.2-1.4-2-2.6-4.5-3.5-7.3H43l-.3.3-1.3-.3c-.7.3-1.4.6-2 .8l-2 .1c-.8-.1-1.5-.4-2.3-1l-.9.7-1.5 1.9c-.6.7-1.2 1.5-1.7 2.4-.5.9-.9 1.6-1.1 2.5l-.8.3-1.7.3c-.6 0-1.2-.1-1.8-.4-.5-.3-.9-1-1-2l.7-1.4 1.3-2.4 1.3-2.4.8-1-.8-.5c-.3-.3-.7-.5-1.1-.4l-.9.3-1.9.7-2.6.9-2.9 1-7.5 2.8L.9 19 0 7.1c.4-.3.9-.6 1.6-.8l1.9-.5 2.2.1 1.9-.1 4.2-.3 6.1-.5 1.2.4 1.8.4 1.1-.2 1.8-.4 2.4-.8 3.9-3.3.3.3H54l.3-.3c.1-.1.3-.2.4-.3l1-.1L74 1l1 .3.9.3.8.3h7.6l1.2 1.4 1 1.1.8.5H94l.5-.2.8-1.6.5-1.3c0-.4.1-.7.2-.8l.2-.7V0h1.6M39.6 9.7h-2.3c-.4 0-.9.1-1.2.4-.3.3-.4.7-.4 1.1 0 .3.2.7.4 1 .3.3.8.4 1.2.4h2.3c.4 0 .8-.2 1-.4l.3-1c0-.4-.1-.9-.3-1.1-.2-.3-.5-.4-1-.4"/></symbol><symbol viewBox="0 0 100 41.8" id="i-aug"><path d="M48.6 18l-.3.3c-.2.3-.4.6-.4 1l.1 1-.2.3h-1.6l-.3.6h-1.2l-.4.1-.3.3-2.4 4.5c-.3.6-.4 1.2-.1 1.6.2.4.5.6.8.7h3.4c1.2-.1 2.2-.4 2.8-.9.5-.4 2.1-2.9 4.9-7.5.2-.3-.1-1-.7-2h-4.1m47.1-8l.6.1.7-.3h2.5l.3.5.2 1.1-.2 1.1-.4.5h-2.2l-.5-.1-.5-.1-.6.1-.3.1h-1.4l-.2-.1h-2.2l-.2-.2h-1c-.1.2-.2.4-.5.4h-2l-.4-.1-.2-.1-14.4.4-.8.8h-.3l-.3-.3H71l-.2.3h-3l-.4 3.1c0 .3-.3.6-.6.7l.4.4.8.1c.5.1.8.3.8.6-.2 1.1-.3 1.9-.1 2.5v4.9c.1 1 .5 2.1 1.1 3.3.1.2-.1.5-.7.7l-1.9.4-2.2-.4-1.3-.4c0-1.5 0-2.8.3-4.1l.7-2.4c.3-.8.3-1.4.3-1.8l-.4-1.3-.4-.9c-.1-.3.1-.6.8-.9l.9-.4-3.8-.2-4.4.2c-1 .6-2.2 2-3.8 4.3l-3.2 4.8c-.7 1.1-1.4 1.8-2.1 2.1l-2.9.5-4.9.3h-3.5c-.3 0-.6-.1-.6-.3l-.1-1c.1-1.4.3-2.5.5-3.1l1-1.8c.5-.9.9-1.4 1-1.6l1-.9c.5-.6.8-1.3.8-2.2 0-1-.4-1.5-1.3-1.7l-2.8.1-3.1.2c-1 .1-1.6.2-1.7.5-.3.4-.7.7-1.4 1l-.1 1.8c.2 1.8.7 4.3 1.5 7.3 1.3 4.7 2.6 7.8 3.6 9.3.5.6.4 1-.1 1.3l-3.6 1.3-3.7 1.3c-.4.1-.6-.5-.5-1.8l-1.1-2.5c-.8-2.2-1.6-4.6-2.2-7.2-.6-2.6-1-5-1.3-7.4l-.3-2.8h-1.5L19 21.8c-.1.1-.3 0-.5-.3s-.4-.4-.5-.4c-.8.3-2 1-3.6 2-1.8 1.3-2.9 2.3-3 3l-.4 1.2.5.6.6.9c0 .4-.1.8-.4 1-.2.2-.6.3-1 .3H4.8c-.4 0-.7-.1-1.1-.4-.4-.4-.8-.9-1-1.6l-1.5-6.5C.4 18 0 15.8 0 15c0-.8 0-1.4.1-1.8l.6-.9L2.3 11c.8-.5 1.4-.8 1.9-.8l31.5-.6v-.4l.8-.6 1.2-.8 1.4-.3H41V5h-.8c0 .4-.2.5-.8.5l-.6-.3-.1-.3h-1.8l-.3.3H36c-.3-.4-.5-1.2-.5-2.2s.1-1.5.4-1.6h.5l.3.2h1.7l.1-.4c.1-.2.3-.3.7-.3.4 0 .6.2.6.6l.5-.1V.5l1-.1 1 .1v.6l4-.6 4.9-.5h1.5l.7.5h.7V.2h.5v.2h1v4.9h-1v.2h-.5v-.3h-2.5l.4.6h.6c.5.1.7.2.8.4l.2 1h1.6V7h.8v.2h1.7V7h.8v.2h1.7V7h.7v.2h1.8V7h.7v.2h1.8V7h.7v.2h1.4L70.8 9v1.1l.9.5h15.5l.3-.1.4-.3h1.9l.4.4h.9l.5-.3 2 .1v-.2c.1-.1.2-.2.4-.2H95.7"/></symbol><symbol viewBox="0 0 100 18.9" id="i-awp"><path d="M99.5 8H62.1v.6h2.7V11l.4.4c.2.1.4.4.4.8l-.1.3-.1.1v.1l-.2.4H50.8l-.2.4.2.1.3.2-.2.6h-1.4l-.2-.2-.4-1.1c-.2-.6-.3-1-.1-1.3 0-.3.1-.4.4-.4h.1c.6 0 1 .1 1.1.3.4 0 .7-.1 1.1-.3l-6.8-.1-.9.3-1.6.4-1.7.4c-.5.1-.8.2-.8.3v2.5l-8 .8v-2.5c-.4 0-.7.1-.8.2l-.6.5-1.1.6-1.6.1c-.6-.1-1.3-.3-2-.8l-.1.1h-.3l-.1 1.1-.2 1.4-.5 1.3-.5.7-1.7.2-2.5-.4-2.4-.4-1.3-.4-1-1.1-1.1-1-.7-.5H8.7l-.4 2.3c0 .2-.1.3-.2.3l-.4.3-1.2-.3H4.2l-.7.1-1.1.2-1.1.2-.8.2H.1l-.1-.1v-4.5l.2-3.1V8.3c0-.2.2-.4.7-.6l3.2-.2H5l.1-.1.1-.1.2-.1.2-.2H14c.2 0 .4.1.6.4l1 .9h9.5l.3-.9.2-.9v-.2h.1L27 6l1.1-.2.4-.1c0-.1.1-.1.2-.2h3v-.9h-1.1l-.9.1-1.7.2-2 .2-1.8-.1-.1-.2-.1-1.5v-.9c0-.2.1-.4.1-.4l.1-.1h.2l.8-.1 1.7-.1 2-.1 1.4.1h4.6l1-.1V1l-.1-.2V.2l2.8-.2.4 1-.1.1c-.1.1-.1.1-.3.1v.2h5.1l1.7-.3 2.3-.3 2.1-.2 1.2.2.1.1.1 4H51l-6.9-.4v.1l-1-.2h-1.7v.8h58.1v.1l.2.4.2.3.1.4c0 .2-.1.6-.4 1l-.1.6m-70.3 3.8h-2c-.6 0-.8.3-.8.8 0 .6.3.9.8.9h2c.6 0 .8-.3.8-.9 0-.5-.2-.8-.8-.8"/></symbol><symbol viewBox="0 0 100 30.8" id="i-bizon"><path d="M90.8.2h.3l.2-.1h1.1l.1-.1h1l.1.1h.1l.1.1.1.1.1.1V2h.1v.4l-.1.1v.1l-.1.1v1.2l.1.1.1.1v.5H94V7.3h5.4l.2.1h.1l.2.1.1.1V10.9h-.1v.4l-.1.1h-4.9l-.1.1H94.5h.1l.2.1h.1v.2l.1.1V12.7l-.1.1v.2h.1l.1.1V13.4h.1l.1.1v.6l-.1.1V19.3l-.1.1-.1.1h-.1l-.1.1h-3.1v-.1l-.1-.1v-.1l-.1-.1v-.1 1V19.8h-31l-.1.1V20.2l.1.1v.2l-.1.1v.1l-.1.1h-1.6v-.1l-.1-.1v-.1h-.4l-.1-.1-.1-.1h-.1V18.5l.1-.1v-.1l-.1-.1V18l-.1-.1v-.1l-.1-.1v-.2l-.1-.1v-.1l-.1-.1-.1-.1h-.1l-.1.1h-.1V19.3H57v.1h-.1V20.3l-.1.1-.1.1v.5h-.1V21.3l-.1.1-.1.1-.1.1H55.2v-.1l-.1-.1H55V20.3h.1V20H54.8l-.2-.1h-.2l-.2.1-.1.1H54l-.2.1-.1.1-.1.1-.3.1-.1.1H53l-.3.1h-.2l-.4.1h-.4l-.1-.1H50.8l-5.1-.1h-.2l-.1-.1-.1-.1v-.2l-.1-.1V20l-.1-.1v-.1l-.1-.1v-.1h-.1l-.1.1h-.1l-.4.1v.2l-.1.1V20.4l-.1.1v.1H44v.4l-.1.1v.1l-.1.1V21.6l-.1.1-.1.1v.5l-.1.1-.1.1v.4l-.1.1-.1.1v.5l-.1.1-.1.1v.5l-.1.1-.1.1v.4l-.1.1v.1l-.1.1v.4l-.1.1v.2l-.1.1v.2l-.1.1v.2l-.1.1v.4l-.1.1v.2l-.1.1V27.7l-.1.1-.1.1v.4l-.1.1-.1.1h.2V28.8l.2.1v.2h.1V29.9l-.1.1v.2l-.2.1v.2h-.1l-.1.1h-.1l-.1.1h-.2l-.8.1h-1.5l-.7-.1h-.7l-.2-.1H37l-.1-.1h-.2l-.3-.1-.2-.1-.2-.1-.1-.1V30l-.1-.1-.2-.1v-.1l-.1-.1-.1-.1h-.1v-.1l-.1-.1-.1-.1-.1-.1v-.2h-.1v-.1h-.1v-.5l-.1-.1V27.4l.1-.1v-.7l.1-.1v-.2l.1-.1V26l.1-.1v-.2l.1-.1v.2-.1h.1v-.2l.1-.1v-.2l.1-.1V25l.1-.1v-.1l.1-.1v-.2l.1-.1.1-.1v-.1l.1-.1v-.4l.1-.1v-.1l.1-.1v-.2l.1-.1V23l.1-.1v-.1h.1v-.5l.1-.1V22l.1-.1V21.6l.1-.1v-.2l.1-.1V20.9l.1-.1v-.1l.1-.1V20.3l.1-.1V20l.1-.1v-.5l.1-.1v-.4l.1-.1v-.2l.1-.1v-.4h-.1v-1h-.1V17h-.1v-.1l-.1-.1v-.1H37v-.1h-.1v-.1h-.1l-.1-.1h-.1v-.1h-.4l-.1-.1-.1-.1h-.2V16h-.4v-.1h-.5l-.1-.1h-2l-.1.1H32.4v.1H32.1l-.1.1H31.7l-.1.1h-.2l-.1.1h-.4l-.1.1h-.2l-.1.1h-.2l-.1.1h-.1l-.1.1H29.7l-.1.1h-.2l-.1.1H29v.1h-.1l-.1.1H28.5l-.1.1h-.2l-.1.1h-.2l-.1.1H27.5l-.1.1H27.1l-.1.1h-.1v.1H26.6l-.1.1h-.2l-.1.1H25.9v.1h-.5l-.1.1h-.2l-.1.1h-.4l-.1.1h-.2l-.1.1h-.4l-.1.1h-.2l-.1.1H23l-.1.1H22.6l-.1.1H22v.1H21.7l-.1.1h-.4l-.1.1H20.8l-.1.1h-.1l-.1.1h-.2l-.1.1H20v.1l-.1.1H19.6l-.1.1h-.2l-.1.1H18.9l-.1.1H18.5v.1h-.2l-.1.1H18l-.1.1h-.4l-.1.1H17.1l-.1.1H16.7l-.1.1h-.2l-.1.1h-.4l-.1.1h-.1v.1h-.5l-.1.1H14.8l-.1.1h-.6l-.1.1h-.5l-.1.1H13.1l-.1.1h-.2l-.1.1h-.1v.1h-.4v.1H12l-.2.1h-.2v.1h-.1l-.1.1H11.1v.1h-.2l-.1.1h-.2l-.1.1H10.2v.1h-.4l-.1.1H9.4l-.1.1h-.2l-.1.1H8.7l-.1.1H8.3l-.1.1H8l-.1.1h-.4v.1h-.6l-.1.1h-.1v.1h-.5l-.1.1h-.4l-.1.1H5l-.1.1H4.6v.1h-.2l-.1.1h-.2l-.1.1h-.1l-.1.1h-.2l-.1.1H3.2l-.1.1H2.8l-.1.1H2.4l-.1-.1-.1-.1v-.1l-.3-.1v-.1l-.1-.1v-4.7h.1v-.1H2.2v-.4V20v-4.4l-.1-.1V14.7H2l-.2-.1-.1-.1-.1-.1V10.8l.1-.1.1-.1V10.3l.1-.1.1-.1.1-.1.1-.1h.1l.1-.1.1-.1h.1v-.1h.2l.1.1H3l.2.1H13.3l.1.1 3.8-.1h.1v-.1h.2l.2-.1h.1l.2-.1.1-.1.2-.1v-.1h.1v-.1h.4V9h.1l.2.1v.4l-.3.1.1.1h.1v-.2l.1-.1H19.7v-.1H32.8l.1-.1h1.5l.1-.1h.9l-.2-.1.1-.1.1-.1.1-.1.1-.1.1-.1h.1l.2-.1.1-.1.1-.1.1-.1.1-.1v-.1l.1-.1.2-.1.1-.1h.1v-.1h.1l.9-.1.1-.1v-.1l.1-.1h.1V7l.1-.1.1-.1.1-.1.1-.1.1-.1h.1l.1-.1.1-.1.1-.1.1-.1v-.2l.1-.1h.1v-.1h.1l.1-.1.1-.1.1-.1.1-.1.1-.1.1-.1.1-.1.1-.1.1-.1.1-.1.1-.1.1-.1.1-.1.2-.1.2-.1h.1l.1-.1H60.3V4l.1-.1.1-.1v-.1l.1-.1.1-.1.1-.1h.1l.1-.1h.5v-.2l.1-.1.1-.1h.1l.1-.1v-.1h.1v-.1h.1l.1-.1h.1l.1-.1.1-.1v-.1l.1-.1.1-.1.1-.1.1-.1v-.2l.1-.1v-.1h.2l.1.1h.4v-.1h.6l.1.1.1.1.1.1v.1h.1l.1.1V2l.1.1.1.1.1.1.1.1.1.1.1.1.1.1v.1h.1l.1.1V3h.1l.1.1v.1l.1.1v.1h1.7V3.1l.1-.1h.2l.2-.1h.2v-.1h.2v-.1l.1-.1h.2l.1-.1.1-.1h.1l.2-.1v-.1h.2v-.1l.1-.1h.2l.1.1v.6l.1.1v.1l.1.1v.1l.1.1v.1l.1.1v.1h2.1v-.1h.4l.2.1.1.1v.1l.1.1h.1V4h.1l.1.1v.1l.1.1H91.9l.1-.1h.1l.1-.1.1-.1.1-.1v-.2l.1-.1.1-.1v-.6h-.1V.4l.1-.1-1.8-.1M45.2 16.2l-.1.2v1.3H45v.1l-.1.1v1.2l.1.1V19.5l.1.1.1.1v.2H50l.1.1H51.9l.1-.1h.1l.1-.1H52.5l.1-.1.1-.1.2-.1h.1V15.8h-5.2l-.1.1v.5l.1.1v.4l.1.1v.1l.1.1.1.1v.2l.1.1.1.1v.1l.1.1.1.1.1.1.1.1.1.1h.1l.2.1v.5H49v.1h-.8v-.1H47.9l-.2-.1v-.1h-.2l-.1-.1-.1-.1h-.1l-.1-.1-.1-.1v-.1l-.1-.1-.1-.1-.1-.1v-.1h-.1v-.1l-.1-.1v-.4l-.1-.1v-.2l-.1-.1v-.4l-.1-.1v-.4H45.9l-.2.1h-.2l-.1.1-.2.1M23.5 14.9h.3l.2-.1h.1l.2-.1.5-.1.4-.2.2-.1.2-.1.4-.1.1-.1.2-.1.2-.1H.5v.1H.4l-.1.1-.1.1H.1v5.2H0v1.5h.1v.2l.1.1V21.4h.4v.1l-.1.1v.1h.1V22H.3v.2l.1-.1h.1l.2-.1h.5l.1-.1h.2l.3-.1.2-.1.2-.1h.2l.3-.1h.2l.1-.1h.2l.3-.1.4-.1.3-.1h.2l.2-.1.3-.1.3-.1.3-.1.3-.1.3-.1.3-.1.3-.1.3-.1.3-.1.3-.1H8.5l.3-.1.3-.1.3-.1.3-.1.3-.1.2-.1.3-.1.3-.1.2-.1h.2l.3-.1.7-.1.3-.1.3-.1.3-.1.3-.1.3-.1H14l.2-.1.3-.1.3-.1.3-.1.3-.1h.3l.3-.1.3-.1.3-.1.3-.1.5-.1.4-.2.3-.1.3-.1.3-.1.3-.1.3-.1.3-.1.2-.2.2-.1h.1l.1-.1H20 20.3l.2-.1h.4l.1-.1h.2l.3-.1.4-.1.4-.1.2-.1h.2l1-.4-.2-.3m10 0H33l-.3.2-.3.1H33.5l.1.1h.1l-.2-.2v-.2"/></symbol><symbol viewBox="0 0 100 62.6" id="i-cz75"><path d="M17.4.3v.5h.8v1l57.1-.2v-.5l.5-.3h1.6l1 .6v.3h.5v.8l.8.6h1.1l.2.3.3.3v.7h17.9l.2.2.1.4.5 1.9-.2 2.3-.3.8H81.3l-.3.8h-1.6v3.1l-.4.6-.3.3-.2.2h-12l-.5.8h1.1l2.4.6 1.8 1 .6.5-.3.5h-6.9l11.5 39.7-.6.3.2.2.5.2.6.5v1l-.3.2-1 .5-1.1.5h-1.6l-.2.5H70v.8h-6.1V62L51.5 18.5l-.8-.5-1.1 2.1-.2 1.8h.2l.2.3.3.2v5.2l-.3.2v.3l-3.1 1.1-3.2 1-6 .8-4.2-1-1.3-.5-.5-.2-.8.8-1.5.5-.3.5-2.9 7-4 10.3-.2.6v1.1l.5 2.7h1.6l.5.2.5.3.2.2-.2.2-.9.8-2.3 1.3-3.1.8-1.6.2L3 57l-.5-.6-.2-1.6-1.1-.2-.6-.2-.3-.2V53l-.3-.7v-1.6l.2-2.3 7.3-19.2 1.1-1.6 1.5-2.3.3-1.3-.2-1.5-.8-1.8L8.1 19l-1.8-1.5-1.1-1V15l1-.3 2.3-1.8 1.5-2.6V9.2L9.8 9l-.6-.6-.8-.3-.5-.2h-.6L6 7.4l-.8-.8c-.2-.5-.2-1 0-1.6.2-.6.6-1.1 1.3-1.3h1.3c.2 0 .5.3 1 .8l.8.8v.8l.4.5v-1l.2-.8.8-1.4 1.3-1 1-.3v-.6h2.6V0h1.6M39 19.4l-.6-.6-.5-.3-1.5.5c-1.1.5-2.1 1.1-2.9 2.1-.8 1-1.3 1.9-1.5 3.1l-.2 1.5v.3l.5.8c.5.8 1.3 1.6 2.4 2.3l2.9.6h3.5c2.3-.5 4.2-1.5 5.6-2.6l1-1.1.5-1 .2-2.1-.2-2.6-1-1.6-1.2-1.6-1.5-.3-1.3.2-.8.6-.2.5.5.2-.1.7-.2.2-.5.8c-.3.8-.6 1.6-.6 2.3 0 .8 0 1.5.2 1.9l.8 1.5 1.5 1.3 1.1.5v.5l-1.6-.2c-1.3-.3-2.3-1-2.9-2.1-.3-.6-.6-1.5-.8-2.6l-.2-1.3v-.5l-.2-.8-.2-1.1"/></symbol><symbol viewBox="0 0 100 56.1" id="i-deagle"><path d="M99 3h.3l.5.2-.2 2 .3 2.7-.5 1.8-.4 1.5-.5 1.8-1 3.2-.7 1.7-.5.5-.2.2H57.9l-1.2.2-2.5 1.8c-.8.8-1.7 2-2.3 3.7-.8 1.5-1.3 3.7-1.3 6.5v.8h-.2l-1.6.4-3.7.5-4.7.2-4.3-.8-1.5 1.1c-.7.7-1 1.5-1 2.3l-.5 3.2-1 5-.8 5-.7 2.5 1.3 3.8h-.2l-8 .8-7.7.5-8-.5h-.5l-1-.8c-.3-.5-.5-1.5-.5-3l.2-3.5c.2-1.3.7-2.8 1.3-4.7l2.2-6.3 3.5-8.5v-1.1l.2-1c0-1.2-.2-2.3-.8-3.5-.5-1.2-1.5-1.8-3.3-2.2H7.7l-3-.2-3-.2H.2l-.2-.1v-.2c0-.3 0-.5.2-.7.1-.6.8-1.1 1.8-1.8s2.7-1.2 5.2-1.8l.7-1 .5-2.2-.2-.8-.5-1-.7-.7-1.3-2.5V6.3l1.7-.5.4.2.5.3h2.8l.3-.7.4-.6 2.5-2.2.5-.2.5-.3V1l.2-1h3.2l2.2 2.2h3.7l1.3-.7 15-.2.3.7.7.5 19.6.3.2.2.3.2h1V3l.2-.2.3-.3 22 .2v.5l.2.5v.2h1.2l.1-.6.3-.3h4.3l.8-.5 1.2-.8c.4-.4.9-.5 1.4-.5l.8-.3.7.7.2 1 1 .3.6.1h.7M46.3 19.6h-6.5c-.5 0-1 .2-1.5.5-.3.3-.5.8-.5 1.3v6.2l.5 1.3 1.5.5h6.5c.5 0 1-.2 1.5-.5l.7-1.3v-6.2c0-.5-.2-1-.7-1.3-.5-.1-1-.5-1.5-.5"/></symbol><symbol viewBox="0 0 83.8 100" id="i-decoy"><path d="M37.7 25.1v-5.4c-2.2-.3-3.2-1.3-3.2-3 0-1.1.3-1.9 1.1-2.4l2.7-.3h14.8l12.7 20v42.6l-6.5 3.2-2.2-.5c-.5-.8-.3-1.6.5-2.2.8-.5 1.9-1.3 3.2-2.2l1.9-1.1V36.1l-5.4-3v6.5l-3.2 3v6.5h-1.3v6.5h1.3v6.7h-1.3v6.5h1.3v6.7h-1.3V82h1.3v6.2l3.2 5.4v4.6c0 1.3-.5 1.9-1.9 1.9h-24c-1.3 0-1.9-.5-1.9-1.9v-4.6l3-5.4V82h1.6v-6.5h-1.6v-6.7h1.6v-6.5h-1.6v-6.7h1.6v-7.3h-1.6v-6.5l-3-3v-8.6c0-1.3.5-1.9 1.9-1.9h1.9l4.4-3.2M20.5 0v8.4l7-4.3 3 5.1-7.5 4.3 7.5 4.3-3 5.1-7-4v8.4h-6.2v-8.6L6.8 23l-3-5.1 7.5-4.3-7.5-4.4 3-5.1 7.5 4.6V0h6.2m63.1 18.3l-5.4 3.2 5.7 3-2.4 4-5.4-3v6.2h-4.3v-6.5L66 28.6l-2.2-4 5.4-3-5.4-3.2 2.2-3.8 5.7 3.2v-6.5H76v6.5l5.4-3 2.2 3.5M19.9 55l-2.4 3.8-5.4-3V62H7.8v-6.5l-5.7 3.2L0 55l5.4-3L0 48.8l2.4-4L7.8 48v-6.5h4.3V48l5.4-3.2 2.2 4-5.4 3.2 5.6 3"/></symbol><symbol viewBox="0 0 100 34.9" id="i-elite"><path d="M99.7 2.6L100 4v1.4l-.1.1-.1.8v3l-.1.9v.5h-3.6l-.1.5h-.1l-.7.1h-6.6l-1.6-.1h-1.5l-.9.1c-.6.1-1 .3-1.6.7l-1.6 1.4c-.3.5-.6.9-.6 1.2l-.1 1.3v.7c.2.5.3.7.1.9l-.5.5-.9.3-1.5.5-2.1.6-2.1.1L70 19c-.8-.1-1.4-.1-1.7 0-.5.1-.8.2-1.2.5l-.4.5-2.3 8-.1.1v.2l.1 1 .3 2v.9c0 .9-.2 1.7-.6 2.3l-.6.3h-8.4v-.1l-.3-.1h-.2l-.5-.1c-.5-.2-.7-.8-.7-1.7l.1-.5.1-.3-2.3-.3-.7-.3v-.2l-.1-.2v-.2l-.1-.3-.1-.7V29c0-.8.1-1.5.3-2.3l.3-1.3.8-1.8 1.5-3.5 1.6-3.5.9-1.8.1-.8-.6-1.6c-.2-.5-.7-.7-1.3-.9l-1.5-.3-1-.1c-.2-.2-.5-.5-.5-.9V10c0-.3.1-.6.3-.8.5-.2.8-.3 1.1-.3.1-.1.2-.2.3-.2h.4l1-.9.2-.2.8-1.4.3-1.2-.1-1-.2-1.1v-.5c.1-.3.3-.6.6-.6l.8-.1.6.3.6.1.5-.1.5-.2.7-.1.5-.1.5-.1h.1V.2h.3l1.6.1.3.3.1.4v.6H73.5l.3.5h22.4l.1-.2.2-.1.1-.1.2-.3c.3-.2.7-.3 1.3-.3l1-.1.2.1.1.1.5.6-.2.8M71 12h-.7l-.1.1H70l-1 .5c-.3.2-.7.6-.7.9l-.2.9c0 .6.1.9.2 1.2h.1l.9.9.1.1c.3.2 1 .5 2 .7l3 .1c2.6-.3 4-1 4.3-2.1l.1-.8-.5-1.4c-.2-.5-.8-.9-1.5-1.3H71M48.6 1.2c.3 0 .5.2.6.6l.1.8.5 1.4-.1.7-.1.6V6.2l-.1 1.5-.1 1.5v1.1h-3.5l-.1.2-.1.2H44.9l-1.6.1h-3l-2-.1H35l-.7.1c-.6.1-1.2.3-1.7.7L31 13l-.7 1.2-.1 1.3.1.7.1.9-.4.4v.1l-1 .4-1.5.5-1.5.4-.5.1-2.1.1-3.8-.6c-.8-.1-1.4-.1-1.8 0l-.9.6-.5.6-2.3 7.9V29l.1 2 .1 1c0 1-.2 1.7-.6 2.1l-.6.3H4.7l-.9-.3-.5-.6-.1-1v-.7l-2.1-.2H1l-.8-.5v-.2l-.1-.2v-1.4l-.1-.4v-.3l.3-2.3.4-1.3v-.1l.6-1.3.2-.5L3 19.7l1.6-3.6.9-1.7.1-.8c0-.5-.1-1-.5-1.6-.2-.5-.7-.7-1.3-.9l-1.6-.3-.9-.1c-.3-.3-.4-.7-.4-.9l.3-.8.1-.1c.2-.2.5-.3.8-.3l.3-.1h.3l1-.9.1-.3.7-1.4.5-1.3-.3-.9-.1-1.2v-.2c.1-.3.2-.6.4-.6l.8-.1.8.2.7.2.8-.3.6-.2.6-.2h.6V0h.3l1.6.1c.2 0 .3.1.3.2l.1 1H15l2.3-.1h3.2l1.6.1H23l.4.7h22.4v-.2l.2-.4.1-.1.3-.3c.2-.3.7-.5 1.3-.3l.9.2h.1l-.1.3M26.4 11.6H22l-1.6.1h-.7l-.3.1-1 .5c-.3.2-.6.6-.7.9-.1.2-.1.6-.1 1l.2 1 .1.1.3.3.6.6.2.1c.3.2 1 .5 1.8.7l2.9.1c2.6-.5 4.1-1 4.4-2l.1-.9c0-.5-.1-.9-.5-1.4-.1-.2-.5-.7-1.3-1.2"/></symbol><symbol viewBox="0 0 100 36.1" id="i-famas"><path d="M99.7 11.4l.3.9c.1.5 0 1.1-.3 1.8v.2h-.1l-1 .1-2.1.1-2.2.1-1.3-.3-.2-.1-.2-.2h-8.4l-.8.3c-.3 0-.6.1-.7.3l-.8.4H81l-.5-.4h-.2l-.1.3-.2.5v.1l-.2.8-.4.9-.6.9-1 .4H57.1l-.8.3v2.8c0 .4-.2.9-.5 1.3-.4.2-.9.4-1.5.4l-1.8-.1-2-.2-1.7-.3-.9-.3-.9.8c-.4.3-.6.8-.6 1.7v1l-.2.1-.6.6-.4.9.1.5v.3l.3.4h-.3l-.5.7c-.3.4-.5 1-.5 1.9v.5l.2.3H44l-1.1-.3-1.9-.3-2-.6c-.5-.2-.8-.5-.9-.8l-.2-.2c.1-1.9.4-3.6.7-5.4.4-1.8 1.3-3.3 2.8-4.6l.1-.5.1-.5c0-.3-.3-.6-.8-.9l-1.4-.3c-.7 0-1.7.2-2.7.5-2.2.8-3.7 2.5-4.5 5H32c-.7.5-1.2.7-1.5.7v.1l.1 1.7.1 2.5.1 2.8.2 2.8v.3l-.5.4-1.5.8-2.6.8-3.4.2h-.1l-.4-7.7-.3-5.5v-2.8l-3.6.6-2.1.5v.3l-.1.3c0 .6-.1 1-.4 1l-1.1.3c-.6.1-1 .2-1.3.4h-.1l-.5-.6-.4-.4-.1-.4-1.5.7-2.5.7-3 .5-3.2.1-.1-.1-.2-.1C1.2 21.6.7 19.5.3 17.7.2 16 0 14.5 0 13.2c0-2.3.3-3.7.8-4.4.5-.7 1-1.3 1.2-1.4l.5-.8 1-1.5v-.3h9.8v.3l.9 1.4.9.9 1.3-.6 2-1.5h.2l5 .3 4.5.2h3.5l1.9-.2.3-.9.4-1.3.3-1.1.3-.7v-.3l.4-.3c.1-.2.3-.3.7-.4l1.4-.3 2.9-.3 24.2.8 8 .2h4.5l2 .1H80c.3-.1.5.1.8.6.6.7.9 2 .9 3.7v1.9l-.3 2.2-.1.5-.1.9h.9l.5.1 1.3.3.1.1V11.7h7.3l.5-.1.5-.2.4-.1 1.2-.2H99.2l.4.2M74.7 4.2H41.4c-1.1 0-1.7.6-1.7 1.9v1.7c0 1.1.6 1.8 1.7 1.8h33.3c.5 0 .9-.2 1.2-.5.3-.3.5-.7.5-1.2V6c0-.5-.2-1-.5-1.3-.3-.4-.7-.5-1.2-.5"/></symbol><symbol viewBox="0 0 100 72" id="i-fiveseven"><path d="M99.4 3.5l.4 2.1.2 2.7-.2 4.9-.2 3.3-.2.4-.6.6V19.3l-.2.8-.9-.1h-4.9l-.6 2.5-.8 1-.2.4H67.8l-1 .4-1.9 1-2.3 1-1.2.8.2 2.9v2.3l-.2 3.3c-.2 1.6-1 2.9-2.1 3.7-1 .8-2.3 1.2-3.7 1.6l-4.7.2L46 41l-3.3-.2H39.8c-2.3-.2-3.7-.2-4.3 0l-1.2 1-.4.2c-.7.7-.9 1.9-.9 4v.8l-.2 2.7-1 2.5-.2.6-.8 3.1-1 4.5-1 3.9-.8 2.1.4.4.6.6.2 1-.2.4c0 .6-.4 1-1 1.4l-1.6.8H23.1l-6.2.4-11.1.8c-1.2 0-2.7-1.4-4.1-4.1v-1.6c0-2.3.2-4.9.8-8.2l2.3-9.5 2.9-9.1 2.5-7.2v-.6l.2-1.4v-.8l-.2-.4h-.3v-.2l-.8-1-.6-.2-1.3-.7c-1-.4-2.5-1-4.1-2.3-1.2-.6-1.9-1.4-2.3-2.3-.4-1-.8-1.9-.8-2.7v-1.9l1-3.7 1.6-6.8C3 5.4 3.8 4.2 4.7 3.4L7 1.9V.2l.4-.2 6 .6c1.9.8 3.1 1.4 3.3 1.9h49.5l.4.2.4.4h26.2l.2-.2L94.8.6V.2h2c1.1-.2 2 1 2.6 3.3M56.3 25.8H38.1c-1 0-1.4.6-1.4 1.6v6.4c0 1 .4 1.4 1.4 1.4h18.1c.8 0 1.2-.4 1.2-1.4v-6.4c.3-1-.3-1.6-1.1-1.6"/></symbol><symbol viewBox="0 0 83.8 100" id="i-flashbang"><path fill-opacity=".3" d="M61.6 31.5L83.1 33 67.4 46.3l16.4 13.1-21.3 1.8 5.1 22.6-8.9-6.7V45.9L48.6 29.3H36.4l-2.2.2c-.7.2-1.1.9-1.1 2 0 1.6.9 2.4 2.7 2.4v4.4l-3.3 2.9h-1.6c-1.1 0-1.6.4-1.6 1.6v7.1l2.4 2.4v5.3h1.1V63h-1.1v2h-.9v3.3L13.1 78l8.6-22.2L0 47.5l22.2-8L7.1 20.8l23.9 4L34.6 0l13.5 21.7L68.7 7.3l-7.1 24.2m-5.3 15.7v27.9l-5.8-4.4v-6h-1.1v-2h-1.1v-5.3h1.1v-5.3l2.7-2.4v-5.3l4.2 2.8"/><path d="M35.5 38.4V34c-1.8-.2-2.7-1.1-2.7-2.4 0-.9.4-1.6 1.1-2l2.2-.2h12.2L58.5 46v35l-5.3 2.4-1.8-.2c-.4-.7-.2-1.3.4-2 .7-.4 1.6-1.1 2.7-1.8l1.6-.7V47.5L51.7 45v5.3L49 52.8v5.3h-1.1v5.3H49V69h-1.1v5.3H49v5.5h-1.1v5.3H49v5.1l2.7 4.4v3.8c0 1.1-.4 1.6-1.6 1.6H30.4c-1.1 0-1.6-.4-1.6-1.6v-3.8l2.4-4.4v-5.1h1.1v-5.3h-1.1v-5.5h1.1v-5.8h-1.1V63h1.1v-5.3h-1.1v-5.3L28.8 50v-7.1c0-1.1.4-1.6 1.6-1.6H32l3.5-2.9"/></symbol><symbol viewBox="0 0 100 26.4" id="i-g3sg1"><path d="M99.4 12.1l-1 .2h-3l-1.4-.2-.3-.2H88l-.2.2-.1.1-.8.2-.4-.2h-.8l-.2.2-.2.3v.3l-.3.7h-.7V15l-.3.2-.4.1-.7-.1-1.1-.2h-3.2v.5h-.3l-1.3-.1-.3-.1v-.2l-.1-.1h.1v-.2H63.1l-1.3.2-1.5.1-1.2.1-.6.1c-.2.2-.5.2-.7 0l-.2-.2-.2-.2v-.3H52l.2 3.1.3 3.2.2 2.6.2 1.2-.2.4-1.3.3-2.4.5-2 .2-1.1.2h-.5l-.2-.2V26l-.2-1.1-.2-2.7-.4-5.1h-.7l-.4.7H43l.3-.7h-.9v.2l-.7 1.9c-.2.5-.5.9-.8 1.1l-2.1.4-2-.2-.6-.4-.7-.3-.4-.2-.1.2-.3.7-.5 1.1-1.1 2.3-.7 1.3-.4.5-.3.2c-.2 0-.8-.2-1.7-.8l-2.4-1.8-.4-.3.1-.2.3-.6.5-1 .6-1.1c.2-.3.4-.6.7-.7l.2-.2.8-.8c.3-.3.5-.7.7-1.1.1-.6.1-1-.2-1.3l-.9-.5h-6.3l-.2.1H23l-.7.2-1.6.6-3.3 1.2-4.1 1.5-4 1.5-2.9 1.1-1.4.5-1 .2-1.3.2-1.2.1-.8-.1c-.3-.2-.5-.4-.7-.7v-1.8c0-.2.1-.4.2-.7l.1-.7v-.9l.2-.6.1-.7-.1-2.1-.2-1.3-.2-.7v-1l.2-.2.4-.1.7-.2 1.2.1h1.5l1.1-.1.3-.9c.1-.2.3-.5.7-.6l2.2-.1 4-.1 4.1-.1h2.7l.4.5.2.6.3.3.7-.1.5-.2 1.5-.7 1.4-.8.9-.5c.2-.2.6-.2 1.1-.2h3.4l.2-.2.2-.2.2-.4.8-.5.7-.2.4.2.6.1.7.2.6.7v.2l-.2.2h.4v-.7l-.3-.2-.2-.3-.3-.7-.4-.8v-.2l-1.6.2-1.5.2h-6l-1.1-.1-.2.1h-.7l-2.4-.2v-.2l-.1-.5-.1-1.1-.1-1.1.1-.9.1-.5.1-.1V.8l.2-.1h2.9l1.7.1 2.4.1 2.4.1 2 .1h1.2l1.1.1.9.2h.7l1.2-.1 2.1-.1 2-.1h.9l.5-.1.3-.2.2-.2c0-.2.2-.3.6-.4.5-.2 1.1-.2 1.6 0h.2l.4.1.3.3c.1.2.2.2.5.2l.3.1 2.1.2 2.4-.2 1.8-.2 2.3-.2h2.4l1.5.1h.2c.3.1.6.2.7.4.2.2.2.5.3 1.1.1.7.1 1.3-.2 1.9L59 5.1l-1.1.1h-2.1l-2.3-.1-1.6-.2-.9-.2-.7.2h-1.5l-.6.9H48l-1.8 1-.4.4-.2.2-.2.5h22.7l.5-.1.9-.1 1-.1.7-.1.9-.1.7-.1.3-.3.2-.2h1.5l.2.3.4.6h8.2l-.2-.9V5.6l.2-.1.6-.5c.2-.2.3-.2.5-.2l.8.2.3.9.3 1.9v1.1c.1 0 .2.1.3.2v.3l-.1.2h.4l.1-.1h.8l.2.1H99.6l.2.2.2 1.3c-.1.6-.2.9-.6 1M36 17.2l-.2.3.5.5.5.3.3.1.9.1H39.3l.7-.1.3-.2.2-.4.3-1.1v-.2l-.2-.1-.4.1-.7.2h-1.1l-1.1.1-1.1.2-.2.2"/></symbol><symbol viewBox="0 0 100 28.6" id="i-galilar"><path d="M99.7 5.1v2.8H93.1l-4.3.1h-7.5c0 .3-.1.7-.3.8-.6.6-1.2.9-1.6.9-.3 0-.5-.2-.9-.5l-.8-.8-.4-.1-.5-.3-.8-.3-.8-.1-1.6-.1-2.1.1-2.2.1-.1.4-.1.4-.3.2h-.4v.4l-.1.5-.1.8h-4.1l-3.8.1-3 .1-1.5.1-.6.3-.8.1-1.1.2-.8.2h-.1l-.3-.5v-1l-.1-.7v-.6l-.9.3-1.5.3-1.5.3-.9.1v.5l-.1.3c0 1.4.3 3 .7 4.8.4 1.7.9 3.3 1.5 4.8l1.5 3.8.7 1.5.2.3-.3.2-.9.4-1.7.8c-.8.3-1.8.8-3 1.5h-.3c-.5-.6-1-1.7-1.5-3.2l-1.5-4.8-1.4-4.6-.8-2.8-1.1.5-.2.1c-.2.3-.4.4-.8.4-1.3.3-2.4.3-3.3 0-.8-.3-1.3-.6-1.6-.8l-.3.2-.8.3c-.8 1.9-1.3 3.6-1.6 4.8l-.3 2.8v.7l-.1.3-.1.1c-.5 0-2.1-.8-4.8-2.1l-.3-.1v-.3l1.1-2.3.9-2.4.7-2 .3-.9-.1-.3-.1-.3-.3-.3-.3-.3-.3-.3-.9-.3h-2.3l-2.9.1-2.9.2h-3.6c-2.2 0-5.5 2-10 5.9l-.3.4-.9.7-.7 1-.4.1c-.3 0-.4-.2-.7-.5L1 17.5v-1.2l-.3-2.5L.4 11 .2 8.6C-.1 8 0 7.3.4 6.8c.2-.4.6-.5 1.1-.5h20.8c.2 0 .3-.1.4-.2V6l.3-.3.2-.3c.2-.2.5-.3.9-.3l.7-.1.5-.1.5-.2 1.1-.4.8-.6c.2-.1.3-.3.3-.6l.2-1.3v-.3c0-.5.1-.8.3-1.1l.9-.2h.3l.2.2.9.8 1.1-.1h.6l.4.7.3 1.2 2.8-.2 1.6.2.4.1.4.1h10.7l-.1-.7-.1-.3h1.9v.3l.1.3H76.8V1.9c-.1-.2-.1-.4-.1-.7l.6-1.1L79 0h.2v3l-.2.1v.1l-.1.2 1.3.9c.7.3 1.4.5 2.2.5H84l2.7.1 2.9-.1 2.9-.1h3.4l.8-.1 1.1-.3 1.3-.1c.4-.1.7 0 .8.3-.3.2-.2.3-.2.6m-65.1 5.3c-.3 0-.4.1-.7.3-.2.3-.3.6-.3.9s.1.7.3.9c.3.3.4.3.7.3h3.1c.3 0 .5-.1.8-.3l.3-.9-.3-.9c-.3-.2-.5-.3-.8-.3h-3.1m-32.2-.2l.3 1.8.2 1.9.1 1.4 1.1-.9 1.5-1.3 3.3-2.4 2.8-2.1H2.3l.1 1.6"/></symbol><symbol viewBox="0 0 100 62.1" id="i-glock"><path d="M100 11.8c0 4.2-.7 6.8-2.2 7.7l-.9.2-4.2.4-6.3.2-6.6.2h-5.5l-3.9.4-2.4.5-1 .9-.2 1.1v.7l.2 2 .2 2 .6 2.6v.2l-1.3 1.5v.4l-3.3.4-9 .2-6.1-.2-3.5-.6-1.7-.7-1.5.1-1.8 1.8-2.8 4.2c-.9 2-2 4.8-3.5 8.1-1.3 3.3-2.8 7.6-4.4 12.5l-.2.2c0 1.5-.4 2.4-1.1 2.8-.4.4-.7.6-1.1.4H5.9v-.9l.4-1.5H4.8l-.7-.2c-1.5-.2-2.6-.7-3.3-1.8-.4-.7-.8-1.4-.8-2.5 0-1.3.2-2.4.6-3.3l.6-1.7v.2l1.3-1.7 2.4-3.7 3.3-4.8 3.7-5.2 2.8-6.3.9-4.8L15 21c-.6-1.1-1.3-2-2.4-2.8l-2.8-1.7c-.9-.2-1.5-.6-1.8-1.1l-.4-2.2.2-.9v-.7l-.2-.2V4.8l-.2-1.1-.2-.4.2-.2v-.2c0-.2.4-.4.9-.6l3.9-.6.2-.6.2-.4.4-.7h2.7l.3.7.2.6.2.6h76.1l.2-.4.2-.2 1.8-.6.3.4.6.6h3.3l1.1 10.1m-38.7 9.6h-13l-.7.6c-.4.4-.6.7-.6 1.3v4.4c0 .7.2 1.1.6 1.5l.7.6h13.1l.7-.6.6-1.5v-4.4l-.6-1.3c0-.6-.4-.6-.8-.6"/></symbol><symbol viewBox="0 0 75 100" id="i-hegrenade"><path d="M60.1 20.2v.6l.3.3v.3l.3.3v.6l.3.3V23.5l.3.3v.6l.3.3v.3l.3.3V26.2h.3V27.1h.3v.3l.3.3h.6l.3.3v.3l.3.3v.6l.3.3V30.4h.3v.6h.3V31.9h.3v.3l.3.3v.8l.3.3v.3l.3.3V35.1l.3.3v.3l.3.3v.6l.3.3v.3l.3.3v.3l.3.3v.3h.3V39.3l.3.3.3.3v1.2h.3V42l.3.3v1.2l.3.3v.2l.3.3v.6h.3v.6h.3l.3.3.3.3v.3h.3v.6l.3.3.3.3v.3l.3.3v.3l.3.3.3.3v.6l.3.3V50.9l.3.3h.3v.3l.3.3v.6h.3v.3h.3v2.1l-.3.3V72.3h.3V77.7h.3V83.9l.3.3V89.6h-.3V96.4l-.3.3-.4.3v.6h-.3v.3h-.3l-.6.3h-2.4l-.3-.3-.3-.3v2.4-.6h.3l.3-.3.3-.3h.6l.3-.3V71.7l-.3-.3-.3-.3V61.9l-.3-.3v-1.5l-.3-.3V58l-.3-.3v-1.5h-.3v-.8h-.3V53h-.3v-.6l-.3-.3v-.3l-.3-.3v-.6l-.3-.3h-.3V49.7h-.3v-.3l-.3-.3v-.6l-.3-.3v-.3l-.2-.3v-.3l-.3-.3-.3-.3h-.3l-.3-.3v-.3h-.3v-.6h-.3v-.3l-.3-.3-.3-.3-.3-.3v-1.2l-.3-.2V42l-.3-.3-.3-.3v-.3l-.3-.3-.3-.3-.3-.3v-.3l-.3-.3-.3-.3-.3-.3v-.3h-.3v-.3l-.3-.3v-.3l-.3-.3-.3-.3h-.3v-.3l-.3-.3v-.3l-.3-.3v-.3l-.3-.3-.3-.3v-.3l-.3-.3v-.3l-.3-.3v-.3l-.3-.3-.3-.3v-.3l-.3-.3h-.3l-.3-.3v-.3l-11.6.3-.3.3V40.8h1.5l.3.3h.9l.6.3H51.8l.3.3h.6l1.2.3h1.5l.3.3H56.6l.9.3.3.3.3.3h1.2l.3.3.3.3.6.3h.5l.6.3.3.3h.3l.3.3.3.3.6.3.3.3.3.3v.3l.3.3v.2l.3.3.3.3.3.3v.3l.3.3.3.3v.6l.3.3v.3h.3V50.9l.3.3v.3l.3.3V52.7h.3v.3l.3.3v1.5l.3.3V56l.3.3v1.5l.3.3v.3h.3V59.3l.3.3v.6l.3.3V62.2l.3.3V69.9l-.3.3V72.9l-.3.3V74.1l-.3.3v1.2h-.3v.6h-.3V77.1l-.3.3v.6l-.3.3V79.2h-.3v.3l-.3.3V81l-.3.3v.3l-.3.3V82.8h-.3v.2l-.3.3V84.2l-.3.3v.3l-.3.3v.3l-.3.3-.3.3v.3l-.3.3v.3H64v.3h-.3v.6l-.3.3h-.3l-.3.3-.3.3h-.3v.3l-.3.3-.3.3h-.3v.3H61l-.3.3v.3l-.3.3-.6.3-.3.3h-.3l-.3.3-.3.3-.6.3h-.3l-.3.3-.3.3h-.3l-.3.3-.5.3h-.3v.3h-.3l-.3.2h-.3l-.6.3h-.6l-.6.3-.3.3H50l-.6.3-.6.3h-1.2l-.3.3h-1.8l-1.2.3H41.1l-.3.3H39l-.6.3h-.3l-.3.3H28l-.9-.3-.6-.3h-1.2l-.3-.3h-1.5l-.3-.3h-.9l-.6-.3-.6-.3h-.6l-.9-.3-.3-.3-.6-.3-.8-.3H17l-.9-.3-.3-.3h-.6l-.9-.3v-.3h-.6l-.3-.3h-.3l-.3-.3-.3-.2h-.3l-.3-.3-.3-.3H11l-.3-.3v-.3l-.3-.3h-.3v-.3l-.3-.3-.3-.3-.3-.3-.3-.3-.6-.3-.3-.3-.3-.3-.3-.3h-.3l-.3-.3h-.3l-.3-.3-.2-.3v-.3l-.3-.3h-.3v-.6h-.3v-.3l-.3-.3v-.3l-.3-.3-.3-.3-.3-.3-.3-.3-.3-.3V82.4H3l-.3-.3V81l-.3-.3v-.6l-.3-.3v2.4-.6h-.3V81h-.3V80.1h-.3v-2.4H.9l-.3-.3v-1.8l-.3-.3V74.4l-.3-.3V64l.3-.3v-1.8l.3-.3v-1.5l.3-.3h.3V57.1l.3-.3.3-.3v-1.1l.3-.3.3-.3.3-.3v-.3l.3-.3v-1.5l.3-.3v-.3l.3-.3v-.6l.3-.3.3-.3.3-.3.3-.3v-.3h.3v-.6l.3-.3.3-.3H6l.3-.3.3-.3.3-.3.2-.3.3-.3H8l.3-.3.3-.3h.3v-.3l.3-.3h.3v-.3l.6-.3.3-.3.6-.3h.6l.3-.3.6-.3.6-.3h1.5l.3-.3H15.8l.6-.3h1.5l.6-.3H20l.3-.3h.6l.3-.3h.3l.3-.3h5.7v-9.2h-1.2v-1.2H26V11.9h-3.3l-.7.3h-.3l-.9-.3h-.3l-.9-.3-.3-.3-.3-.3v-.3l-.3-.3v-.6h.3v-.6l.3-.3.3-.3H20.5V7.1l.3-.3v-.3l.3-.3V6l.3-.3h3.3v-.3h.3l.3-.3h.3v-.6h22V.3l.3-.3h3.9V.9h.3V1.8l.3.3v.3l-.3.3v1.5h.6l.3.3.3.3v.3h.3v.3h.3v.3l.3.3v1.5l.3.3v.5l.3.3v.3l.3.3.3.3v.3h.3v.6l.3.3V11.6l.3.3v.6l.3.3.3.3V14l.3.3v.3l.3.3V15.8l.3.3h.2v.3l.3.3v.6l.3.3v.3l.3.3v.3l.3.3v.2l.9 1.2M3.9 63.4v-.6.3l-.3.3V64.3l.3-.3v-.6"/></symbol><symbol viewBox="0 0 100 75.9" id="i-hkp2000"><path d="M97.3 1.9l1.2.7c.7.5 1 1 1 1.4l.5 8.7v8.9l-.7 2.2-1.4 1-24.6.2-1.4.5c-1 .2-1.7 1-1.9 1.7-.2.7-.2 1.9-.2 3.9l.5 4.3.5 3.1c0 .5-.5 1-1.2 1l-5.1.7-8.8.8-16.4-.5c-5.3 14-8 21.2-8 22.2l.7 9.2 2.9 1.9c.5.2.7.5.7 1l-.2.5-1 .5-2.9.2L.7 69.6c-1-.2-1-2.9 0-8l2.9-9.4c1.4-4.1 2.9-7.5 4.3-9.9l3.1-8.2c1-2.9 1.4-5.1 1.2-6.3-.2-1-1.2-1.9-3.4-3.1l-4.6-1.9-1.9-1.2-1.2-1.2c-.1-.2-.1-1.1-.1-2.6v-3.1c0-2.2.2-3.4.5-3.9L5.1 5l2.2-2.4c.7-.7 1.4-1 1.9-1h1.9l1.2-.2 1-1.4 3.6.2.5 1.4h33.3v1h14.2v-1l32.4.3M52.8 26.5c-.5 1.4-.2 2.9.5 3.9l2.4 3.4c.7.5 1.4 1 2.4 1 .7 0 1.2.2 1 .7 0 .5-.5.7-1 .7h-1.4l-2.9-1.7c-1.7-1.4-2.7-2.7-3.4-3.6l-.5-4.1h-2.2c-1.2 0-2.4.5-3.4 1.4-.7 1-1.2 2.2-1.2 3.4V35c.2 1 1 1.7 2.4 2.4 2.2.7 4.1 1.2 6 1l5.3-.7h3.6l3.4.2 2.2-.2 1-1 .2-3.9c0-1.9-.5-3.4-1-4.6l-1.7-1.4-1-.2v.2l-10.7-.3"/></symbol><symbol viewBox="0 0 44.1 100" id="i-incgrenade"><path d="M34.4 2.6v.3h.3V3.8h.3v.6h.3v1.2h.3v.6h.3V7h.3v.6h.3V8.5l.3.3v.3l.2.3.3.3v1.2h.3V11.8h.3v.5l.3.3V13.5h.3v.5h.3v1.2h.3v.6h.3V16.7l.3.3.3.3v1.2h.3v.3l.3.3v.3l.3.3v.3l.3.3v.3h.3v.3l.6.6v2.3l.3.3v.3h.3v.6h.3l.3.3v.3l.6.6v1.2h.3V85.8h-.3l-.4.2h-.6v.3h-2V84l.3-.3h.3v-.3h.3V81v1.2V31.2h-.6v-.5h-.3v-.6h-.3V29.2h-.3l-.3-.3v-.6l-.3-.3h-.3v-.6l-.6-.3V26.2h-.3V26h-.3v-.3l-.3-.3v-.6h-.3v-.3l-.3-.5v-.3H37V95h-.6l-.6.6h-.3c-2.3 1.2-4.4 2-6.7 2.6l-7 1.5-5.8.3-5-.9c-3.2-.6-5.6-1.5-7.3-2.6l-2-.9L.5 95H.2V23.7c-.3-.9-.3-1.8.3-2.6l.3-.3h.9v-.3l1.8-.3 3.5-.3 2.3-.3h1.5v-2l.6-.9.3-.6v-7h-.3l-1.6-.3h-2v-2h.3v-.4h.3V5.3L9 3.8l1.5-1.2h17.3l.9.3v.6c.6-1.2 1.5-2.3 2.3-2.9V0h2.1v2h1.2v.6M15.1 32.2c-2.3 2-4.1 4.7-5.6 7.6-2 4.1-2.9 8.5-2.9 12.9 0 3.2.3 6.1 1.2 8.8.9 3.5 2.9 5.8 5.8 7.3 1.5.9 2.9 1.2 4.4 1.5-2.9-1.8-4.4-4.7-4.4-8.8-.3-2.9.9-5.8 3.2-8.2l1.2-.9c-1.2 2.9 0 6.1 3.5 9.4 1.8 1.8 2.9 3.5 3.8 5.6.3 1.2.3 1.8-.3 2.3 1.2.6 2.6 0 4.1-1.5 2-1.2 3.2-3.5 3.8-6.7.6-3.8 0-7.6-1.8-11.1l-4.4-6.7c-2-2.3-3.5-5.3-4.4-8.8s-.3-6.7 1.5-9.1l-8.7 6.4m21.1 42.7v-.3l-16.4 1.8-17.3-1.8V79.9L20 82.2l16.1-2V74.9m-10.5-4.7h.9-.9m-9 .6h-1.2 1.2"/></symbol><symbol viewBox="0 0 100 22.4" id="i-knife"><path d="M96.9 7.8l3.1-.4-2.1 2.7c-1.7 2-3.2 3.3-4.5 4.2-2.3 1.5-5.2 2.6-8.6 3.3l-10.7.9H55.3l-.4-.1-.3-.7-.4-1c-.3-.6-.7-1-1.3-1.4-.6-.4-1.3-.6-2.1-.7-.9 0-1.7.2-2.5.5-1 .5-1.8 1.4-2.5 2.4l-.6 1.4c-.2.9 0 1.4.5 1.6l.6.2.5.3c.3.4.3.8.1 1.1-.2.3-.6.4-1.1.3-.7-.1-1.3-.3-1.9-.9-.8-.6-1.1-1.4-1.1-2.2v-3.1l-.1-.8-.4-.3-5.6.9-12.4.8-12.4-.6-6.4-.6c-.6 0-1.2.3-1.7.9L3 17.9c-.2.3-.4.4-.8.5-.3 0-.5-.2-.8-.5-.3-.3-.3-1.9-.3-4.5l-.8-.9c-.1-.5-.3-.9-.3-1.3s.1-.9.3-1.3c.2-.3.5-.7.8-.9.1-2.5.2-3.9.3-4.3.3-.3.6-.5.8-.4.3 0 .6.2.8.4L3.9 6c.5.6 1 1 1.7 1l6.4-.6 12.4-.7 12.4.8 5.6.9.3-.4.1-.7V3.1c0-.9.3-1.6 1.1-2.2.6-.5 1.2-.8 1.9-.9.5-.1.9.1 1.1.3.1.3.1.7-.1 1.1l-.5.3-.6.2c-.4.2-.6.7-.5 1.5.1.8.3 1.5.7 1.9l.4.5V7H58l5.9.3 7.7.7 15.5.7 9.8-.9"/></symbol><symbol viewBox="0 0 100 22.9" id="i-knife_ct"><path d="M66 6.8h14.4l8 .8c5.7.9 9.6 2.1 11.6 3.8-2.2 1.9-5.8 3.2-10.9 4l-8.3.6H66.1c-.1-.6-.2-.8-.5-.8-.2 0-.3.2-.4.8h-.1c-.1-.6-.2-.8-.4-.8s-.4.2-.5.8h-.4c-.2-.6-.5-.8-.9-.8s-.7.2-.9.8h-.4c-.1-.6-.2-.8-.5-.8-.2 0-.3.2-.4.8h-.1c-.1-.6-.2-.8-.4-.8s-.4.2-.5.8h-.4c-.2-.6-.5-.8-.9-.8s-.7.2-.9.8h-.4c-.2-.6-.3-.8-.5-.8s-.4.2-.5.8c-.1-.6-.2-.8-.5-.8-.2 0-.3.2-.5.8h-.4c-.2-.6-.5-.8-.9-.8-.5 0-.8.2-.9.8h-.4c-.1-.6-.2-.8-.5-.8-.2 0-.3.2-.4.8h-.1c-.1-.6-.2-.8-.4-.8s-.4.2-.5.8h-3.5c-.4-.2-.7-.3-1-.3-.5.2-.9.4-1.1.5l-.7.1v.6L42.1 23l-2.4-.6c.4-.6.6-1.2.7-2 .2-1.5-.6-2.7-2.2-3.6-3-.4-5.3-.3-7 .1-.6.2-4.4.3-11 .2-7-.1-10.7-.4-11.2-.8h-.8l-.3.2c-1.7 1.5-2.7 2.3-3.2 2.3-1.7 0-2.8-.7-3.5-2.3-.4-1.1-.6-2.3-.7-3.8-.3 0-.5-.3-.5-.9 0-.6.2-1 .5-1h.1c.1-1.7.4-2.8 1-3.4.6-.8 1.1-1.3 1.6-1.4l1.6-.2c.6 0 1.1.2 1.6.4l1.3.8 6-.6 9.4-.4 14.1.5c1.9-.4 3.3-1.1 4.1-1.9s1.4-2.3 1.9-4.5l2.3.5.1 1.3-1.1 2.9-.1 2 .7.2 1.1.3 1.2-.5h3.2c.1.6.2.8.5.8.2 0 .3-.2.4-.8h.1c.1.6.2.8.4.8l.5-.8h.4c.2.6.6.8.9.8.3 0 .6-.2.9-.8h.4c.1.6.2.8.4.8l.5-.8c.2.6.3.8.5.8s.3-.2.4-.8h.4c.2.6.6.8.9.8.4 0 .7-.2.9-.8h.4c.2.6.3.8.5.8s.3-.2.4-.8h.1c.1.6.2.8.4.8s.4-.2.5-.8h.4c.2.6.5.8.9.8s.7-.2.9-.8h.4c.1.6.2.8.5.8.2 0 .3-.2.4-.8h.1c.1.6.2.8.4.8.4 0 .5-.2.6-.8"/></symbol><symbol viewBox="0 0 100 28.6" id="i-m249"><path d="M56.9 1.3h1l.4.1c.1.1.2.2.4.3h.3l.1.1h1l.5.2.4.2.3.1h.2l.3.1h.7l.5.5.4.1.2.1h.1l.3.6.2.6.1.6v.5l-.1.6c-.2.7-.4 1-.6 1.2l-.3.4-.1.1H63h10V8l.2.4 1.6.3 1.6.4 1.4.3.7.1c.2 0 .4-.2.4-.7l.1-.5.7-1.5v-.4l.1-.6.2-.9h1.2V9l-.1.3v.1l.3.1 1.3.1h7.1l3.9-.1h3.7l.8-.1h1.1c.1 0 .3 0 .3.1l.3 1.8-.3.3-1 .1-1.9-.1-1.8-.1-1-.1H81.6l-.4.1v.5h1.7l.6.7v1.7h-.7l-.3-.1-.1-.1-.1-.1-.3.1h-.4l-.6.1-6 .2-2.2.2-1 .1-.4.7c-.2.3-.6.5-1 .5s-.8-.3-1.4-1l-.4-.1-.6-.1.1 1v1.5l-.2.4h-.6l-.6-.2H56.4l.1.4c.3 1.1.4 2.1.4 2.7v7l-.2 1-.5-.1H48l-.7-.1c-.1-.1-.2-.3-.2-.6L47 15.7l.1-.3c-.1-.1-.2-.3-.4-.3h-.1l-.3.3c-.1 0-.1.1-.1.3l.1.4.1.3-.4.4-.3.1.1.5v.6l-.1 1-.8.7-1.2.4h-1.3l-1-.1-.4-.2-.3-.1-.4-.2-.3.8-.7 1.7-.7 1.6-.3.8.2.4v.4l-.2.4-.4.6c-.3.2-.8.2-1.6 0l-1.3-.4-1.2-.5-1.3-.5h-.3l.1-.2 1-1.8 1.1-1.9.9-1.5.4-.7-.1-.7c-.1-.4-.3-.6-.6-.7l-.4-.3-.4-.2-7.3-.8h-6.4l-4.1.4c-1.6.3-2.5.7-2.6 1.1-.1.2-.1.6-.1 1 .1.5.3 1 .6 1.4s.4.7.3.7l-.3.1-13.1.7c-.4 0-.7-.1-.8-.5-.3-.4-.4-.7-.4-1.3V8.8l.6-.4 2 .1 7.3 1c.4 0 .9.4 1.4 1 .5.6 1.1 1 1.6 1l2.2-.1 2.3-.4 4.2-1.1 3.1-1.3c1.6-.7 3.4-1 5.2-1l.4-.1 2.1-.3 1.6-.1v-.3l.4-1 .3-.7c.1-.2.4-.4.7-.4l1-.1 1.2.3 1.2.3 1 .4.2.3.2.3.1.6v.4h6v-.5h3.2v.4h2.3l1.1.1.6.1 1-.1 1.9-.1 2.7-.1 2.3-.3.4-.3.4-.4.3-.9-.7-.4-.4-.2-.4-.3-.8-.3-.9-.2h-.1l-.9-.2-.7-.1-.6-.3-.4-.4H54.8c-.2-.3-.4-.6-.4-.9-.1-.3.2-.8.6-1.7V0h.1l1.2.4.6.9M44.6 17.2H42c-.1.2-.2.4-.2.6 0 .3.1.6.3.7.2.2.4.3.8.3h1c.2 0 .4-.1.6-.3s.3-.4.3-.7l-.2-.6"/></symbol><symbol viewBox="0 0 100 25" id="i-m4a1"><path d="M100 9.1L81.7 9l-.1-.7h.4V8l-5.9-.1v-.1l-2.4.1-.5.1H69l.8.2v.7l-.2.2h-.9v.3H68V8.1h.2v-.2l-2.6-.1-.1.2-.1.6-.1.1-.3.2-.2-.1-.2-.1v-.5l-.1-.2H64v.9l-.2.1-.2.2h-.3l-.2.5H48.4l-.3-.2-.4-.1-.7.3-.1-1-.7.1v.7l-.1.2-.2.1h-.2c-.1 0-.2.1-.2.2l-.2.2-.1.2v3.4l.2.1.1.3-.5.2v1.2c.1 1 .2 1.8.3 2.7l.9 3.1.5 1.6.2.2-6.1 1.8h-.2v-.2l-.6-2.2-.9-3.5-.3-2.4-.1-1-.4.1-.6-.1H34l-1.3.1h-.2c-.2 0-.3 0-.4.1l-.2.2-.9 1.7.4.6-.1.1c-.2.1-.3.2-.6.2l-.3.2-.1.1-1.8 3.4v.3l.2.3.2.2-.2.4-5.6-1.4 5-8.8.2-.4.1-.7-.2-.7-.4-.6-.5-.2-1.3-.1v.2h-.4V8.6h-1l-.1-.4h-4l-1 .7-3.8.1v.4h-3.3v2.1h-2.3v.9H9v-.8l-3.8 2.3v-1.8L.5 14.3l-.1.7v.1l-.2.2-.2-.2V15L.1 4.4h4.2l.2.2.1.6 10.9.2.1.1.1.2 8.9.1-.1-.4h1V5h.3l.1.3 1-.1v-.5h1l.1.1L30.7.6l.1-.2.3-.2.4-.2h.2L45 1.4l.4.1.7.4.4.7.2.4-.1 2.6.2-.1.2-1 .8.2v-.4h.3v-.1l.1-.1.2-.1 14.8.2.2.3V5h.4l.1.1.1.2.1 1h.5l.1-1.6L67 1.2l.2-.2c.2-.2.3-.2.5-.2.4.1.7.2.9.5l.1.2v4.7h4.2l.6.2 2.4-.1v-.1h5.9V4.9h17.9l.1.1v3.8l.2.3M68.1 3.6l-.2-.2-.2-.5v-.4l-1-.1-1.4 2.2.2.2h2.7l.2-.2v-1h-.3M65.5 6h2.6l.1-.4h-2.7V6M45.4 2.1L34.2 2h-.3l-.4.2-.5.4-.2.2-.6 1.6.2.2 12.8-.1.2-.1.3-.2c.3-.2.5-.6.5-1s-.2-.7-.5-1l-.3-.1M3.9 9.5H.6l-.1.3.1.2.1.1h3l.1-.1.2-.2-.1-.3M.5 4.8v.4h3.8v-.3l-.1-.2-.1-.1-3.6.2m36.8 7.6l-.3-.1h-1.5l-.5.4c-.2.3-.3.6-.4 1 0 .3.1.6.3.9l.4.3-.1.1-.5-.4c-.3-.3-.6-.6-.6-1 0-.2 0-.5.2-.8l.2-.4-.7.2c-.5.3-.7.8-.6 1.4 0 .3.2.6.6 1l.5.4h3.6v-.5l.3-.5c.2-.4.1-.8-.1-1.2l-.8-.8"/></symbol><symbol viewBox="0 0 100 32.8" id="i-m4a4"><path d="M49.6 17.6c0-.4-.1-.8-.4-1-.3-.2-.5-.4-.9-.4h-2.5l-.2.6.3 1.1.1.7c-.2.1-.6-.2-1.1-1-.2-.2-.3-.5-.4-1V16l-.6.4c-.4.3-.5.7-.5 1 0 .5.2.9.4 1.3.3.4.7.6 1.1.6H48c.6 0 1-.2 1.3-.6l.3-1.1M87.4 4.4l-.3.6v.6l.3.6h2.3l.1-3h-1.9l-.5 1.2m5.2 5.8l-.3-.1-.1-.1h-1.6l-.6.9h-.8l-.3-.3-.2-.2h-3.1v.8c0 .2-.1.4-.4.6l-.8.4H60.6l-.5-.5-.2-.4-.6.9H59v5.7l.4.5-.4.4c-.2.1-.2.4-.2 1.1l.2 2 .1 1.8.5 1.7 1.4 4.5.3.2-.1.3-7.8 2.5c-.2 0-.3-.1-.4-.3V32l-.5-1.8c-.5-1.5-.8-3-1-4.3-.3-1.5-.4-2.9-.5-3.9l.1-1.4-.7-.2v-.7l-.6.6h-5.6l-.6.6-.4-.3-.1-.3-.4-.1c-.3 0-.5.2-.6.5l-.5.7-.4.5c-.1.2 0 .4.1.6l.3.6-.6.2c-.4.1-.7.3-.8.6l-1 2-.9 1.8.4.6c.2.3.2.5 0 .8l-4.3.2c-1-.1-1.8-.4-2.3-.7-.6-.3-.8-.7-.6-1.1l6.3-10.8c.2-.4.2-.9 0-1.6s-.5-1.1-.9-1.1l-.9.1-.6-.1c-.4-.2-.5-.4-.5-.8v-1.1-1.4h-.3l-.6-.3v-.3h-7.6l-.1.5c-.2.4-.5.8-.9 1.2l-1.2 1-.4.3-.8 1.7h-1.2l-.8 1.4h-2.9v-.8h-1.8l-4.2 3.2-.6.3c-.2 0-.3-.1-.4-.3v-.5l-7.9 5.1-.2.6-.5.7-.9-.1-.8-.4-.5-.4c-.2-.2-.3-.4-.3-.8v-15c0-.4.1-.8.5-1 .3-.3.8-.5 1.4-.5h24.6l.3.4.1.4H34v-.3l.6-.3h1.3V5.4l.3-.3 1.4-.3h3l1-1.5-.1-.5-.6-.3c-.4-.3-.6-.7-.6-1.2 0-.3.1-.6.4-.9s.6-.5 1-.5.8.1 1.1.5c.1.4.2.7.2 1v3h.6v-.8h1.9v1h13.9c.2 0 .4.1.6.3l.3.4c0 .2.3.1.6-.3h1.5l.1-.3c.1-.2.2-.3.4-.3h22c.2 0 .4.1.6.3l.2.3 1.1-1.4 1.4-1.9.3-.3 1.3-.3H91v6.3h1.5l.2-.3.4-.2H99c.3 0 .5.1.6.3.3.2.4.6.4 1v.5c0 .3-.1.6-.4.8l-.6.3h-6.4"/></symbol><symbol viewBox="0 0 100 70.1" id="i-mac10"><path d="M100 12.6v3.2l-1.3 1.3h-5.3l-.4.2h-.4v5.5H78.9v.8l.2.8v.8l-.4.2-.6.6.2 1.5.2 1.1h-5.9l-.8 1.7-1.3 2.3-1.9 2.3c-.8.6-1.7 1.1-2.7 1.1l-5.5.2c-2.1 0-3.8-.6-5.1-1.5l-.6-.4v18.9l-.8.2-.8.2V70H40.6V54.3l-.2-.2h-.2l-.2-.2h-7.2L31.4 52l2.3-10.7 1.7-7.6.8-3.4-1.9-3.8c-.6-1.1-1.3-1.7-1.7-1.9l-2.9-.2-4.2.2-.2.2-.6.4-.7.7-1.7-.2-.2-.4-.2-.2-.2-.2H11.6v7.8H11l-1.5.6H7.2l-1.3-.4-.8-.2H2.3l-.8-.4-1.3-1.7-.2-.9v-.8c0-1.1.2-2.3.8-3.4l.2-2.3v-3.8l.9-15.8L4.4.2V0l5.5.2 4 .4 4.2.2 3.2.2 1.7.2h1.9l3.8.6 3.6.6 1.9.2h.2v.2l.4.4v1.1l-1.5.8-2.1.2h-6.3L15 4.5h-.2v-.1 1.1h1.9l2.7.2 2.7.2 1.7.2h39.1v-.8l.3-1.3.2-1.7h.2l1.9-.2h4l1.3.2.8 1.1.8 1.7h10.5l.2-.8v-.9h.2l1.7-.6c.6-.2 1.3-.6 2.1-.6l1.7-.6h1.5l1.3 1.1.4.7v7.2l1.1.8H99l1 1.2m-43.2 20l1.9.6h8l1.7-.6.6-1.7v-1.3l-.6-1.6c-.4-.4-1.1-.6-1.7-.6h-8c-.6 0-1.3.2-1.9.6-.6.4-.8 1.1-.8 1.7V31c0 .6.2 1.2.8 1.6M8.2 6.1H6.9l-.2 1.1v1.5l.2 2.9.2 3.8 1.3-5.3 1.1-3.4-1.3-.6"/></symbol><symbol viewBox="0 0 100 35.2" id="i-mag7"><path d="M0 .2h.2V.1H25l.1-.1h.4l.1.1h55.1l.2.1.1.1.1.1.1.1v.1h.6v1.5h.1v.2l-.1.1V3h-.2v.1H82.2v.1l.1-.1H83.4l.1.1.1.1V4.2h15.6l.1.1.2.1.1.1.1.1V7.5l-.1.1v.1l.2.3v.1h-.1l-.1.1H92v.5h-.1v.1h-.1v.1l-.1.1h-7.1l-.1.1h-.2l-.3.3v.2h-.1v.1l-.1.1H83.2v.2h-2.1V11.2l-.6.1v.1l-.1.1-.1.1v.1l-.3.2v.1l-.1.1v.1l-.1.1v.1l-.1.1v.1l-.1.1v.4l-.1.1v.1h-.1v.2h-.1l-.3.2v.1l-.1.1-.1.1-.1.1-.1.1h-.1l-.1.1h-.2v.2h-.1l-.1.1-.4.1-.5.3h-.7l-.1.1h-2.9V15h-.7l-.1-.1h-.5l-.1-.1-.1-.1h-.2l-.1-.1v-.1l-.1-.1h-6.6v.1h-1v.1h-.4l-.1.1-.2.1-.1.1H63l-.4.1v.1h-.4l-.2.2-.1.1-.1.1v.1l-.1.1-.2.1-.2.2h-.1l-.2.1-.1.1v.1l-.1.1-.1.1-.1.1-.1.1v.1l-.2.2-.1.1v.1l-.1.1v.1l-.1.2v.1l-.1.1V18.1l-.1.1-.1.1v.1h-.1l-.1.1-.1.1v.1H58.8l-.2.3h-.7v.1H57.1L57 19h-.5v-.1h-.1l-.2-.1H56v-.1h-.5l-.1-.1v-.1l-.1-.1-.1-.1v-.7l-.1-.1-.1-.1v1.4V16.8h-.1v-.1h-9.1v.1h-.4V17.1l-.1.1-.1.1-.1.1v.1H45l-.1.1v.4l-.1.1-.1.1-.1.1-.1.1h-.1l-.4.2-.1.1-.1.1v.2l-.1.1-.1.1v.1h-.1l-.1.1-.1.1-.3.2-.1.1-.1.1-.1.1-.1.1h-.1l-.1.1v.1h-.2v.1l-.2.2-.1.1H41.6v.1H33.1l-.1-.1-.1-.1v-.2l.1-.1h-.2v.2l-.1.1v.2l-.4.2h-.1v.2h-.1v.4l-.1.1v.2h-.1v.1l-.1.1V22.4h-.1l-.1.1v.1l-.3.4-.1.1-.1.1V23.5H31v.2l-.1.3v.1l-.1.1v.2h-.1v.2l-.1.1V25l-.1.1v.1h-.1v.2h-.1v.1H30v.1l-.1.1v.3l-.1.1v.2h-.1v.1l-.1.1v.2h-.1v.2l-.1.1v.2l-.1.1h-.1v.1H29v.1h-.1v.1H29.2v.4h-.1v.2l-.1.2V28.7h-.1V29.6h-.1l-.1.1v.5h-.1v.2l-.1.1v.1h-.2l-.3.3h-.4l-.2.1h-.1l-.1.1v.1h-.1l-.1.1v.1l-.1.1V31.8h-.1v.4l-.1.1v.2l.1.1h.1v.5l-.1.1H26.5v.1h-.1v.1l-.1.1v.1H26v.4h-.6V34.3l.1.1h.1v.4h-.1v.2l-.2.1H13V34l.1-.1v-.1h.1V33h.1v-.2l.1-.1h.1v-.2h.1v-.1h.1V32.1l.1-.1v-.2l.1-.1v-.2h.1v-.1h.1v-.5l.1-.1v-.2l.1-.1v-.1l.1-.1v-.4l.1-.1v-.2h.1l.1-.1V29l.1-.1v-.1h.1v-.1l.1-.1v-.2l.1-.1V28h.1v-.1h.1V27.6l.1-.1v-.2l.1-.1v-.1l.1-.1v-.1l.1-.1v-.7h.1v-.4h.1v-.2h.1V25l.1-.1.1-.1.1-.1v-.2h.7v-.2h.1v-.5h.2v-.2l.1-.1v-.1l.1-.1V21.6h.1l.1-.1V21l.1-.1v-.1l.1-.1v-.2l.1-.1v-.5l.1-.1v-.1l.1-.1h.1v-.2l.1-.1v-.4l.1-.1v-.1l.1-.1.1-.1v-.2l.1-.1v-.1h.1V18h-.1v-.1h-.5l-.1-.1h-.7v-.1h-.7.2l-.1-.1h-.8v-.1h-.7l-.1-.5h-.7v-.1H14l-.1-.1H13v-.1h-.7l-.3-.1H11.4v-.1H11l-.1-.1H10.3v-.1H10l-.1-.1h-.4V16h-.4l-.1-.1h-.5v-.1H8.2l-.1-.1h-.5v-.1h-.2l-.1-.1h-.5l-.1-.1-.1-.1h-.3l-.1-.3-.1-.1h-.3l-.1-.1-.1-.1h-.4l-.1-.1-.1-.2h-.2v-.1h-.2l-.2-.1h-.1l-.1-.1V14l-.1-.1-.1-.1-.1-.1-.1-.1-.2-.1h-.3l-.1-.1v-.1l-.1-.3-.1-.1v-.1l-.1-.1-.2-.1h-.2l-.1-.1-.1-.1-.1-.1h-.5v-.4l-.1-.1-.1-.1-.1-.1-.1-.1-.1-.1-.2-.2-.1-.1-.2-.1H.6l-.1-.1v-.2l-.1-.1v-.1l-.1-.1v-.1H.1V6.7l.1-.1V5.5l.1-.1v-.2l.1-.1.2-.1v-.2l.1-.1.1-.1v-.2H1v-.1l.1-.1v-.4l.1-.1V2.9l.1-.1V1.7l.1-.1v-.4l.1-.1V.8h.1l.1-.1V.6l.1-.1L0 .2m41.7 15.5h-5.5V16.8l.1.1v.2l.1.1.1.1.1.1h.1l.1.1v.1l.2.1h2.6v-.1h.1l.1-.1h.1l.4-.1.1-.1.1-.1v-.1l.1-.1.1-.1.1-.1v-.1l.1-.1V16.3l.1-.1.1-.1h.1l-.1-.1.6-.3m-7.5 1.1v-.1.1l-.1.1-.1.1v.1h-.1v.1h-.1v.2l-.1.1-.1.1v.5h1.3v-.2h-.1l-.1-.1v-.2l-.1-.1v-.7"/></symbol><symbol viewBox="0 0 68.4 100" id="i-molotov"><path fill-opacity=".6" d="M58.7 11.3l1.7 2.2c.6.8 1.1 1.1 1.4.8.3-.3 0-1.4-1.1-3-1.1-1.9-1.1-3.9.6-6.1.3.8 1.4 2.2 3.3 4.1 1.9 1.9 3.3 3.9 3.9 5.8v2.8l-1.1 3.3-1.4 2.5c-.3.6 0 1.4.8 2.5.6.8.6 2.2-.6 3.9l-4.4 5.2c-1.4 1.4-3.3 2.2-5.8 2.5l1.9-3.3.8-.3 4.1-5.5L62 27l-2.8-2.8c-1.1-.8-2.2-1.4-3.3-1.7l-1.9-.3-4.1 5.8v.8L45.8 34l-.3-.3-2.2-4.1c-.8-2.5-.8-4.4-.3-6.1l1.7-3c.6-1.4.6-3 0-5.2l1.7.6c1.1.6 2.2 1.7 2.5 3l.6 3.6v1.7l2.2-4.4c0-.8-.6-2.5-1.7-4.4l-3-3.9c-.6-.8-.8-2.8-.8-5.8s.6-5.2 1.4-5.8c.3 1.9 1.1 3.6 2.5 5.2.8.8 2.8 1.7 5.8 2.5 1.4.3 2.2 1.1 2.5 2.5l.3 1.2"/><path d="M56.1 22.6c1.1.3 2.2 1.1 3.3 1.7l2.8 2.8.8 1.7-4.1 5.5-.8.3L49 49c-.3.6-.8 3-1.1 7.7-.6 4.4-1.7 7.7-3 9.6l-24 33.6h-5c-2.8-.8-5.5-1.9-8-3.9s-4.7-3.9-6.3-6.3C.2 87.5-.3 85.8.2 85l24-33.9c1.4-1.9 4.1-3.9 8.3-5.8l4.1-1.9 2.5-1.7 11-13.2v-.8l4.1-5.8 1.9.7"/></symbol><symbol viewBox="0 0 100 61.7" id="i-mp7"><path d="M55.4 19.3v-.7H48V19.2l.2.2v.2l.4.2.2.2.2.2v.2h.2v.4h.2v.2l.2.2v.2l.2.2v.2l.2.2v.2l.2.2v.2l.2.2h.2l.2.2h2.6l.2-.2h.2v-.2l.2-.2h.4v-.8h.2v-.2l.2-.2V21l.2-.2v-.2h.2l.2-.2v-1m35.8-8.5h8.3l.6.6v5l-.6.6h-7.7v.2h-1.1v.2l-.2.2h-.2v.2l.2.2V18v1l-.2.2V19.8h-.2v.2l-.4.2-.4-.2-.2-.2H88.8v-.2l-.2-.2v-.2l-.2-.2-.2-.2v-.2H88l-.2-.2-.2-.2V18h-.2v-.2l-.2-.2-.2-.2-.2-.2V17h-.2l-.4-.2H86l-.2.2v.2l-.2.2-.4.4-.5.2h-.2v.2l-.2.2h-.2l-.1.2-.2.2v.4h-.2V42.8l-.2.2v.2h-2.1l-.3-.3-.2-.2H80.2v-.2H79.6v-.2H79l-.2-.2H78l-.1-.1h-.2l-.2-.2-.4-.2-.1-.2-.4-.2V41h-.2v-.2l-.2-.2v-.2H76l-.2-.2V40h-.1v-.2h-.2v-.4l-.2-.2v-.4l-.2-.2V33.8l.2-.2V31.8l.2-.2V26.4v.2V18.8H60.8h.2V20.6l-.2.2V21.4l-.4.2h-.2l-.2.1v.2l-.2.2-.2.2v.2l-.2.2V23l-.2.2v1.4H59l-.2.2v.8l-.2.2v.2l-.2.2h-.2l-.9.2H54.1v.2H54l-6.6.2h-1l-.2.2v.2H46V37l.2.2.2.2V39.6l.2.2V41.6l-.2.2-.2.2v.2l-.2.2v.2l-.2.2V44.4h.2l.2.2V47.4l.2.2v1h.2v.8l.2.2v1.2h.2v1l.2.2.2.2v.8l.2.2V55l.2.2v.2l.2.2V56.2h.2v.2l.2.2V57.2l.2.2h.2V58H49.4l.2.2V60.2l.2.2v.4l-.4.2v.2H45l-.2.2h-4.5l-.4-.2H37l-.2-.2-.2-.2-.2-.2v-.4 1.5l-.2-.2v-.2l-.2-.2v-.7l-.2-.2v-.4h-.2v-.2l-.2-.2V58l-.2-.2V57.2L35 57v-1.2l-.2-.2v-.8l-.2-.2v-1l-.2-.2V51h-.2v-1l-.2-.2V49.2h-.2V47.6l-.2-.2V42h-1.4l-.2-.2-.2-.2v-.8l-.2-.2v-1.2l-.2-.2V32.2l.2-.2V30.2h.2v-1h.2V28.6l.2-.2V28h.2V27.4l.2-.2V27h.2v-.8l.2-.2h.2V23.6l.2-.2v-1.2h-.2v-1h-.4v.2l-.2.2-.2.2h-.2l-.2.1h-.2l-.4-.2H31l-6.3.2-.2.2v.2h-.2l-.4-.2v-.2l-.2-.2v-.2h-.2v-.2l-.2-.2H10.8l-.1-.1-.2-.2V20.2h-.4l-.2-.2v-1.2h-.1l-.2.2v1.4l-.2.2V21.2l-.2.2v1.2l-.2.1V23.8l-.2.2-.4.4V25h-.1v.4l-.2.2-.2.4v.8l-.2.2-.2.4-.2.2v.2l-.1.2-.2.4V29l-.2.2v.2l-.2.4h-.2v.2h-.1v.4l-.2.2-.2.2h-.2v.2l-.2.2v.2h-.2v.2h-.1l-.2.1v.2H3.9l-.8.1h-.5l-.9-.2h-.6l-.6-.2H.2v-.2l-.2-.1v-1.7.7V26.4v.2V7.9l.2-.2.2-.2.2-.2v-.1L.7 7v-.2h.2v-.2h.2l.4-.2H2v-.1h1v-.2h.2l.4.2v.2h.2v.2h5V6.1l-.3-.2V4.8l.2-.2v-.4l.2-.2.1-.1h.2l.4-.2h.2V2.6l.2-.2.2-.2.1-.2H12l.4.2v.2H13v.2l.6-.2h.4l.4-.2h.2l.2.2V2h.2l.2-.2v-.1l.2-.2h.2V.9h.2V.7h.2l.2-.2.4-.2H17.2V.2H82.6l-.3-.2h.4l.4.2h.4l.2.2.3.2.2.2V1l.2.2.2.2v.4l.2.2h.1l.2.2.2.2h.4l.2.2h1.7l.2-.2h.2l.4.2h.2l.4.2h.2l.2.2.4.2.4.2v.2h.2v1l.2.4.2.4V6l-.2.2h.4v.1l.2.2v.2h.2v.2l-.2.1v1l.2.4.2.2v.8l.4.2v.2l.4.2v.4h-1.1M45.7 21.9v-.4h-.2v-.4l-.2-.1v1.2l.2.2V23l.2.2h1.5-.2l-.2-.2-.2-.2-.2-.2v-.2l-.2-.2-.5-.3"/></symbol><symbol viewBox="0 0 100 39.1" id="i-mp9"><path d="M44 .6l.1-.1V0h.7v.1l.7.1v.1l.1.1v.1h.1v.1l.1.1.2.2.1.1.1.1.5.1v.1h.1v.1h42.4l.3.1.1.1.1.1.1.1V2.1h.2l.1.1.6 2.1c.3 1.4.7 2.1 1 2.1h1.7l.3-.1H96l.3.1H99l.2.1.1.1h.7l-.1 5.5V12.4l-.2.2h-5.5l2.3 5V20H94l-2.2-4-1.8.1h-.7v.1l-.1.1V16.6l-.2.3V20.1l.1.1v1.1l.1.1.1.1.1.1V22.7l.1.2v.5l.1.1v.6l.1.1V24.5l.1.2.1.1v.6l.1.1v.1l.1.1v.4l.1.1v.8l.1.1V27.4l.1.1v.1l.1.1v.5l.1.1V28.6l.1.1V29.3l.1.1v.4l.1.1.1.1.1.1V30.4l.1.1v.5l.1.2V35.5l-.1.2V36l-.1.1-.3.1h-.3l-.1.1H90l-.1.1-.2.1H88.1l-.3.1h-1.9l-.1.1h-.2l-1.1.1h-.1l-.6.2-.3-.1H83l-.2-.2-.1-.1-.1-.2V36l-.1-.2h-.1V35.5l-.1-.2-.1-.1-.2-.2V34.7v1.6l-.1-.3-.1-.1v-.4l-.1-.1v-.2l-.1-.2v-.6l-.1-.2h-.1l-.1-.2-.1-.1-.2-.5v-.5l-.1-.1v-.5l-.1-.1-.2-.2v-1.1l-.1-.1V28.6l-.1-.1-.1-.2V26l-.1-.1V23.5l-.2-.3-.1-.1V20.7h-.1l-.1-.1V20l-.1-.1-.1-.1V19.5l-.1-.1-.1-.1-.4-.3-.1-.1v-.1h-1.5l-.1.1-.5.1-.2.1v.2l-.1.1-.1.1-.1.1-.2.2-.1.2-.1.1-.1.1-.1.1v.1l-.3.1-.1.1H75l-.1.1-.1.1-.1.2-.1.1-.3.1-.1.1-.2.1-.2.1-.1.1-.1.1-.1.1-.2.2-.3.1-.2.1-.1.1s-.1 0-.1.1l-.3.1-.5.1-.2.1-.2.1-.4.3h-.8l-1 .1-.3.1h-2.4l-.3-.1-.6-.1h-.3l-.3-.2-.1-.1-.1-.1-.1-.1-.3-.1-.1-.1-.1-.1-.2-.1v.2l-.1.1v.1l-.1.1v.1l-.1.1v.1l-.1.1V23.4h-.1v.2l-.1.1v.5l-.1.1-.3.4v.5l-.1.2v.1l-.1.2v.4l-.1.1-.1.1V27.3l-.1.1-.1.1v1.2l-.1.1v.7l-.3.2V37.6l-.1.4-.1.1h-.2V39.1h-10V38.3v.3H49l-.2-.2-.1-.1v-.5l-.1-.1-.1-.2V30l.2-.2V29l.1-.1V28.6l.1-.1V27.6l.1-.1.1-.1.1-.1h.1V27l.1-.2v-.4l.1-.1v-.2l.1-.1.1-.1.1-.1v-.6l.1-.1.1-.1.1-.1.1-.1v-.1l.1-.1V23.7l.1-.1v-.1l.1-.1.1-.1.1-.1.1-.1v-.2l.1-.1.1-.1v-.2l.1-.1.1-.1.1-.1V19.4l-.1-.1-.1-.3-.1-.1-.1-.1-.1-.1v-.1l-.1-.1-.1-.1-.1-.1h-.1V18l-.1-.1-.1-.2v-.1l-.2-.2-.1-.1H34l-.1.2H33l-.2-.1-.1-.1-.1-.1v-.1l-.1-.1-.1-.1-.1-.1V12h-1l-.3-.1-.1-.1h-.1l-.3-.1-.1-.2-.4-.1v-.2H3.6v1l-.1.1V13.1h.1l-.1.1-1 11.2v.2l-.1.1-.5 1.7-1.9.2V7.7h.4l.1.1.1.1V8h3.1l.1.1H34.6V2.4l.1-.1.1-.1h.2l.1-.1.1-.1h7.5v-.7h.3V.7l1-.1m24.3 20.2c-.9-.9-1.5-2.1-1.6-3.3l-.5.3c-.5.5-.9 1-1.1 1.7l.1.1c1 1 2.2 1.6 3.6 1.6l-.5-.4m6.4-2.8l-.2-.2c-1.1-1.1-2.4-1.7-4-1.7l-1.7.3-.1 1.1c0 1.4.5 2.6 1.4 3.8 1.4-.1 2.5-.7 3.4-1.6l1.2-1.7M49.5 36.9"/></symbol><symbol viewBox="0 0 100 38.7" id="i-negev"><path d="M99 10.6l.4.1.4.1.1.1.2.1v.2l.2.1v.1h.1v.1h.1v1.2l-.1.1-.1.1h-.2.1v.2h-.1l-.1.1h-.1v.1H96.6l-.1.1H96.2l-24.5.1h-.1V14.4l-.1.1V15.6h.1l.1.1H72v.4h.1v.4h.1l-.1.1V20.2h-.8V23.2H71.6v.1l.1.1v.2h.1V37h.1V37.3h-.6l-.1.1-.1.1V39.6h.2v.2h-1.8v-.2h.2v-.4 1.3V38.8h-.1l-.1-.1h-.1l-.1-.1-.1-.1V38H69V24.5h.1V24l.1-.1.1-.1V21h-.5l-.1-.1v-.6l.1-.1v-.1h-.1v-.2h.1V19l-.1-.1v-.4h.1-.1v-.1l-.2-.1-.1-.1V17.9l-.1-.1v-.2l-.1-.1h-.1v.4l-.1.1v.1h-.1l-.5.1h-.1v.4H67v.1l-.1.1h-.5v.1h-.1l-.2-.1h-.2l-.1.1h-1.1l-.8.1h-.4v-.1h-.1l-.1-.1-.1-.1H63V18H50.1V18.8h.2l.1.1.1.1V19.8l.1.1.1.2.1.1.1.1H51.2v.1h.1V34.5l-.1.1v.7h-.1l-.1.1H40.3l-.1-.1H40v-.1l-.1-.1H39.6V34v.6V22.2h-.1V20.4h.1V20.1l.1-.1.1-.1.1-.1h.1V19h.1-2.2V20l.1.1.1.1.1.1V21l-.1.1v.1l-.1.2-.1.1h-.1l-.6.1H36l-1.5 6.6h-.2l-.1.1-.2.1-.2-.1h-.1v.1H31.4l-.4-.1-.4-.1H30l-.1-.2-.1-.1h-.1l-.1-.1v-.1h-.1v-.1l-.1-.1v-.2l-.1-.1v-.4l.1-.1v-.4h.1v-.4l1.5-4.8-.2-.1v-.1l-.1-.1v-.1l-.1-.1h-.1v-.1l-.1-.1h-.1l-.1-.1-.2-.2h-.5l-.1-.1-.2-.1h-.1l-.1-.2h-.1v-.1h-.2l-.1-.1-.1-.1-.1-.1-.1-.1V19l-.3-.1v-.1l-.1-.1-.1-.1v-.4h-.1V17h-.5v-.1H27l-.1-.1V16.5H20v-.1H19.7l-.1-.1h-.1v-.1l-.2-.2v-.6H16.1l-.2-.1-.1.1-.4.1H15.1v.1l-.1.2-8.2 6.3h-.6l-.2.2v.4l-.2.3-.2.1h-.2v.1h-.1l-.1.1v.1l-.2.1v.1H4.7l-.1.1H3.5l-.1-.1h-.3l-.2-.1v-.1l-.1-.1h-.1l-.1-.1-.1-.1-.2-.1v-.2l-.1-.1-.1-.1v-.5l-.1-.3v-.4l-.1-.1V21l-.1-.1v-.6l-.1-.1V20l-.1-.1V19l-.1-.1V18.6l-.1-.1v-.1l-.1-.1v-.6H1V17l-.1-.1v-.5l-.1-.1V15.4H.7v-1.1l-.1-.1V12.4l.1-.1V12l.1-.1v-.2h.1v-.2H1v-.1l.1-.1h.2l.3-.3h.2l.2-.1h.5l.2.1.3-.1h12.1l.2-.1.2-.1.1-.1h7.6V10h.2V9.7l.1-.1.2-.1h.3v-.1l.1-.1h.7v.1l.2-.1v-.5h.1v-.7H25l-.1-.1v-.6l.1-.1v-.2l.1-.1h.2v-.1H25.6l.1-.1h.3v-.5h.1l.1-.1v-.1h.2V6h.7l.1.1h.1v.1l.1.1.1.1v.1h.8l.1.1h.1l.1.1V7l.4.1.1.1h3.2v-.1h.1l.1.1h.1v-.1l.1.1.3.2h.1V7.7h.4v.7l.1.1V8.8l.2.2V9.3h4.6l.1-.1H38.8V9l.1-.1h.1l.1-.1.1-.1.1-.1h.1v-.2h.4l.2.2.1.1v.1l.4-.2.4-.1h.4v-.2l.5.1.1.1v-.1l.4-.1h2.8l.4.1.1.2H50.3l.1.1.1.1h.1l.1-.1v-.1h.4l.1.1V9h.1l.1-.1h.2l.3.1h2.3v-.2l.1-.1.1-.1v-.2h1l.1-.1.1-.1h.4l.2-.1h.4V8l.1-.1.1-.1H57.1l.1-.1H57.5v-.4h-.1v-.2l-4.6-1.6-.2-.2V5h-.1l-.1-.1H52l-.4-.1h-.8l-.1-.1-.1-.1-.1-.1-.1-.1h-.2l-.2-.2v-.1l-.1-.1v-.1h-.1l-.1-.1h-.1l-.1-.1-.1-.1V2.3h.1l.1-.1h.1l.2-.4.4-.1.4.1.4.2-.1.5H51.3l.1.1H52v.1l.1-.1c.1-.1.2-.1.4-.1h.2l6.1 1.6c.1 0 .2.1.4.2v.1l.1.1h.1l.1.1v.1l.1.1h.1V5h.1v-.1h.2v-.1l.1.1h.1l.2.1V8.8l-.1.2-.1.1H59.9v.1h-2v.1h-.1v.1h-.1l-.4.1v.6H66v-.6l.1-.1h.1l.2-.1h.1v-.2h.1V8.1h-.1V8l.1-.1v-.2l.1-.1v-.1H67v-.1l.1-.1v-.2l.1-.1v-.1h.1v-.1h.1l.1-.1H68.3v-.1h.2l.1.1h.4v-.1l.2.1h.1V7.6h.1l.2.1.2.3v.1h.1v1.5h.2l.1.1v.3h.1v.2H99M71.6 20.5v-.1.1m-2-11.9V8.9 8.6M58 7.1v.1V7v.1m-3.3 2.2h-.4.4m-42.5 4.5l.1-.1h.1-9.7v.6l.1.1.1.2v.8l.1.3.1.1h.4l.2.4.9 2.6 1.5-1.2.4-.1.2.2.1-.1.2-.1.1-.1.1-.1v-.1l.4-.2.1-.1h.1l.2-.1h.1l.1-.1.1-.1.1-.1.1-.1.1-.1h.2v-.1H9l.1-.2v-.1l.1-.1.1-.1.1-.1.1-.1.1-.1.1-.1.3-.3h.1l.2-.1v-.1l.1-.1v-.1h.1l.1-.1h.1l.1-.1.1-.1h.1l.1-.1h.2l.9-.4"/></symbol><symbol viewBox="0 0 100 22.3" id="i-nova"><path d="M97.5 1.1h1.9l.1.1v-.1h.1l.2.1.1.1v.1l.1.1v.1l-.1.1v.1h.1v.4l.1.1v.4l-.1.1v.6h-.5v.1l.1.1.1.1v.1h-9.4l-.1.1-.5.1H88.3v.1h-.5l-.1.1v.1l-.1.1v.5h.2V6.5h-.4v.2h-1v.2l-.1.1v.1h-.2l-.1.1h-.1l.1.5H85.7l-.7.1v.1l-.7.1-.1.1-1.9.1-.1.1h-1.5l-.1.1H70v.1l-1.7.1v.1l-1.7.1-.1.2-1.4.1-.1.1-1.3.1v.1l-1.4.1v.1l-1.4.1-.1.1-1.7.2H56.8l-1.2-.1-.1-.1-.4-.1-.4-.1v-.1l-.2-.1-.4-.1v-.1H54l-.1-.2-.1-.1-.1-.1-.3-.1-.1-.1-.1-.1-7.6.1v.1h-2.4l-.1-.1-.1-.2v-.1h-.1l-.1.1-.1.1h-.1v.1h-.1l-.1.1h-.1l-.1.1h-.1v.1H42l-.1.1.1-.1-.1.1h-.2l-.1.1h-.1l-.4.1-.1.1-.1.1v.2h.1-.1v.1h-.1l-.1.1v.1l-.1.1-.1.1v.1l.1-.2h-.2l-.1.1h-.1v.2H40v.1h-.1l-.3.1h-.3v.1H39l-.9.1h-.8l-.1-.1h-.1l-.1-.2h-.1.1v.5h-.6l-.1-.1-.1-.1v-.1l-.1-.1H36v-.1l-.1-.1v-.2l-.2-.1h-.1l-.1-.1v-.2h-.2v-.2h-.2v-.3l-.1-.1V9h-.1v-.3h.1v-.1h-2.2v.1h-.1l-.2.1-.8.1-.1.1H30.9l-.1.1-.2.1-.1.1-.1.1-.1.1H30l-.1.1h-.1v.1l-.1.1-.1.1-.3.1v.2l-.2.1v.1l-.2.1v.2l-.2.1v.2l-.2.1V12.5l-.1.1-.1.1h-.2l-.1.2-.1.1h-.5l-.1-.1-.1-.1h-.5l-.2.1v.1l-.2.1V13.4l-.2.1v.1H24v.1l.1.1.1.1.1.1v.1l-.1.1H23.6l-.1-.1-.1-.1h-.1v.2-.2l-.1-.1-.1-.1v-.1l-.1-.1v-.1l-.1-.1v-.2l-.2-.1-.1-.1-.1-.1-.2.1H21.7l-.1-.1-.1-.1v-.5l-.3.1-.3.1v.1l-.3.1-.2.3-.4.1-.2.1-.3.1-.1.1-.4.1v.1l-.4.1v.1l-.3.2v.1l-.4.1-.1.1-.2.1v.1l-.4.1-.1.1-.4.1v.1l-.4.1v.1l-.3.2-.1.1-.4.1v.1l-.2.1v.1l-.3.2h-.1l-.4.1v.1l-.4.1v.1l-.3.1-.1.1-.3.1-.1.1-.1.2-.1.1-.2.1v.1l-.4.1v.1l-.4.1v.1l-.4.1v.2l-.6.1v.1l-.1.1-.1.1-.4.1v.1l-.4.1v.1l-.3.2v.1l-.6.1v.1l-.4.1v.1l-.4.1v.1l-.4.1v.1l-.4.1v.1l-.3.1-.1.1-.4.1v.1l-.4.1v.1l-.6.1v.2l-.4.1-.1.1-.4.1-.1.1-.4.1v.1h.1V21.9l-.1.1h-.1v.1h-.2L4 22h-.2l-.1.1h-.2l-.2-.1-.1-.1-.1-.1v.2l-.1.1v.1l-.1.1-.2.1h-.3l-.2-.1h-.1l-.1-.1-.1-.1-.2-.1h-.1l-.2-.1-.1-.1-.1-.1-.1-.1H1v-.1l-.1-.1V18.9v.1l-.1-.1v-.1l-.1-.1V17.9l-.1-.1v-1 .2-.1l-.1-.1V15.2l-.1-.1-.1-.1v-1.2.2-.7l-.1-.1-.1-.1V12.8v.2V11.9l-.1-.1v-1.1l-.1-.1V9.5h.2V8.7H0v-1l.1-.1h.1v-.1h.1v-.4h.1L.5 7H.4l.1-.1.1-.1.1-.1.2-.1.1-.1h.1l.2-.1.2-.1.1-.1H2l.1.1h.2l.2.1.1.1.1.1h.1l.4-.1v.1h1.3v.1h1.4l.1.1h1.7l.1-.1H10.2v-.4h.5l.2-.1h.4v-.1H12.1l.4-.1h.5-.1H13.5l.4-.1h.6v-.1l.8.1h.2l.5-.1H16.3l.4-.1H17.5l.6-.1h.6l.1-.1h1.1l.1-.1h.6l.1-.1h1l.6-.1h.5v.1H23.8V5.6h.1v.1H24.2l.1.1.2.1H25.4l.1-.1h.1l.1-.1H26l.1-.1.1-.1H26.5l.1-.1h.2l.2-.1.1-.1H27.4l.1-.1.1-.1H27.9l.1-.1.1.1H28.4l.1-.1.1-.1h.2l.1-.1H29.2l.1-.1h.1l.1-.1h.2l.1-.1.1-.1h.2l.1-.1.1-.1h.2l.1-.1.1-.1h.2V4H31.2l.1-.1.1-.1h.2l.1-.1.1-.1H32.1l.1-.1h.1l.1-.1h.2l.1-.1.1-.1h.2l.1-.1.1-.1H33.5l.1-.1h.1l.1-.1h.2l-.1.2H34.2l.1-.1.1-.1h.2l.1-.1.1-.1h.2l.1-.1h.2l.1-.1.1-.1h.2l.1-.1h.2v-.1h.1l.1-.1h.1l.1-.1h.1l.1-.1h.2v-.5h.2V.9h1.9v.4h.3v.1h.4l.1.1v.4h6.8-.1H53.9V2H55.3v.2h.1l.1.1H93.3l-.1-.1v-.1h.9l.1.1h.5v-2l.2-.1V0l2.4.1.1.1.1.1v.8M36 8.4V9.2l.1.1v.1l.1.1h.1v.1h.2v.1h.1l.1.1h1l.2-.1v-.1h.1l.4-.1h.1l.1-.1h.1V8h-2.9v.3l.2.1M.1 7.7V8l.1-.1v-.2H.1M.6 7.4H.4h.2m-.2 3.1"/></symbol><symbol viewBox="0 0 100 68.6" id="i-p250"><path d="M98.9 1.3V2.2h1.1V23.4H73v.4h-.2l-.2.2v.2h-.4v.2l-.2.2h-.2v.4h-.4V35.8h.7V37.4h-.2v1.2h-33V39.2l-.2.2-.4.6v1.4l-.2.2v1.2l-.2.4-.2.2v1.8l-.4.2v1.2s-.2 0-.2.2V48l-.2.2-.2.4V49.2l-.2.2v.8l-.4.2V51l-.2.2v.8l-.4.2-.5.2-.2.2v.8l-.4.2v.8l-.2.2V55.2l-.4.2V56.6l-.2.2v.8l-.6.4v1l-.2.2v1.6l-.4.2V64.8h.2v.7h.2v.4l.2.2v.9h.2v.2h.4v.2H35v.2H35.6v.9h-7.3l-10-1.3L.7 62.6v-1h.4v-2.2l.2-.2.2-.2v-1.3H2v-2.1c.2-.2.2-.2.4-.2V54h.4v-1.2H3V52l.4-.2V51l.2-.2V48.9l.4-.2.2-.2v-.2h.2v-.5l.2-.4.2-.2V46.6l.2-.2v-.8l.4-.2V44.8l.6-.3v-.7l.2-.4v-.2l.2-.2V42.4l.5-.4v-.4l.2-.2V39.8l.2-.2.2-.2v-.2l.2-.2v-.4l.4-.2V38l.2-.2v-.4l.2-.2.2-.4v-.4l.2-.2.2-.2v-.2l.2-.2v-.8l.2-.2v-1.3h.4v-.8l.2-.2V30.4l.4-.2V29l-.4-.2v-.4H10l-.4-.4v-.4l-.7-.2V27l-.4-.2-.2-.2v-.2l-.4-.2-.2-.2h-.6v-.2l-.4-.2V25l-.9-.2v-.2l-.4-.2-.2-.2-.4-.2v-.2l-1.1-.2-.2-.2h-.8V23l-1.5-.2V22H0V18.2l.2-.2V15h1.1V12l.2-.2v-.4l.5-.6V10.2l.2-.2V8.6l.4-.2V8l.2-.2v-.9l.4-.2v-.3l.2-.2v-.4l.6-.3v-.2l.4-.2v-.5l.4-.2v-.2H5V4l.4-.2v-.3h.2v-.2H6V2h3.1V0h37.8v1h1.5v.2l.4.2V3h13.9V0H95.8v.2l.4.2v.8M47.1 25.7v.2l-.7.2-.2.2-.2.2v.5l-.2.2v.4l-.4.2v.4l-.2.2v.8l-.2.2-.2.2v.8l-.2.2V32.2l.2.2V33l.4.2v.4l.2.2V37.2h22.1v-.4l1.8.2.2-.7v-9.7h-1.1v-.4l-.2-.2H68l-.2-.2v-.2h-.2v-.2h-.2v-.2H67l-.2-.2h-.2v-.4h-12v.8l-.4.2V30.2l.2.2.2.2v.4h.2l.2.2v.4h.4v.2h.2l.2.2h.2v.2h.2l.2.2h.2l.4.2v.4h.4l.2.2v.2h.7l.7.2v.2h1.5v1.8H57l-.4-.2-.7-.2V35h-.4l-.4-.2h-.2l-.4-.2v-.2h-.2v-.2l-.2-.2H54v-.2h-.2l-.2-.2v-.2l-.3-.4v-.2h-.2l-.2-.2v-.2l-.2-.2-.2-.2-.2-.2-.3-.4-.9-1.4v-1.5.5V24.8h-2v.4l-1.1.2-.9.3"/></symbol><symbol viewBox="0 0 100 40.2" id="i-p90"><path d="M66.8 25.1c-.2.4-.4.8-.4 1.6l.1 2.5H69v1.2l.5.1.5.4c.2.4.6.5 1.1.6.8.2 1.7 0 2.6-.6 1-.7 1.3-1.7 1-2.9-.4-1.1-1.1-1.8-2-2.3l-.8-1-.5-.7-1-.1-2 .4c-.9.3-1.3.5-1.6.8m-14 1.8c0-.7-.2-1.3-.6-2.2l-.5-.7h-8.3L41 26.3c-.2.2-.4.6-.4 1.1l.1 1.2c0 1.3.4 2.4 1.2 3 1 .7 1.8 1.1 2.5 1l2.5-1 2.9-1.3 1.8-1.3c.9-.7 1.2-1.3 1.2-2.1m28.6-14.8c.1-.1-.1-.4-.5-.7h-9l-4.8-.2-3-.2v1.8h17.1l.1-.2.1-.5m1.6-1h-.4v1.2h.5c.4.1.5.4.5.7l-.4.7-.4.4.2 2.9h.7v-5.6l-.2-.4H83m16.2 6.4l.4.4c.2.4.5 1 .5 1.7 0 1-.1 1.7-.4 2-.1.4-.5.5-.8.5h-8.3l-.4-.4-.4.1-.4.2.7 1c.5.6.7 1.2.6 1.6l-.5 3.8-.4 3.6-.2.5-.6.1h-3.5l-.2-.5-.3-1.3v-1.9l-.4-1.2-1.8-.4-1.8.1-.6.6c-.2.2-.5.6-.5.7l-.4 3.2c-.5 2.2-1.3 3.8-2.5 5-1.3 1.3-3.2 2.3-6 2.8l-5.1.4-1.4-.5v-.6l1.3-5.4-.2-.6c-.1-.2-.4-.2-.6-.2l-2-.1h-1.8l-.4.4-.4.6-1.4 1.1-3.2 2.3c-3.4 2.2-6.2 3.2-8.6 3.2l-7.3-.2-3.2-.4v-2l-8.4-3.1h-1.9l-.5.8-1 .8H1.6c-.4 0-.7-.2-1-.8l-.4-1.4V23.8l-.1-6.9-.1-3.1c.1-.7.4-1.2.6-1.2h30.3l1.7-.4 1.8-.2H56V9.3L57 7l1-2.5c0-.2.4-.5.8-.7l.7-.4.1-1.1c.1-.7.2-1.2.4-1.2.5-.6 1-1.1 1.3-1.1.4 0 .7.2 1 .6l.2 1.1v1.8l-.2.1-.1.4v1.3h17l2.2-1.2c.4 0 .6-.1.6-.5v-1h-.4V1.1l.4-.4.7-.5L84 .1l.2.4.1.6v2.6l.2 1 .5 1h1.7l3.7 4.1c.2.4.5.7.5 1.2v6.5l8.3-.1"/></symbol><symbol viewBox="0 0 100 20.4" id="i-sawedoff"><path d="M22.4 0H39l.2.1.2.2.1.1.2.1.1.2V1h.1V.7h.4l.2.1.2.1h58.9l.2.1.1.2.1.1v.2h-.1l.1.1V4.3 4h-.1l-.2.1-.1.2-.2.1-.1.1-.2-.1H97v.7V5h.6v-.1h1.9V8.1 8 9.5h-2.4l-.1.1-.1.1V10l.1-.2-.1.1-.1.2h-.1v.1l-.2.1-.1.1-.1.1-.1.1v.1l-.1.1-.2.1v.1l-.2.1-.1.1V11H95v.2l-25.4.1V11.6h-2v-.2.2-.1l-.3-.1-.3-.1v-.2l-.3-.1v-.1h-.4l-.3-.1v-.2H53.4l-.3-.1-.2-.1-.2-.1-.1-.2-.1-.1v-.2.1-.2h-3v.8h-.8v.5h-1.9l-.1-.1v-.4h-9.6s-.1 0-.1.1l-.2.1-.2.1h-.1l-.2.1-.2.1-.1.1-.2.1h-.2l.1-.2-.1.1v.1h-.1v.2H35.2v.2l-.6.1H33.9l-.4.1-.3.1h-.4.2l-.1.1h-.4v.1H32.2V12H31.9l-.1.1h-.1v.1l-.1.1h-.2l-.1.1h-.2s-.1 0-.2.1l-.1.1h.2-.2v.1h-.1l-.1.1h-.2v.1h-.2v.1h-.1l-.1.1.1-.1H30v.1h-.2v.1h-.1l-.2.1h-.1l-.1.1v.1h-.1l-.1.1h-.2l-.1.1h.2-.1l-.1.1h-.2v.1h-.2v.1h-.2v.1h-.1v.1H28l.1-.2v.1H28v.1h-.1l-.1.1-.1.1h-.2l-.1.1h-.1v.2h-.1l-.1.1H27l-.1.1.1-.1v.1l-.2.1-.2.1h-.1v.1h-.2l-.1.1h-.1l-.1.1h-.1.1-.2l-.1.1h-.5v.1h-.1l-.1.1h-.2.2l-.2.1h-.3l-.2.1H24l-.4.1h-1.4l-.1-.1h-.4l-.1-.1h-.5v-.1h-.4l-.1-.1h-.1v-.1H20v-.1h-.2l.2-.1h-.2v-.1h-.2v-.1h-.1l-.1-.1h-.2v.4h-.1v-.1H19v-.2l-.1-.1v-.1h-.1v-.1l-.1-.1-.1-.2-.1-.1v-.1h-.1v-.1l-.1-.1-.1-.1-.1-.1v-.3l-.1-.1v-.1l-.1-.2v-.1l-.1-.1v-.1h.2v-.1l-.1-.1v-.1.4l-.1-.1v-.1l-.2-.2v-.1l-.1-.1-.4-.4H17v-.1h-.1v-.1l-.2-.2H15.9l-.7.2H14.9v-.5h-.1v.1l-.2.1-.2.1-.1.1h-.1c-.1 0-.1 0-.2.1v.1l-.1.1H13.6l-.1.1h-.1l-.1.1-.1.1v.1H13v.1l-.2.1-.2.1-.1.2h-.1l-.2.1h-.1l-.1.1h-.2v.1h-.1l-.2.1-.1.1-.1.1v.2h-.1l-.1.1-.2.2c-.1 0-.2.1-.3.2v.1h-.2l-.1.2-.1.1-.1.2-.2.1.1-.3v.1l-.1.1-.1.1-.1.1-.1.1-.1.2v.1l-.2.1-.1.1v.1h-.1l-.1-.1v.1l-.1.1-.1.1v.1h-.1l-.2.1-.1.1-.1.1-.2.1v.1l-.1.1h.1v.2l-.1-.1v.2l-.1.1-.1.1-.1.1v.1l-.1.1-.1.1-.1.1v.1l-.1.2V18.2h.1l-.1-.2-.1.1-.1.1v.1l-.1.1v.5l-.1.1v.1l-.1-.1v.2h-.1l-.1.1V19.6l-.1.1h-.1v.2l-.1.1v.1-.1.2h-.1V20.5h-2l-.2-.2v-.1h-.1l-.2-.1-.2-.1-.2-.1v-.2H3l-.1-.2h-.1l-.2-.1-.1-.2h-.1v-.1l-.1-.1-.1-.2-.1-.1-.1-.1v.1l-.1-.1h-.1v-.2l-.1-.1v-.1l-.2-.1-.1-.1v-.1l-.1.1-.2-.1-.1-.1-.1-.1v-.1l-.2-.1v-.1l-.1-.1-.2-.1v-.1h.1v-.2l-.2.1v-.1l-.1-.2-.2-.1V14.6l.1-.1V8.9L0 8.8V6.8h2V7.1l.1.1v.1l.2.1h.2v.1l.1.1.2.1v.1L3 8h.2v.1l.2.1H4V8l.4.1h1.4l.4-.1.1-.1h.5l.3-.1.1-.1h.5l.5-.2.5-.1.2-.1H9.2l.3-.1h.1l.2-.1.3-.1.1-.2h.2l.4-.1h.3l.3-.1v-.1l.2-.1.2-.1V6h.3l.2-.1v-.1l.2-.1.2-.1.1-.1.1-.1.3-.1.1-.1.1-.1h.2v.1h.2l.1-.2h.1l.2-.1.2-.1.1-.1h.1v-.1c.1-.1.2-.1.2-.1v-.1l.2-.1.2-.1v-.1H15.5l.1-.1.1-.1H16v-.1l.1-.1.2-.1v-.1H16.6l.1-.1.2-.1.2-.1v-.1h.1l.2-.1h.2v-.1l.2-.1.2-.1h.2l.2-.2v-.1l.3-.1h.3V2H19.6v-.1l.4-.1.2-.1h.2l.2-.1v-.1h.1l.3-.1v-.1h.1l.3-.1h.1v-.1h.3L22 1h.2V.9h.1l.1-.1h.6V.6l.8-.1.1-.2-1.5-.3m-.9 11.6v.2h-.2v.1l-.1.1v.1l-.1-.1V12.3l-.1.1V13h-.1v.2l-.1.1V14.7H20v-.6l-.1-.1v-.2l-.1-.1V12.9v.1-1H19.5l-.2.2v.1l-.2.2-.1.1v.7l-.1.1v.3h.1v.7h.1v.1h.1v.1l.1.1v.1h.1l.2.1v.1h.1l.2.2h.1V15h.1l.1.1v.1H20v.1h.2v.1h.1l.1.1h.2v.1h.1v.1h.2l.1.1h.4v.1H22.2v.1h.5v-.1H23v-.1h.5v-.2h.1v-.1H23.9v-.1h.2-.1l.1-.1h.2v-.1h.1l.1-.1h.1l.2-.2h.2V14.6h.2l.1-.1h.1l.1-.1h.2v-.1h.1v-.1h.1v-.4h.2v-.2l.1-.1v-.1h.1V13h-.1V12.7l-.1-.1V12.3l-.1-.1-.2-.2-.1-.1h-.1l-.1-.1H25l-.1-.1-.1-.1H21h.5m-.8 3.4h.2-.2M.3 14.4l.1-.2H.3v.2"/></symbol><symbol viewBox="0 0 100 26.8" id="i-scar20"><path d="M99.9 11.4v.5-.1.7H96v.1h-.5v-.1h-5.2v.4h-.2v-.1h-.2v-.2h-.5v.1h-.2v-.1h-.5V12.9v-.1h-.4v.1h-.2v-.7H78.8v-.1h-.2v.3H64.3v.4h-.1v.6h.1v.3h-.1l-.1.1H64l.1-.1h-.5v.1h-.4v-.3h-.7v.3h-.3v-.3h-.5v.2h-.4v-.2h-.6v.2h-.4v-.2h-.5v.2h-.4v-.2h-.6v.2h-.3v-.2H58v.3h-.4v-.3H57v.2h-.3v-.2h-.5v.2h-.5v-.2h-.5v.2h-.5v-.2h-.5v.2h-.4v-.2h-.5v.2H53v-.2h-.5v.2h-.4v-.2h-.6v.2h-.4v-.2h-.5v.2h-.3v-.2h-.7v.2h-1.1v-.2H48v.3h-.1v.2h-.8v.1H47l-.1.1h-.4v.1h-.1l-.1.1h-.1V14.7h-.1v1.9l.1.1h.1l.1.1v.1h.1v.8h-.4v.2H45.8v8.7h.1v.2h-7v-.7h-.1v-.3h-.3v-.5h.1v-6.2H38v.1h-.4v.2H32.5V19.7h-.1v.2h-.1v.1h-.1v.1l-.1.1v.1H32v.2h-.1v.2h.1v.1h.1v.5h-.6v.1l-.1.1h-.1v.1h-.1v.1h-.1v.2h-.2v.4h-.1v.1h-.1v.2h-.1l-.1.1v.2h-.1.1v.1h-.1v.1h-.1v.1h-.1v.2h-.1.1v-.6h.1v.5h-.1v.1h-.1v.2H29.2l-.1-.1h-.8l-.1-.1h-.5l-.2-.1h-.7l-.2-.1H26.3h.2-.1l-.2-.1h-.4V23h.1v-.1h.1v-.1h.2v-.1h.1v-.1h.1l2.7-5.2h.2v-.2h.1V16.9h.1v-.8l-.1-.1v-.1h-.1v-.1h-.1l-.1-.1v-.1h-.2v.2h-.1l-.1-.1h-.1v-.2h-.1v-.1h-3.7v-.1l-.1-.1-.2-.2H23v-.1l-2.4.1H19.8l-.1.1v.1h-.2v.1l-.1.1v.1h-.1v.1h.2-.1v.1h-.1v.1h-.2v.1-.1h-.2v.1h-.1v.1h-.1v.1l-.1.1v.2l-.1.1v.2h-.1v.1h-.1v.1h-.1v-.1h-.4v.2h-.1V17.9v-.1.5l-.1.1v.1h-.1v.1l-.1.1.1-.2-.1.1h-.1l-.1-.1H5.7v-.1h-.1V18h-.1V17.7l-.2.1v-.4H3v3h-.4v-.1H1.5v.7H.9 1 .2V20.7v.1-.5.5-1.1h.2V12.3l-.1-.1V10.6v.2V10.5H.2V9.9H0v-.3H1.7v.4h-.2H3v.3h.1v3.5h2.5V13h3.8v-1.4h-3v-.1H6V7.2l.1-.1V7h.2v-.2h.2v-.1h.2l.1-.1H18.5l.9.1H21.5v.1h.4v.5h-.1V7.6l-.1.1-.1.1-.1.1v-.1l-.2.2h-.1v.1h-.1v.1l-.1.1h-.1l-.1.1-.2.1V8.8h-.2v.1h-.1V9h.2v.2l-.1.1h-.1v.1h-.1v.1l-.1.1v.1l-.1.1h-.1v.2h-.2v.1l-.1.1h-.1l-.1.1h-.1v-.5h.2v.2l-.1.1-.1.1v.1h-.1l-.1.2H19v.1h-.1l-.1.1-.1.1H18.4v.1h.1v.1-.2.1H18.2v.1H14v.1h-.1v.1l-.1.1v.7-.2H18.7v-.1h.1l.1-.1.1-.1.1-.1h.1l.1-.1v-.1l.1-.1V11h.1v-.2l.1-.1h-.1v.6h.1v-.1l.1-.1V11h.1v-.1h.1v-.1l.1-.1v-.1l.1-.1h.1v.3h.2v-.1h.1v-.1h.1v-.2h.1-.2v-.2h.1v-.3h.1v-.1h.1v-.1l.1-.1v-.1h.1l.1-.1v-.1h.2v-.2h.1l.1-.1v-.1h.1v-.1l.1-.1h-.2v-.1h.1v-.1h.1v-.1.1H22v-.1h2.8v-.1l.1-.1h.1l.1-.1v-.5l.1-.1h.1v-.2l.1-.1H27.3v-.5h-1.8V6H27.8l.1-.1v-.1H28.9v.1h.1V6h.1v.4h2.4v.1h.1v.4-.1V7.1h3.6V4.3H34.4v.1H34v.1h-.1v.1h-.1v.1h-.2v.1h-.2l-6.7-.1v.1l-.2-.1h-.1v.1V1.3h.5v.1h6.8v.1H34l.1.1h.1l.1.1h.2v.1h.8V1h2.8v.4H38v.4h2v-.3h.6v-.1h-.1V.9h.1V.7h.3V0h1.6v.2h.2V1.2h.2v.6h.6V2h.1v.2h.1v.1h1.4V1.2h2.8v.7H50.2v-.1h.1v-.1H50.6l.2-.1h.4l.1-.1H51.9v-.1h.1l.1-.1H52.7l.1-.1h.2l.1-.1h.4l.1-.1h.2l.2-.1H54.7l.2-.1h1V.6h.4v.2H62.9V6.1h-7.2v.4H55.4l-.2-.1h-.1l-.2-.1-.2-.1H54.4l-.2-.1h-.4l-.1-.1H53.4h.1l-.1-.1H53l-.1-.1H52l-.1-.1h-.2l-.2-.1h-.1.1-.1l-.2-.1h-3.5v.4l.1.2v1.7l-.1.2v.4H63V6.4l-.1-.1v-.6h.2v-.1h3l.1.1.3.1h.1v.1h.1V6h.2v-.4H68v.1h.1v.2h.1v.2h.1V6.4h.1v.1h.1v.8h10v.3l.5.1V8h-.4v.2h.3v.5h-.1V9v-.2 2h9.5v-.5h.6V10.6h.8v-.3h.2v.2l.1.1.1.1h.1v-.5H90.5V10.5h5v-.2h.4v.2h4.1v.6l-.1.3M65.1 7.2h1.5V7h-1.5v.2M40.8 4.6h-.9v-.3h-2v.1h-.1V5l.1.2V6h.1l7 .1V4.4l-.9-.1h-.7v.3h-1.1v.3h-1.5v-.3m-6.9 11.7v.2h-.1v.3h-.1V17.9v-.1V18.1h.1v.1l.1.1v.2h.1l.1.1.1.1h.2l.1.1H37.8l.2-.1h.1v-.1h.1v-.1h.1v-.1l.1-.1h.1V17.4v.4-1h-.1v-.3h-.1v-.2h-.1v-.1l-.1-.1h-1.6v.1h-.1v.1h-.1l-.1.1h-.1l-.1.1h-.2v.3l-.1.1h-.1l-.1.1h-.1v.2h.1v.4l-.1.1v.2h.1v.7l.1.1v.2H35.3v-.1h-.2v-.1l-.1-.1v-.2.1h-.1v-.4h-.1v-.3h-.1v-1.3l.1-.1v-.2h-.3v.1h-.6M2.9 14.4V17.5h2.2V17.2h.2v-.8h.1v-2.2H2.9v.2"/></symbol><symbol viewBox="0 0 1000 324.9" id="i-sg556"><path d="M295.8 15.3h7.2v-3.1h7.2v2l1 1v1h4.1V4.1h1v-1h17.5v9.1h52.6V7.1h34.9V0h7.1v8.2h5.1v9.3h-1v3h-1v2h-1v2h-1v2l-1 1-1 1v3h-1v2l-1 1v2h-1v2l-1 1v2h-1v2h-1v1h-1v2h-1v3h-1v1h-1v3H435v4.1h70.1v5.1H807v3.1h4.1v-3.1h4.1v5.1V16.4H827.5v5.1h5.1v10.2h3.1v4.1h1V67.9h4.1l4.1 1h2V80h3.1v1h21.6v2h1v7.2H862v3.1h-1v1h10.3v7.2h-23.7v1h99.9v-3.1H999v22.4h1v7.2h-70v-5.1h-88.6v5.1h-1v3.1h-4.1l-1 1v25l-18.6-1v-8.3h1v-15.4h-4.1v-3.1h-4.1l-1 1v16.4h-6.2l-2 12.4H794l-1 5.1H571.4v2h-8.3v-2l-1-1v-2l-1-1h-76.9v1h-3v1h-1l-1 1h-2v1h-1l-1 1h-2l-1 1h-1v1h-2v1h-1v1h-1v15.1h4.1v7.2H462v14.4h1v9.2h1V230.5h1v5.1l1 1v5.1l1 1v3.1l1 1v4.1h1v2h1v5.1h1v3h1v4h1v1l1 1v4h1v4.1h1v4h1v2h1v3l1 1v2l1 1v2h1v3h1v3h2v3h2v9.2h-3.1v1H479l-1 1h-5l-1 1-1 1h-2l-1 1h-8l-1 1h-6l-1 1h-6l-1 1h-8.1v1h-5.4l-1 1h-8.1v1h-11.3v-4.1h-1v-2h-1v-4h-1v-5.1h-1v18.6-2h-1v-2h-1v-3l-1-1v-3h-1v-4h-1v-5.1h-1v-7.1h-1v-4.1h-1v-4h-1V284h-1v-4h-1v-2l-1-1v-5.1h-1v-3l-1-1v-4h-1v-4h-1v-7.1h-1v-5.1h-1v-8.2h-1V232h-1v-8.1h-1v-9.2h-1v-7.1H303.7v3.1h-1v1h-1v1l-1 1v1h-1v4.1h-1v1l-1 1-1 1v1h-1v2h-1v2h-1v1h-1v2l-1 1v1h-1v1l-1 1v1h-1v2h-1v1h-1v2h-1v1h-1v2h-1v2h-1v1h-1v1h-1v1l-1 1v1h-1v3h-1v1l-1 1v3l-1 1v3h-1v6.1h-1v7.2h-9.3v-1h-2v-1h-2l-1-1h-1l-1-1h-3v-1h-1l-1-1h-3l-1-1-1-1h-2l-1-1h-1l-1-1h-2v-1h-1l-1-1h-2l-1-1h-2v-1h-2l-2-1h-1v-1h-4v-1h-1l-2-1h-1v-1h-3v-1h-2v-2h-1v-8.3h1v-4l1-1h1v-2l1-1v-1h1v-3h1v-1l1-2h1v-1l1-1 1-1 1-1v-1h1l1-1v-1l1-1 1-1v-1h1v-1l1-1v-1h1v-1h1v-1h1v-1l1-1v-1h1v-1h1v-1l1-1 1-1v-1h1l1-1v-2h1v-1h1v-1h1v-1l1-1v-3h1v-2h1v-4l1-1v-7.2h1v-5.1h-1v-3.1h-1v-3h-1l-2-2-1-1h-1l-1-1h-2v-1h-3l-3.1-1h-1l-1-1h-3l-2-1h-5.1v-2h-3.1V139h-6.2v1H205v16l1 1v7.2h-3v1h-34v10.3h-1v3.1h-7.2v-1h-1v1H146.4v1h-1v5.1h-1v3.1h-1v2h-17.5v-6h-1l-1 1-1 1h-2l-1 1-1 1h-1v1h-3l-1 1v1h-1v1h-1l-1 1h-1v1h-1l-1 1-1 1-1 1-1 1h-1v1l-1 1h-1v1h-1v1l-1 1h-1l-1 1-1 1-1 1-2 1v1H78.7v-19.4h-1v1h-2v1l-2 1h-1v1h-3v1l-2 1h-2v1h-1v1l-2 1-1 1v1h-1v1h-2v2l-1 1-1 1-1 1h-2v2l-1 1v1l-1 1-1 1-1 1h-1v1l-1 1h-1v1l-1 1-1 1h-1v1l-1 1-1 1v1l-1 1-1 1v1l-1 1v1l-1 1v1l-1 1v1l-1 1v1h-1v1l-1 1v1l-1 1v3H13.3l-1-1v-2l-1-1v-3l-1-1v-3h-1v-4h-1v-1 8.3-5h-1v-6l-1-1v-10.1l-1-1v-11h-1v-13l-1-1v-6l-1-1v-9H1v-27.1l-1-1v-31.1l1-1v-20l1-1h15.4v1h1v9.3h212.3l1-1h1v-1h1v-1h1v-1h1l1-1h1l1-1 1-1 1-1 1-1 1-1h1v-1h1v-1h1l3.1-3.1v-1h1l1-1h1l1-1 1-1h2v-5.1h1v-2h7.2v1h75.2V57.1h-4.1v5.1l-1 1h-7.2v-2h-1v-3.1h-20.6v6.1h-7.2v-4.1h-1l-1.3-44.8zM351.4 171.9l-1-1h-32v2h-1v4h-1v11.3l1 1v9.2h29.9v-3.1h1v-1l1-1h1l1-1h1l1-1h1l1-1 1-1 1-1h1v-1h3v-8h-1l-1-1h-1l-1-1h-1l-1-1v-1h-1l-2.9-3.4m-55.6 7.3l-1-1h-4.1v15h1v1l1 1h1l1 1h1l1 1h1v1h7.2v-1h-1v-2h-1v-1h-1v-2h-1v-3h-1v-1l-1-1h-1v-1h-1v-4h-1v-1l-1-1v-1"/></symbol><symbol viewBox="0 0 440.5 1000" id="i-smokegrenade"><path d="M344 26.3v2.9h2.9V38h2.9v5.8h2.9v11.6h2.9v5.8h2.9v8.7h2.9V76h2.9v8.8l2.9 2.9v2.9l2.9 2.9 2.9 2.9V108.1h2.9v8.7h2.9v5.8l2.9 2.9v8.7h2.9v5.8h2.9v11.6h2.9v5.8h2.9v8.7l2.9 2.9 2.9 2.9v11.6h2.9v2.9l2.9 2.9v2.9l2.9 2.9v2.9l2.9 2.9v2.9h2.9v2.9l5.8 5.8v23.4l2.9 2.9v2.9h2.9v5.8h2.9l2.9 2.9v2.9l5.8 5.8v11.7h2.9v587.5h-2.9l-2.9 2.9h-5.8v2.9h-20.5v-23.4l2.9-2.9h2.9v-2.9h2.9V811.5v11.7V312.8h-5.8V307h-2.9v-5.8h-2.9v-8.8h-2.9l-2.9-2.9v-5.8l-2.9-2.9h-2.9V275l-5.8-2.9v-8.9H385v-2.9h-3v-2.9l-2.9-2.9v-5.8h-2.9v-2.9l-2.9-5.8v-2.9h-2.9v713.5h-5.8l-5.8 5.8h-2.9c-23.4 11.7-43.9 20.5-67.3 26.3l-70.2 14.6-58.5 2.9-49.7-8.8c-32.2-5.8-55.6-14.6-73.1-26.3l-20.5-8.8-11.7-5.8h-3V236.8C-1 228-1 219.3 4.8 210.5l2.9-2.9h8.8v-2.9l17.5-2.9 35.1-2.9 23.4-2.9h14.6v-20.5l5.8-8.8 2.9-5.8V90.6H113l-14.6-2.9H77.9V67.3h2.9v-2.9h2.9V52.6L89.6 38l14.6-11.7h172.5l8.8 2.9V35c5.8-11.7 14.6-23.4 23.4-29.2V0h20.4v20.4H341v5.8m20.6 722.3v-2.9l-163.7 17.5-172.6-17.5V798l175.4 23.4 160.8-20.5V748.5"/></symbol><symbol viewBox="0 0 1000 231.5" id="i-ssg08"><path d="M379 0h24.7l.7 1.5h.7V4.4l-.7.7v10.6h.7v1.4l-.7.7V27h77.2l.7.7V27l3-.7 2.2-.7 2.2-.7 2.2-.7 3-.7 2.2-.7 2.2-.7 1.5-.7h2.2v-.7l.7-.7h.7l.7-.7 1.5-.7h2.2l1.5-.7.7-.7h.7v-.7l.7-.7.7-.7h.7v-.7h51.5l1.5.7.7.7 1.5.7.7.7.7.7v.1l-.7.7v.7h.3v37.5h425.4l2.2.7.7.7v.7l.7.7.7.7v5l-.7.7V74.7l-.7.7v1.5l-.7.7-2.2.7H991l-3-.7-240.4-.7V111.6l-.7.7V122.2l-.7.7v1.5l-.7.7V161.4l.7.7.7.7v1.4l.7 1.5v1.4l-.7.7V174.1l.7.7 1.5.7h.7V177.6l.7 1.5v1.4l.7.7v1.4l.7.7v.7l.7.7v1.4l.7.7v2.2h.7V191.1l.7.7.7.7V194.6l.7.7v.7l.7.7v.7l.7.7v.7l.7.7v1.4l.7.7h.7v.7l.7.7v.7l.7.7.7.7.7.7v.7l.7.7v4.2h-.7v.7h.7v.7l.7.7v.7l-.7.7v1.4l-.7.7-.7.7v.7l-.7.7-.7.7h-.7v2.2l-.7.7v.7h-22.4l-.7-.8h.7l.7-.7h.7V219.8l-.7-.7v-1.4l-.7-.7v7l-.7-.7h-.7V221l-.7-.7v-.7l-.7-.7v-3l-.7-1.5v-.7l-.7-.7v-1.7l-.7-.7V209h-.7V206.9l-.7-.7-.7-.7v-1.4l.7-.7h-18l-2.2.7H704.9l-2.2-.7-.7-.7V188l.7-.7v-.7l1.5-.7 1.5-.7 6-.7v-7.7l.7-.7h-7.5l-1.5-.7v-.7l-.7-.7v-7.7l.7-.7-.7-.7V161l.7-.7v-.7h8.2-.7V134.3l-.7.7-2.2-.7-.7-.7v-.7h-.7l-.7-.7-.7-1.5v-10l-.7-1.5v-1.4H469.7l-1.5-.7-.7.7v.7l-.7.7-.7.7-.7.7-.7.7-.7 1.5-.7.7-.7 1.5-.7.7-.7.7-1.5.7v2.2l-.7.7-.7 1.5-1.5.7-.7.7-.7.7-.7.7v.7l-1.5 1.5-.7 1.5-.7.7-.7 1.5-.7.7v.7l-.7.7v.7l-1.5.7-.7.7-.7 1.5v.7l-.7.7v.7l-.7.7v.7l-1.5.7-.7.7-.7.7-.7 1.5-.7.7-.7.7-.7.7v.7H294.4l-3-.7v.7h-.7V158.7l-1.5.7v1.5l-.7.7v.7l-.7.7v2.2h-.7v.7h-.7v1.4l-.7.7v.7h-.7v1.5l-5.2 10.5 3 24-.7 3-2.2.7h-2.2l-.7.7-2.2 1.5-17.2 3h-2.2l-25.5-10.5-1.5-2.2-.7-.7-.7-3 .7-6.7c0-.7 0-1.5.7-2.2l1.5-.7V173.5h.7v-.5l.7-.7v-.7l.7-.7v8.2h.7v-.7h.7v-.7l.7-.7v-1l.7-.7h.7v-.7h.7v-.7l.7-.7V171h.7v-1.7h.7l.7-.7.7-.7h.7v-.9l.7-.7v-.7h.7v-.7l.7-.7v-1.4h.7v-.7h.7v-2.5l.7-.7v-.7h.7v-2.8l.7-.7h.7V152.6l.7-.7v-3l-.7-.7v-5.9h-.7v-.7l-.7-.7v-4.5H230v-1.5h-5.2V129h-.8V133.3h-6.7v.7h-.7l-.7.7v.7h-.9v.7h-.7v.7l-.7 1.5-.7.7h-.9v2.8h-.7v3l-4.5 6-2.2.7h-2.2l-1.5-2.2-12 .7-2.2-.7-3.7 1.5-.7.7h-.7v1.5l-2.2 2.2-93.6 39.7h-3l-.7-.7h-6V210.5l2.2 1.5.7 2.2v3.7l-.7 2.2-2.2.7-3 .7h-18l-2.2-.7h-3.7l-2.2-.7-1.5-1.5V215l-33.7.7-2.8.8H6l-2.2-.7-1.5-1.5-.7-.7v3l-.7-.7-.9-.9V104l.7-.7.7-.7h2.2l2.2.7H44l.7-.7 3-.7 2.2.7 18 .7v-1.4l-.7-.7-.7-1.5-.7-.7-.7-.7-.7-.7v-6.5l.7-1.5.7-.7v-5.7l.7-.7.7-1.5h.7l.7-.7.7-.7.7-.7h116.1l2.2.7.7.7.7 1.5.7.7v1.4l.7.7V86l-.7.7V99.4l-1.5.7v.7l-.7.7-.7.7v.7l.7.7h18.7l3-.7 2.2.7h3.7l5.2-.7h3.7l.7-.7H228.3l.7-.7h1.4v-.7h3.5v-.7h1.4v-.7h1.4l.7-.7h.7l.7-.7h1.4l.7-.7h1.4v-.7h1.4l.7-.7h.7l1.5-.7h2.9v-.7h.7l.7-.7h1.4l.7-.7.7-.7H255.8v-.7h.7l.7-.7h.7l.7-.7h1.5l.7-.7h1.4v-.7h.7l1.5-.7h1.4l.7-.7h.7v-.7h.7v-.7h.7l.7-.7h.7l.7-.7.7-.7h.7l.7-.7v-.7h1.4v-.7h1.4l.7-.7h.7l.7-.7.7-.7.7-.7h1.4v-.7H282.6l.7-.7h2.2l.7-.7 3-.7 1.5-.7h1.5l17.2-.7 2.2-.7v-3.7h-47.9v-.7h-20.1l-.7-.7-2.2-.7-.7-.7V49.4l-.7-.7V45l.7-.7v-9.8l.7-.7h1.5V33h.7v-.7l.7-.7h1.4v-.7h27.7V12l.7-.7H275.5v-.7h21.7l.7.7v-.7l.7.7.7.7h.7V29.1h63.7V5.2l.7-.7.7-.7V2.2l.7-.7V.7h.7L379 0m340.1 142.3v-1.4 1.4m-407.5-6V142l1.5.7.7.7.7.7v.7h3l2.2-.7h2.2l2.2-.7 2.2-.7.7-.7.7-.7 1.5-.7.7-.7 1.5-.7.7-.7v-.7l.7-.7V134.2l.7-.7-22.5.7v1.4l.6.7m-11.2 11.3l-1.5-.7-.7-.7-.7-.7V134.6h-.7v.7l-.7.7-.7.7h-.7l-.7.7-.7.7v4.4h.7l1.5.7.7.7.7.7v.7l3.5 2.3m-209 7.5l-.7.7V165.6h1.5l1.5.7 6 .7 1.5.7v-.7h1.4l.7-.7h.7v-.7h1.5v-.7h1.4l.7-.7h.7v-.2h1.4l.7-.7h2.2v-.7h1.5v-.7l.7-.7.7-.7V154.7h-27l2.9.4m137.8 52.4"/></symbol><symbol viewBox="0 0 1000 725.4" id="i-taser"><path d="M447.1 247.4h-74.8c-10.4 0-14.6 4.2-14.6 14.6v41.6c0 10.4 4.2 16.6 14.6 16.6h39.5c14.6 0 24.9-4.2 35.3-12.5 8.3-8.3 12.5-16.6 12.5-27v-10.4l-4.2-14.6c-2.1-6.3-4.2-8.3-8.3-8.3M991.7 85.2l8.3 4.2v10.4l-20.8 143.4c-2.1 12.5-12.5 20.8-31.2 27L875.3 291l-20.8 6.2-116.4 2.1c-10.4 0-16.6 2.1-16.6 8.3v45.7c0 14.6-4.2 20.8-14.6 20.8l-18.7-2.1H526.1l-27 6.2-6.2-8.3-2.1-10.4c-10.4 16.6-20.8 24.9-31.2 24.9H357.7c-12.5 0-18.7 8.3-20.8 24.9l-12.5 27c-8.3 14.6-12.5 29.1-16.6 39.5-20.8 76.9-31.2 128.9-33.3 153.8-2.1 18.7 0 47.8 6.2 83.1 0 12.5-8.3 14.6-24.9 8.3l-31.2 4.2-89.4-18.7-101.9-27c-16.6-6.2-27-16.6-31.2-29.1-4.2-12.5-2.1-33.3 2.1-62.4l35.3-145.5 29.1-110.2L79 307.4l8.3-37.4c0-10.4-6.2-22.9-18.7-37.4l-29.1-24.9c-6.2-6.2-10.4-14.6-10.4-27v-106c0-14.6 4.2-27 10.4-35.3l20.8-20.8 21-16.5 49.9 6.2c4.2 0 8.3 2.1 10.4 6.2l4.2 4.2 49.9 8.3 72.8 2.1 43.7 6.2 6.2 12.5c2.1 0 6.2-2.1 8.3-2.1l14.6-4.2h193.3l24.9 6.2c-2.1-2.1-2.1-6.2 0-10.4 0-4.2 6.2-8.3 18.7-10.4l16.6 4.2 10.4-10.4 2.1-8.3c0-4.2 2.1-8.3 6.2-10.4l33.1-2 33.3 12.5 31.2 10.4 12.5-4.2 16.6-2.1 87.3 18.7c6.2 2.1 16.6 8.3 27 14.6h35.3l6.2 6.2 2.1 6.2 45.7 12.5 12.5 8.3 6.2 4.2 8.3-2.1 8.3-2.1 12.6 2.1"/></symbol><symbol viewBox="0 0 1000 550.3" id="i-tec9"><path d="M468.5 13.6l1.7-1.7 3.4-1.7h1.7l1.7-1.7h1.7l1.7-1.7h1.7l1.7-1.7V3.4h3.4l1.7-1.7h5.1V0h12v1.7h1.7v1.7h3.4l1.7 1.7 1.7 1.7h3.4l1.7 1.7h1.7v1.7h3.4v1.7l1.7 1.7h1.7l1.7 1.7V35.8h366.3v-5.1 1.7V29h3.4l1.7-1.7h1.7v-3.4h3.4v-1.7l1.7-1.7 1.7-1.7h23.8l1.7 1.7 1.7 1.7v1.7h1.7l1.7 1.7v1.7h1.7V29h1.7v6.8l1.7 1.7v1.7h5.1v3.4l1.7 1.7h1.7l1.7 1.7h3.4V59.6h1.7v5.1l1.7 1.7V75h5.1v3.4h27.3v1.7h5.1V124.3h-1.7l-32.4-1.7v1.7h-1.7v5.1h-1.7v5.1l-1.7 1.7-1.7 1.7-1.7 1.7v1.7l-3.4 1.7v3.4h-1.7v1.7l-1.7 1.7v3.4h-3.4v5.1h-13.6v-1.7L688.2 155h-13.6V206h-3.4v1.7l-18.7 1.7v1.7l-15.3-1.7H632v1.7h-1.7l-1.7 1.7v1.7h-1.7v3.4h-1.7v3.4l-1.7 1.7-1.7 1.7v3.4l-3.4 1.7v1.7l-1.7 1.7v1.7H615v1.7l-1.7 1.7h-1.7v3.4h-1.7v1.7h-1.7l-3.4 1.7-1.7 1.7v1.7l-1.7 1.7V306.3h6.8l1.7 1.7v1.7l1.7 1.7v20.4h-1.7v8.5l-1.7 1.7v5.1h-1.7l-1.7 1.7h-3.4v1.7H598l-1.7 1.7h-3.4v3.4h-1.7v3.4l-1.7 1.7V549.5h-138v-5.1 5.1V378.2v1.7l-1.7 1.7-1.7 1.7v1.7l-1.7 1.7v1.7l-1.7 1.7h-22.1v-1.7h-6.8v-1.7H409V385h-1.7V335.6H306.6v17h-57.9l-1.7 1.7v1.7l-1.7 1.7-1.7 1.7-1.7 1.7v1.7l-1.7 1.7v5.1h-1.7v1.7l-1.7 1.7-1.7 1.7v8.5l-1.7 1.7-1.7 1.7v1.7L230 390v5.1l-1.7 3.4v1.7l-1.7 1.7v1.7h-1.7l-1.7 1.7v3.4h-1.7v6.8h-1.7v3.4l-3.4 1.7v8.5h-1.7v1.7l-1.7 1.7-1.7 1.7h-1.7v3.4l-1.7 1.7v8.5h-3.4v5.1h-1.7v1.7l-1.7 1.7v5.1l-1.7 3.4v3.4l-1.7 1.7v3.4l1.7 1.7v1.7h1.7v3.4h1.7v3.4l1.7 1.7V507.3h-1.7v5.1l-3.4 1.7-1.7 1.7H179v-1.7l-22.1-1.7-34.1-1.7L87 509v17H47.7l-1.7-1.7h-6.8L17 523l-1.7-1.7v-5.1H3.4v-6.8l-1.7-1.7L0 506V475.3l1.7-1.7 1.7-1.7v-3.4l1.7-1.7 1.7-1.7v-8.5l1.7-1.7V448h1.7v-6.8h1.7l1.7-1.7v-3.4h1.7v-8.5H17v-5.1l3.4-1.7v-5.1l1.7-1.7v-3.4l1.7-1.7 1.7-1.7 1.7-1.7v-1.7h3.4v-5.1l1.7-1.7 1.7-1.7v-1.7l1.7-1.7 1.7-1.7v-3.4l1.7-1.7h1.7v-1.7l1.7-1.7v-3.4l1.7-1.7v-5.1l1.7-1.7v-3.5l1.7-1.7v-1.7l1.7-1.7v-1.7l1.7-1.7V356l1.7-1.7v-3.4l1.7-1.7v-1.7l1.7-1.7v-1.7l3.4-1.7V339h1.7v-1.7l1.7-1.7 1.7-1.7h1.7v-3.4H68v-1.7l1.7-1.7V322l1.7-1.7v-3.4l1.7-1.7v-1.7l1.7-1.7V310l1.7-1.7v-1.7l1.7-1.7 1.7-1.7v-3.4l1.7-1.7v-3.4H85v-6.8l1.7-1.7 1.7-1.7v-1.7l1.7-1.7v-3.4H92v-6.8l1.7-1.7 1.7-1.7v-1.7h1.7v-8.5l-1.7-1.7v-1.7l-1.7-1.7v-3.4L92 247l-1.7-1.7v-3.4l-3.4-1.7v-3.4l-1.7-1.7-3.4-3.4h-1.7v-3.4l-1.7-1.7V213H37.5v-1.7h-5.1v-1.7h-1.7l-1.7-1.7-1.7-1.7-1.7-1.7-1.7-3.4h-1.7v-1.7l-3.4-1.7-1.7-1.7h-1.7v-3.4l-1.7-1.7h-3.4v-5.1L8.5 184v-3.4H6.8V92h1.7V80.1h1.7v-1.7l5.1-1.7V75l1.7-1.7 5.1-1.7 1.7-1.7v-1.7l1.7-3.4h5.1l1.7-1.7 1.7-1.7 5.1-1.7 1.7-1.7v-1.7h3.4v-1.7l3.4-1.7 1.7-1.7h3.4v-1.7l3.4-1.7 1.7-1.7v-1.7H63v-1.7l1.7-1.7 5.1-1.7 1.7-1.7v-5.1H75v-5.2h6.8v-6.8h1.7l1.7-1.7v-3.5l1.7-1.7v-1.7h17l6.8 1.7v5.1h1.7v1.7l1.7 1.7v5.1L461.7 29v3.4V18.8l6.8-5.2m-49.4 247l-1.7-1.7v-3.4l-1.7-1.7v-5.1L414 247v-1.7l-1.7-1.7v-1.7l-1.7-1.7-1.7-1.7H351h1.7v5.1h1.7v1.7l1.7 1.7v1.7h1.7l1.7 1.7v3.4h1.7v1.7h1.7v1.7l1.7 1.7v1.7l1.7 1.7h1.7v1.7h1.7l1.7 1.7h1.7l1.7 1.7h1.7l1.7 1.7v3.4h1.7l1.7 1.7v1.7l-1.7 1.7v1.7h-1.7v3.4H364.6l-1.7-1.7h-3.4v-1.7h-5.2l-1.7-1.7-1.7-1.7h-1.7v-1.7h-1.7l-1.7-1.7-1.7-1.7h-1.7v-1.7H339v-1.7l-1.7-1.7-1.7-1.7-1.7-1.7-1.7-1.7v-1.7l-1.7-1.7-1.7-1.7v-3.4h-1.7v-3.4l-1.7-1.7v-3.4H322l-1.7 1.7-1.7 1.7-1.7 1.7-1.7 1.7v5.1l-1.7 1.7v3.4l-1.7 1.7-1.7 1.7v1.7l-1.7 1.7v8.5l-1.7 1.7v1.7L305 281l-1.7 1.7v5.1l-3.4 1.7v3.4l126.1 1.7v-6.7l1.7-1.7 1.7-1.7v3.4l1.7-1.7v-3.4h3.4v-5.1l1.7-1.7v-6.8l-1.7-1.7-1.7-1.7v-5.1"/></symbol><symbol viewBox="0 0 1000 352.7" id="i-ump45"><path d="M936.8 28.5l3.1 4.1 5.1 14.3 4.1 19.4v16.3l3.1 4.1 2 6.1H994l1 2 2 5.1 3.1 8.2v8.2l-5.1 5.1-11.2 3.1-9.2 1-5.1 1-5.1 2h-3.1l-6.1-2-1 8.2-7.1 6.1H944l-1 1h-1v9.2l-3.1 8.2h-16.3l-15.3-3.1-4.1 2-1 1h-1l-9.2 4.1-5.1 6.1v8.2l1 14.3v68.1l-1 18.3-3.1 16.3-3.1 9.2-1 5.1-2 3.1h-2l-14.3 2c-6.1 0-11.2-1-14.3-4.1v-3.1l-4.1-5.1c-2-1-3.1-4.1-3.1-8.2l-1-9.2v-2l-2-2 3.1-52 2-31.6 3.1-18.3 1-8.2-4.1-1-3.1-4.1-3.1-3.1-2-1-2-1-3.1-3.1-4.1-3.1-4.1-1-1-1h-1l-8.2 2-2-1-2-1h-6.2l-3.1 1-5.1 1h-30.6v-5.1l1-5.1v-4.1l-14.3 8.2-13.3 5.1h-20.4l3.1 11.2 3.1 15.3 3.1 20.4-3.1 1-5.1 3.1 3.1 11.2 6.1 27.5 8.2 36.7 9.2 41.8 5.1 22.4 1 3.1H745l-4.1 1H737l-3.1 1h-8.2l-4.1 1h-4.1l-3.1 1h-15.3l-4.1 1h-4.1l-3.1 1h-9.2l-3.1-10.2-10.2-45.9-10.2-42.8-6.1-30.6-3.1-11.2H633l-11.2 1h-8.2l-6.1 2-6.1 5.1-4.1 6.1-3.1 5.1-4.1 4.1-12.2 3.1-22.4 1H530l-14.3-3.1-14.3-5.1-11.2-6.1c-7.1 9.2-10.2 16.3-10.2 19.4l3.1 6.1 1 4.1h1l-5.1 5.1h-5l-5.1 8.2-8.2 14.3-7.1 15.3-3.1 8.2V317c1 1 1 3.1-1 5.1l-11.2 2-12.2-5.1-19.4-11.2-18.3-11.2-10.2-9.2 1-6.1 7.1-12.2 14.3-28.5 28.5-48.9-4.1-16.3c-2-8.2-7.1-13.3-17.3-16.3l-21.4-8.2-11.2-2-9.2-1-11.2-1-16.3-1h-15.3l-10.2 1-264 92.8h-1l-5.1 1-12.2 1-13.3-1-10.2-3.1c-2-2-3.1-5.1-3.1-6.1v-57.1l-3-20.5v-34.7L1 110 0 96.8c0-4.1 2-7.1 6.1-9.2l10.2-1 21.4-1h232.4l10.2-3.1 14.3-3.1 14.3-4.1 6.1-3.1 11.2-8.2 6.1-4.1 4.1-1 20.4-5.1 6.1-1 3.1-1 13.3-12.2 18.3-19.4 15.3-2 15.3 2h3.1l1-1 2 1 5.1 3.1h12.2l3.1 6.1V51h2V37.7h26.5v-6.1h14.3v6.1h10.2v-6.1H521v6.1h9.2v-6.1h14.3v6.1h11.2v-6.1H569v6.1h11v-6.1h14.3v6.1h11.2v-6.1h14.3v6.1h8.2v-6.1h15.3v6.1h8.2v-6.1h14.3v6.1h14.3V51h187.6L881 39.8l10.2-11.2v-7.1l1-4.1 3.1-9.2 7.1-5.1h4.1l9.2-3.1 8.2 6.1 8.2 14.3 4.7 8.1M677.9 44.9H473V50h204.9v-5.1m-170.3 160c0 3.1 2 5.1 5.1 8.2 3.1 2 6.1 4.1 10.2 4.1h46.9L580 213l4.1-8.2c0-5.1-1-9.2-4.1-11.2l-10.2-3.1h-46.9c-4.1 0-7.1 1-10.2 3.1-3 2.1-5.1 6.2-5.1 11.3m-264-59.1l3.1-7.1c0-8.2-4.1-13.3-12.2-13.3H212c-3.1 0-6.1 1-8.2 3.1-2 2-4.1 5.1-4.1 9.2 0 3.1 1 5.1 4.1 7.1 2 2 4.1 3.1 8.2 3.1h22.4c4.1.9 7.2-.1 9.2-2.1M59.1 115.2l-12.2-1 1 18.3 2 24.5 1 23.4 1 14.3c2 2 5.1 4.1 10.2 6.1l17.3 3.1 16.3-4.1 20.4-7.1 20.4-9.2 14.3-8.2 4.1-9.2-3.1-16.3-5.1-16.3-14.3-2-23.4-6.1-15.3-4.1-18.3-4.1-16.3-2"/></symbol><symbol viewBox="0 0 1000 369.2" id="i-usp"><path d="M992.2 89.4H791.5l-2.6-1.3-3.9 1.3H629.5l-3.9 2.6-6.5-1.3h-64.8V79h-22V68.7h-13V92l3.9 2.6v11.7l-3.9 2.6-1.3 22H370.5l-2.6 1.3c-2.6 1.3-3.9 3.9-5.2 6.5l-25.9 63.5-6.5 6.5-10.4 1.3-67.4 2.6-10.4-3.9-16.8-5.2-10.4-1.3-10.4 2.6L193 206l-5.2-1.3L158 343.3l-1.3 15.5 6.5 10.4-139.9-1.3 1.3-32.4c2.6-25.9 6.5-50.5 13-73.8 6.5-23.3 14.2-45.3 23.3-66.1l9.1-19.4 5.2-11.7c1.3-5.2 0-9.1-3.9-13-2.6-2.6-7.8-5.2-16.8-7.8l-16.8-5.2-5.2-5.2v-14.2l1.3-10.4-24.6-2.6-5.2-1.3c-2.7-2.5-4-5.1-4-7.6 1.3-3.9 3.9-6.5 7.8-6.5h6.5l3.9-16.8 19.4 11.7 9.1-42.7 13-25.9V6.5L69.9 13h41.5l3.9 3.9h141.2v2.6h79v-1.3h136V0h32.4l3.9 5.2v11.7h5.2l3.9 5.2v10.4h13v-9.1h19.4V3.9h67.4l5.2-2.6 5.2 2.6h155.4l5.2 1.3 5.2-1.3h198.2l3.9 3.9 3.9 13 1.3 24.6-2.6 25.9-3.9 13-1.5 5.1m-659.3 40.1h-73.8l-15.5 16.8-7.8 10.4c-2.6 5.2-5.2 10.4-5.2 16.8l1.3 13 2.6 6.5-3.9 3.9-5.2-11.7c-3.9-7.8-5.2-14.2-3.9-19.4 1.3-9.1 3.9-16.8 10.4-24.6l6.5-7.8L228 136c-7.8 2.6-13 5.2-16.8 9.1-5.2 5.2-7.8 10.4-9.1 16.8-1.3 6.5-1.3 13 1.3 18.1l11.7 13 16.8 6.5 18.1 1.3 14.2 1.3 32.4 1.3 28.5-1.3 13-29.8 10.4-27.2v-3.9l-1.3-6.5-6.5-3.9-7.8-1.3"/></symbol><symbol viewBox="0 0 1000 221.2" id="i-xm1014"><path d="M1000 35.1v8.4l-2.1 8.4-11.2 2.8-18.3.7V59h1.4l1.4 2.1 9.1-.7c4.9-.7 8.4 0 11.2 2.8 2.1.7 3.5 3.5 4.9 7.7 1.4 4.2 2.1 7.7.7 11.9-2.1 5.6-5.6 9.1-11.9 11.2h-250c-1.4 0-5.6 1.4-12.6 3.5L691 101h-75.8l-46.3.7h-76.5l-14.7-.7-7.7-2.1h-21l-8.4-1.4-12.6-.7h-18.2l-6.3 3.5c-5.6 4.2-9.8 6.3-12.6 6.3l-4.9-2.1-9.8-2.1-11.9-2.8-8.4-.7h-12.6c-6.3.7-10.5 1.4-12.6 3.5-1.4 0-3.5 2.1-5.6 5.6l-9.1 9.8c-3.5 3.5-7 5.6-10.5 7h-6.3l-4.2 2.1h-2.8l-10.5.7-14.7.7-14.7 1.4c-4.2.7-7 1.4-7.7 2.8l-3.5 7-7 15.4-9.8 19.7-9.8 18.3c0 4.9.7 8.4 1.4 9.8l1.4 4.2 2.1 2.1 3.5 3.5 2.1 4.2-1.4 2.1-4.9 1.4-7 .7-9.8-.7-14.7-3.5-16.9-2.8L157 209c-4.2-.7-7-2.1-7-3.5l-.7-1.4c-1.4-.7-2.1-2.8-2.1-4.9v-2.1l6.3-10.5 11.2-21.1 11.2-21.1 5.6-11.2-.7-7-2.8-7-10.5-2.8c-4.2-.7-7.7-.7-9.8 0l-7-.7h-1.4v-2.8l.7-2.8.7-1.4-12.6 2.8-24.6 5.6-23.9 6.3-11.2 2.8-3.5 3.5-5.6 7-4.2 7-3.5 9.8-3.5 7.7-2.1 4.2-5.6 3.5-12.6 6.3-24.6 10.5H9.8l-7.7-2.8L0 50.6l54.8-7.7 4.9-1.4 2.1-2.8 2.8-2.8L244.4 19v2.1l2.8 4.9 2.8 2.1 1.4.7 2.1-.7 2.1-2.1v-4.9h1.4l11.2-16.2V1.4h.7l.7-.7V0h11.2l.7 1.4h2.1v3.5c2.1 1.4 4.2 2.1 6.3 2.1l3.5 2.1h11.2l9.1.7c2.1 0 3.5 1.4 3.5 2.8 1.4 0 2.1 2.1 2.1 6.3v3.5l1.4.7.7.7.7.7V13.3H448v-7h7v7h18.3v2.8l.7 7 2.8 3.5h460.7l4.9-4.2 2.8-6.3 1.4-4.2 1.4-7c1.4-2.8 2.8-3.5 4.2-3.5l7.7 2.8 10.5 6.3 10.5 7.7 5.6 7 2.1 2.1 1.4.7 2.1.7h2.1l5.6 2.8.2 3.6m-53.4 23.2l-3.5-3.5h-11.2l-2.1-2.8h-196c-2.8 2.1-4.2 4.2-3.5 6.3v2.1l25.3.7h52.7l66.7-1.4 66-.7h5.6M289.3 6.3l.7.7h1.4-2.1v-.7M299.9 111l2.8-7c0-4.2-.7-7-2.8-9.1-1.4-2.1-4.2-3.5-7.7-3.5h-25.3c-2.8 0-5.6.7-7.7 3.5-2.1 2.1-2.8 5.6-2.8 9.1 0 2.8.7 4.9 2.8 7 2.1 2.1 4.9 3.5 7.7 3.5h25.3c3.4 0 6.3-1.4 7.7-3.5M264 7h-1.4 1.4"/></symbol></svg>